<svg xmlns="http://www.w3.org/2000/svg" width="192.721" height="40.714" viewBox="0 0 192.721 40.714"><g transform="translate(-155.5 -830.26)"><g transform="translate(254.355 836.426)"><path d="M734.975,852.29H731a2.455,2.455,0,0,0-2.34,1.478l-5.051,13.388H723.5l-5.3-13.418a2.465,2.465,0,0,0-2.328-1.448h-4a2.2,2.2,0,0,0-2.292,2.931l9.588,21.4-3.25,6.862c-.672,1.415.52,2.97,2.274,2.97h3.927a2.47,2.47,0,0,0,2.3-1.391l12.865-29.868A2.2,2.2,0,0,0,734.975,852.29Z" transform="translate(-643.576 -851.906)" fill="#0f0d6d"/><g transform="translate(40.024 0.268)"><path d="M641.844,853.645a12.775,12.775,0,1,0,0,22.066v.752a.931.931,0,0,0,.931.931h4.475a.928.928,0,0,0,.928-.931V864.678A12.766,12.766,0,0,0,641.844,853.645ZM635.4,870.7a6.022,6.022,0,1,1,6-6.017A6.01,6.01,0,0,1,635.4,870.7Zm12.555-5.569v-.648c0,.1.006.211.006.321S647.957,865.02,647.954,865.13Z" transform="translate(-622.62 -851.9)" fill="#0f0d6d"/></g><path d="M488,866.906v-14.8A1.1,1.1,0,0,1,489.106,851h4.923a1.1,1.1,0,0,1,1.106,1.106v13.462a3.865,3.865,0,1,0,7.73,0V852.106A1.1,1.1,0,0,1,503.971,851h4.923A1.1,1.1,0,0,1,510,852.106v13.462a3.865,3.865,0,1,0,7.73,0V852.106A1.1,1.1,0,0,1,518.837,851h4.923a1.1,1.1,0,0,1,1.106,1.106v15.1a8.874,8.874,0,0,1-.161,1.695,10.219,10.219,0,0,1-10.245,7.968,10.739,10.739,0,0,1-7.914-3.386,11.229,11.229,0,0,1-7.843,3.089,10.589,10.589,0,0,1-10.326-7.112A8.755,8.755,0,0,1,488,866.906Z" transform="translate(-488 -851)" fill="#0f0d6d"/></g><g transform="translate(155.5 830.26)"><g transform="translate(68.241 0)"><path d="M398.13,861.08a12.711,12.711,0,0,1,2.013-1.57A10.36,10.36,0,0,0,398.13,861.08Z" transform="translate(-394.235 -850.814)" fill="#0f0d6d"/><path d="M409.424,830.26h-4.472a.938.938,0,0,0-.931.931v7.641q-.424-.259-.874-.482v.134c-.048-.027-.092-.048-.137-.071a.842.842,0,0,0,.059-.083,12.4,12.4,0,0,0-3.324-1.091c-.119-.021-.235-.039-.354-.056-.1-.018-.2-.03-.294-.042-.054-.006-.107-.012-.164-.021-.1-.009-.193-.018-.288-.024-.113-.012-.223-.018-.333-.024-.089-.006-.175-.012-.268-.015l-.137,0c-.11,0-.217-.006-.324-.006-.158,0-.315,0-.47.009-.08,0-.161.009-.238.012s-.184.009-.276.021-.2.015-.3.027c-.077,0-.152.015-.229.024s-.152.021-.223.03h-.009c-.116.015-.226.033-.336.054s-.223.039-.333.059-.226.045-.336.071c-.214.048-.428.1-.639.161a.26.26,0,0,1-.045.015c-.122.036-.244.071-.366.11-.059.018-.119.039-.178.06-.039.012-.077.024-.113.039-.1.039-.205.071-.3.113s-.2.074-.3.113-.2.083-.294.128-.2.086-.291.134a10.873,10.873,0,0,1,3.969-.776,11,11,0,0,0-3.853.776,10.42,10.42,0,0,0-1.484.731,12.711,12.711,0,0,0-2.013,1.57c-.039.036-.074.071-.11.107a12.532,12.532,0,0,0-3.583,6.791q-.036.183-.062.366c-.015.1-.03.2-.042.3,0,.039-.009.08-.015.119s-.009.071-.009.11c-.015.116-.024.235-.036.351a.122.122,0,0,0,0,.033c-.006.1-.015.205-.018.309q-.018.312-.018.624c0,.211.006.419.018.627,0,.1.012.205.018.309a.122.122,0,0,0,0,.033c.009.092.015.184.024.273.009.068.015.137.024.205.006.036.009.068.012.1.012.1.027.2.042.3s.039.229.059.342a12.535,12.535,0,0,0,17.963,9.074c.285-.143.559-.294.829-.458v.85a.922.922,0,0,0,.458.8.912.912,0,0,0,.473.134h4.474a.928.928,0,0,0,.928-.934V831.191A.93.93,0,0,0,409.424,830.26Zm-11.515,25.292a6.022,6.022,0,1,1,6.006-6.021A6.014,6.014,0,0,1,397.909,855.552Z" transform="translate(-385.03 -830.26)" fill="#0f0d6d"/><path d="M437.93,854.844v.132c-.046-.025-.09-.046-.136-.072.021-.025.042-.053.06-.081a12.392,12.392,0,0,0-3.323-1.092A12.327,12.327,0,0,1,437.93,854.844Z" transform="translate(-419.814 -846.753)" fill="#0f0d6d"/><path d="M410.237,854.439a11.01,11.01,0,0,0-3.853.775,10.51,10.51,0,0,0-1.482.733,12.287,12.287,0,0,1,1.952-.992c-.2.081-.393.167-.585.259A10.943,10.943,0,0,1,410.237,854.439Z" transform="translate(-398.994 -847.25)" fill="#0f0d6d"/></g><path d="M302.336,853.24a12.626,12.626,0,0,0,.131,25.25c4.683,0,8.771-2.643,11.137-7.2a.673.673,0,0,0-.6-.984h-5.875a.685.685,0,0,0-.529.241,4.921,4.921,0,0,1-4.133,1.977,5.388,5.388,0,0,1-5.37-3.608.674.674,0,0,1,.646-.872h16.4a.681.681,0,0,0,.673-.6,9.933,9.933,0,0,0,.073-1.279C314.892,858.829,309.451,853.24,302.336,853.24Zm4.51,10.025h-8.94a.676.676,0,0,1-.624-.937,5.723,5.723,0,0,1,10.189,0A.673.673,0,0,1,306.846,863.265Z" transform="translate(-249.921 -846.408)" fill="#0f0d6d"/><path d="M192.366,860.46v14.8a1.106,1.106,0,0,1-1.106,1.106h-4.923a1.106,1.106,0,0,1-1.106-1.106V861.8a3.869,3.869,0,0,0-4.38-3.832,4.072,4.072,0,0,0-3.35,3.932V875.26a1.106,1.106,0,0,1-1.106,1.106h-4.923a1.106,1.106,0,0,1-1.106-1.106V861.8a3.869,3.869,0,0,0-4.38-3.832,4.072,4.072,0,0,0-3.35,3.932V875.26a1.106,1.106,0,0,1-1.106,1.106h-4.923a1.106,1.106,0,0,1-1.106-1.106v-15.1a8.875,8.875,0,0,1,.161-1.695,10.219,10.219,0,0,1,10.245-7.968,10.739,10.739,0,0,1,7.914,3.386,11.229,11.229,0,0,1,7.843-3.089,10.589,10.589,0,0,1,10.326,7.112A8.755,8.755,0,0,1,192.366,860.46Z" transform="translate(-155.5 -844.482)" fill="#0f0d6d"/></g></g></svg>