<svg width="28" height="26" viewBox="0 0 28 26" fill="none" xmlns="http://www.w3.org/2000/svg">
<g clip-path="url(#clip0)">
<path d="M20.6908 26C20.5293 26.0003 20.3743 25.9409 20.26 25.835L6.87193 13.4033C6.63437 13.1826 6.63437 12.8249 6.87193 12.6042L20.26 0.17249C20.4935 -0.05197 20.8787 -0.0581683 21.1205 0.15861C21.3622 0.375442 21.3689 0.733136 21.1354 0.957649C21.1305 0.962364 21.1255 0.966973 21.1205 0.971529L8.16328 13.0032L21.1217 25.0349C21.3596 25.2553 21.3601 25.6131 21.1228 25.834C21.0083 25.9405 20.8528 26.0003 20.6908 26Z" fill="#F44336"/>
<path d="M20.6908 26C20.5293 26.0003 20.3743 25.9409 20.26 25.835L6.87193 13.4033C6.63437 13.1826 6.63437 12.8249 6.87193 12.6042L20.26 0.17249C20.4935 -0.05197 20.8787 -0.0581683 21.1205 0.15861C21.3622 0.375442 21.3689 0.733136 21.1354 0.957649C21.1305 0.962364 21.1255 0.966973 21.1205 0.971529L8.16328 13.0032L21.1217 25.0349C21.3596 25.2553 21.3601 25.6131 21.1228 25.834C21.0083 25.9405 20.8528 26.0003 20.6908 26Z" fill="white"/>
</g>
<defs>
<clipPath id="clip0">
<rect width="28" height="26" fill="white"/>
</clipPath>
</defs>
</svg>
