<svg width="259" height="154" viewBox="0 0 259 154" fill="none" xmlns="http://www.w3.org/2000/svg">
<g clip-path="url(#clip0)">
<path opacity="0.1" d="M86.1068 153.913C98.7199 153.913 108.945 152.535 108.945 150.834C108.945 149.134 98.7199 147.755 86.1068 147.755C73.4937 147.755 63.2687 149.134 63.2687 150.834C63.2687 152.535 73.4937 153.913 86.1068 153.913Z" fill="#00B0FF"/>
<path opacity="0.1" d="M210.251 154C225.99 154 238.75 152.621 238.75 150.921C238.75 149.22 225.99 147.842 210.251 147.842C194.512 147.842 181.753 149.22 181.753 150.921C181.753 152.621 194.512 154 210.251 154Z" fill="#00B0FF"/>
<path opacity="0.1" d="M3.24383 66.5391H27.0311V93.7548H4.98528C4.92668 94.0342 4.87043 94.3155 4.80949 94.5969H27.0311V116.546C26.9913 116.536 26.9561 116.524 26.9186 116.512C26.2905 116.304 25.667 116.083 25.0436 115.847L24.6451 115.696C24.0201 115.448 23.3951 115.186 22.7701 114.909C22.5521 114.812 22.3341 114.712 22.1185 114.61C18.6487 112.978 15.4965 110.911 12.7714 108.479C12.6917 108.414 12.6167 108.345 12.537 108.282C12.1573 107.936 11.7847 107.586 11.4237 107.228L11.0253 106.834C10.5987 106.396 10.1862 105.945 9.78539 105.489C9.7268 105.422 9.67055 105.355 9.60961 105.292C7.9796 103.395 6.62618 101.341 5.57826 99.1731C5.54545 99.1082 5.51732 99.0374 5.48685 98.9764C5.16497 98.2812 4.87981 97.5795 4.63136 96.8712C4.52355 96.5741 4.42042 96.281 4.33136 95.9721C4.29854 95.8816 4.27042 95.7931 4.24463 95.7045C2.91335 91.3427 2.75632 86.8117 2.75632 82.3121C2.75632 81.7868 2.75632 81.2595 2.75632 80.7382C2.75632 78.9183 2.7821 77.0866 2.8196 75.2568C2.8196 74.7827 2.84304 74.3105 2.85476 73.8344C2.88757 72.6264 2.93445 71.4183 2.99539 70.2103C3.00945 69.8739 3.0282 69.5394 3.04929 69.205C3.04929 69.0122 3.06101 68.8194 3.08445 68.6265C3.1407 67.9261 3.18758 67.2316 3.24383 66.5391Z" fill="#00B0FF"/>
<path opacity="0.1" d="M27.0311 36.2365H13.9832C16.1042 33.4497 18.4216 30.7718 20.9232 28.2171C22.8615 26.2182 24.9076 24.2704 27.0311 22.3935V36.2365Z" fill="#00B0FF"/>
<path opacity="0.1" d="M27.0311 37.0785V65.697H3.31885C3.31885 65.6144 3.33525 65.5298 3.34229 65.4471C3.36338 65.2209 3.38447 64.9946 3.40791 64.7703C3.43369 64.5067 3.46182 64.2411 3.49229 63.9834C3.52276 63.7256 3.55557 63.4108 3.59073 63.1255C3.62589 62.8403 3.6587 62.551 3.69854 62.2658C3.73839 61.9805 3.77355 61.6952 3.81573 61.4119C3.85792 61.1286 3.89542 60.8413 3.93996 60.558C3.97511 60.3219 4.01261 60.0878 4.05011 59.8517C4.10402 59.5192 4.16027 59.1847 4.22121 58.8542C4.22121 58.805 4.23762 58.7539 4.24699 58.7067C4.67478 56.287 5.25767 53.8885 5.99313 51.5215C6.76297 49.0386 7.74604 46.6057 8.93461 44.242C10.1978 41.7693 11.6769 39.3782 13.3597 37.0884L27.0311 37.0785Z" fill="#00B0FF"/>
<path opacity="0.1" d="M32.7102 66.5372V93.7548H83.5169V66.5372H32.7102ZM32.7102 94.5949V117.968C33.0008 118.019 33.2891 118.069 33.575 118.11C33.9641 118.173 34.3508 118.23 34.7469 118.279C34.8219 118.289 34.8993 118.299 34.9813 118.305C35.136 118.326 35.2954 118.344 35.4501 118.362C35.8415 118.407 36.2306 118.444 36.622 118.474C36.8071 118.49 36.9946 118.503 37.1821 118.515L37.6345 118.545C37.8806 118.56 38.1243 118.572 38.3658 118.578C38.5158 118.578 38.6658 118.59 38.8205 118.594C38.9377 118.594 39.0548 118.594 39.1767 118.594C39.2986 118.594 39.472 118.594 39.6197 118.594C39.8213 118.594 40.0228 118.594 40.2221 118.594H40.4916C40.6932 118.594 40.8947 118.594 41.094 118.578H41.108C41.2463 118.578 41.3869 118.578 41.5276 118.562C41.5666 118.564 41.6057 118.564 41.6447 118.562C41.7619 118.562 41.8791 118.562 41.9916 118.549H42.0737L42.8588 118.497C43.1167 118.478 43.3768 118.452 43.6393 118.429L44.1737 118.375C46.3478 118.12 48.4977 117.736 50.6075 117.227C55.3466 116.117 59.9827 114.565 64.7195 113.427C70.8439 111.962 77.6105 111.242 83.5286 113.034V94.5949H32.7102ZM83.5169 36.2365V0.00204261C77.9544 -0.0485451 72.407 0.49758 67.0094 1.62715C54.1443 4.34026 42.601 10.2249 32.7102 17.7406V36.2346H35.2602V37.0747H32.7102V65.6971H83.5169V37.0766H45.73V36.2365H83.5169ZM148.775 23.997C145.593 23.9026 142.428 23.0566 139.567 21.7502C134.094 19.2515 129.723 15.3934 124.838 12.1373C114.689 5.35547 102.103 1.26318 89.1912 0.247974V36.2365H161.72L161.901 36.0772L148.775 23.997ZM155.383 23.0133L162.388 29.4665V21.3213C160.042 21.5653 157.987 22.1457 155.392 23.0054L155.383 23.0133ZM162.388 123.772V94.5949H147.461C147.421 94.471 147.381 94.3451 147.334 94.2192C147.379 94.3451 147.416 94.471 147.458 94.5949H89.2006V115.696C89.7537 116.04 90.2998 116.402 90.8412 116.77C91.4249 117.164 92.0014 117.579 92.5803 117.986L93.164 118.391C93.4429 118.588 93.7241 118.785 94.0077 118.97C94.5702 119.353 95.1382 119.73 95.7117 120.103C95.9953 120.3 96.2859 120.477 96.5742 120.662C101.151 123.599 105.979 126.25 111.019 128.592C112.149 129.117 113.289 129.629 114.439 130.129C115.205 130.458 115.976 130.784 116.75 131.101C117.912 131.577 119.084 132.036 120.265 132.478C131.156 136.582 142.672 139.398 154.485 140.846C157.108 141.171 159.742 141.427 162.386 141.613V123.77H162.62L162.388 123.772ZM89.2006 37.0766V65.6971H162.398V37.0766H89.2006ZM89.2006 66.5372V93.7548H162.398V66.5372H89.2006ZM168.079 21.2859V30.3716L177.021 22.1358C174.058 21.7345 171.078 21.4479 168.079 21.2761V21.2859ZM168.079 66.547V93.7548H239.272V66.5372L168.079 66.547ZM239.012 125.932L239.263 94.5949H168.079V141.926C172.665 142.088 177.257 142.042 181.837 141.788V141.788H181.917C184.104 141.673 186.282 141.505 188.449 141.284H188.498C200.06 140.155 211.366 137.623 222.062 133.767L239.012 125.932ZM253 71.019C252.733 70.4898 252.454 69.9645 252.17 69.4451C251.64 68.4613 251.08 67.5052 250.504 66.549H244.949V93.7548H258.993C258.986 86.0503 256.663 78.1805 253.007 71.0092L253 71.019ZM244.949 94.6048V121.559C248.905 118.375 252.247 114.734 254.655 110.571C257.549 105.558 258.873 100.129 258.981 94.6009L244.949 94.6048ZM244.949 58.6162V65.699H249.983C248.46 63.2608 246.782 60.8932 244.956 58.6064L244.949 58.6162ZM196.666 26.6255C196.296 26.5075 195.926 26.3875 195.553 26.2714C191.623 25.053 187.606 24.0398 183.527 23.2376L169.844 35.843L169.581 36.0772L169.757 36.2385H218.457C211.674 32.3194 204.362 29.0893 196.673 26.6157L196.666 26.6255ZM219.884 37.0865H169.078L168.079 37.8538V65.6971H176.831H176.845H239.282V52.2102C233.633 46.4763 227.115 41.3884 219.891 37.0766L219.884 37.0865Z" fill="#00B0FF"/>
<path opacity="0.1" d="M27.0311 51.5137V65.697H3.31885C3.31885 65.6144 3.33525 65.5298 3.34229 65.4472C3.36338 65.2209 3.38447 64.9946 3.40791 64.7704C3.43369 64.5067 3.46182 64.2411 3.49229 63.9834C3.52276 63.7256 3.55557 63.4108 3.59073 63.1256C3.62589 62.8403 3.6587 62.5511 3.69854 62.2658C3.73839 61.9805 3.77355 61.6952 3.81573 61.4119C3.85792 61.1286 3.89542 60.8414 3.93996 60.558C3.97511 60.322 4.01261 60.0878 4.05011 59.8517C4.10402 59.5192 4.16027 59.1848 4.22121 58.8542C4.22121 58.805 4.23762 58.7539 4.24699 58.7067C4.67478 56.287 5.25767 53.8885 5.99313 51.5216L27.0311 51.5137Z" fill="#00B0FF"/>
<path opacity="0.1" d="M3.24383 66.5391H27.0311V93.7548H4.98528C4.92668 94.0342 4.87043 94.3155 4.80949 94.5969H27.0311V116.546C26.9913 116.536 26.9561 116.524 26.9186 116.512C26.2905 116.304 25.667 116.083 25.0436 115.847L24.6451 115.696C24.0201 115.448 23.3951 115.186 22.7701 114.909C22.5521 114.812 22.3341 114.712 22.1185 114.61C18.6487 112.978 15.4965 110.911 12.7714 108.479C12.6917 108.414 12.6167 108.345 12.537 108.282C12.1573 107.936 11.7847 107.586 11.4237 107.228L11.0253 106.834C10.5987 106.396 10.1862 105.945 9.78539 105.489C9.7268 105.422 9.67055 105.355 9.60961 105.292C7.9796 103.395 6.62618 101.341 5.57826 99.1731C5.54545 99.1082 5.51732 99.0374 5.48685 98.9764C5.16497 98.2812 4.87981 97.5795 4.63136 96.8712C4.52355 96.5741 4.42042 96.281 4.33136 95.9721C4.29854 95.8816 4.27042 95.7931 4.24463 95.7045C2.91335 91.3427 2.75632 86.8117 2.75632 82.3121C2.75632 81.7868 2.75632 81.2595 2.75632 80.7382C2.75632 78.9183 2.7821 77.0866 2.8196 75.2568C2.8196 74.7827 2.84304 74.3105 2.85476 73.8344C2.88757 72.6264 2.93445 71.4183 2.99539 70.2103C3.00945 69.8739 3.0282 69.5394 3.04929 69.205C3.04929 69.0122 3.06101 68.8194 3.08445 68.6265C3.1407 67.9261 3.18758 67.2316 3.24383 66.5391Z" fill="#00B0FF"/>
<path opacity="0.1" d="M50.5957 41.1747V65.697H32.7102V41.1747H35.2602V32.8721H45.7277V41.1747H50.5957Z" fill="#00B0FF"/>
<path opacity="0.1" d="M50.5957 66.5371H32.7125V93.7528H50.5957V66.5371Z" fill="#00B0FF"/>
<path opacity="0.1" d="M32.7102 94.5968H50.5957V117.222C48.486 117.731 46.336 118.115 44.162 118.37L43.6276 118.425C43.3651 118.45 43.1049 118.472 42.8471 118.493C42.5893 118.515 42.3221 118.531 42.0619 118.545H41.9799C41.8674 118.545 41.7455 118.556 41.6354 118.558H41.5158C41.3752 118.558 41.2346 118.57 41.094 118.574C40.8947 118.584 40.6955 118.586 40.4916 118.588C40.4049 118.588 40.3228 118.588 40.2361 118.588C40.0346 118.588 39.8353 118.588 39.6338 118.588H39.1908C39.0712 118.588 38.9564 118.588 38.8322 118.588L38.3798 118.574C38.1454 118.574 37.8923 118.552 37.6486 118.539L37.1985 118.511L36.6384 118.468C36.2446 118.438 35.8532 118.401 35.4665 118.356L34.9977 118.301L34.7633 118.273C34.3719 118.222 33.9852 118.167 33.5914 118.104C33.3031 118.063 33.0172 118.011 32.7266 117.962L32.7102 94.5968Z" fill="#00B0FF"/>
<path opacity="0.1" d="M162.398 38.2787H147.65V65.6951H162.398V38.2787Z" fill="#00B0FF"/>
<path opacity="0.1" d="M162.4 66.5371V93.7548H89.2006V82.015H128.19V88.9404H147.65V66.5371H162.4Z" fill="#00B0FF"/>
<path opacity="0.1" d="M162.632 123.778H162.398V141.633C159.757 141.445 157.124 141.19 154.499 140.867C142.681 139.415 131.16 136.593 120.265 132.482C117.12 131.294 114.039 129.996 111.021 128.59C105.981 126.247 101.153 123.596 96.5742 120.66C95.4242 119.92 94.289 119.163 93.1687 118.389C92.3929 117.852 91.6217 117.301 90.8413 116.766C90.2998 116.398 89.7537 116.036 89.2006 115.69V94.5969H147.456C147.416 94.4709 147.376 94.345 147.334 94.2211C147.379 94.345 147.421 94.4709 147.461 94.5969H162.398V123.766C162.477 123.768 162.555 123.774 162.632 123.778Z" fill="#00B0FF"/>
<path opacity="0.1" d="M200.86 36.2365H191.25V33.7299H195.558V26.2635C195.931 26.3776 196.303 26.495 196.673 26.6156V33.7299H200.86V36.2365Z" fill="#00B0FF"/>
<path opacity="0.1" d="M224.012 65.697H176.836C176.836 65.697 176.836 65.697 176.852 65.7069L176.831 65.697H168.079V38.2806H170.559V58.5453H181.891V46.5439H191.252V37.0785H200.862V46.5518H210.223V58.5532H224.012V65.697Z" fill="#00B0FF"/>
<path opacity="0.1" d="M168.079 66.5371V93.7548H224.012V66.5371H168.079ZM239.195 125.793L239.272 104.249H224.012V94.6087H168.079V141.926C172.665 142.087 177.257 142.042 181.837 141.788V141.788H181.917C184.104 141.673 186.282 141.505 188.449 141.284H188.498C200.06 140.155 211.366 137.623 222.062 133.767" fill="#00B0FF"/>
<path opacity="0.1" d="M245.943 94.5968H258.991C258.876 100.123 257.554 105.552 254.662 110.565C252.255 114.73 248.91 118.372 244.958 121.553V104.239H245.943V94.5968Z" fill="#00B0FF"/>
<path opacity="0.1" d="M258.998 93.7548H245.943V71.0091H253.007C256.663 78.1805 258.986 86.0503 258.998 93.7548Z" fill="#00B0FF"/>
<path opacity="0.1" d="M162.4 45.9006H154.499V54.4963H162.4V45.9006Z" fill="#00B0FF"/>
<path opacity="0.1" d="M162.4 63.7178H154.499V65.697H162.4V63.7178Z" fill="#00B0FF"/>
<path opacity="0.1" d="M162.4 66.5371H154.499V72.3116H162.4V66.5371Z" fill="#00B0FF"/>
<path opacity="0.1" d="M162.4 81.535H154.499V90.1307H162.4V81.535Z" fill="#00B0FF"/>
<path opacity="0.1" d="M162.4 99.3522H154.499V107.948H162.4V99.3522Z" fill="#00B0FF"/>
<path opacity="0.1" d="M162.398 123.766C162.477 123.766 162.555 123.766 162.632 123.778H162.398V125.775H154.499V117.169H162.398V123.766Z" fill="#00B0FF"/>
<path opacity="0.1" d="M162.398 134.983V141.623C159.757 141.435 157.124 141.18 154.499 140.857V134.983H162.398Z" fill="#00B0FF"/>
<path opacity="0.1" d="M123.062 93.1232H89.2006V93.7548H123.062V93.1232Z" fill="#00B0FF"/>
<path opacity="0.1" d="M123.062 94.5949H89.2006V97.0148H123.062V94.5949Z" fill="#00B0FF"/>
<path opacity="0.1" d="M123.062 104.948H89.2006V108.839H123.062V104.948Z" fill="#00B0FF"/>
<path opacity="0.1" d="M123.059 116.772V120.664H96.5742C95.4242 119.926 94.2882 119.17 93.1663 118.393C92.3905 117.856 91.6217 117.305 90.8389 116.772H123.059Z" fill="#00B0FF"/>
<path opacity="0.1" d="M123.059 128.594V132.482H120.263C117.121 131.292 114.04 129.995 111.021 128.588L123.059 128.594Z" fill="#00B0FF"/>
<path opacity="0.1" d="M188.505 69.1755H181.84V74.7709H188.505V69.1755Z" fill="#00B0FF"/>
<path opacity="0.1" d="M44.1784 43.1048H37.5126V48.7002H44.1784V43.1048Z" fill="#00B0FF"/>
<path opacity="0.1" d="M44.1784 56.1018H37.5126V61.6972H44.1784V56.1018Z" fill="#00B0FF"/>
<path opacity="0.1" d="M44.1784 69.0987H37.5126V74.6942H44.1784V69.0987Z" fill="#00B0FF"/>
<path opacity="0.1" d="M44.1784 82.0937H37.5126V87.6891H44.1784V82.0937Z" fill="#00B0FF"/>
<path opacity="0.1" d="M44.1784 95.0907H37.5126V100.686H44.1784V95.0907Z" fill="#00B0FF"/>
<path opacity="0.1" d="M44.1784 108.088H37.5126V113.683H44.1784V108.088Z" fill="#00B0FF"/>
<path opacity="0.1" d="M213.952 69.1755H207.286V74.7709H213.952V69.1755Z" fill="#00B0FF"/>
<path opacity="0.1" d="M188.505 82.9771H181.84V88.5725H188.505V82.9771Z" fill="#00B0FF"/>
<path opacity="0.1" d="M213.952 82.9771H207.286V88.5725H213.952V82.9771Z" fill="#00B0FF"/>
<path opacity="0.1" d="M188.505 96.7768H181.84V102.372H188.505V96.7768Z" fill="#00B0FF"/>
<path opacity="0.1" d="M213.952 96.7768H207.286V102.372H213.952V96.7768Z" fill="#00B0FF"/>
<path opacity="0.1" d="M188.505 110.578H181.84V116.174H188.505V110.578Z" fill="#00B0FF"/>
<path opacity="0.1" d="M213.952 110.578H207.286V116.174H213.952V110.578Z" fill="#00B0FF"/>
<path opacity="0.1" d="M188.505 124.38H181.84V129.975H188.505V124.38Z" fill="#00B0FF"/>
<path opacity="0.1" d="M213.952 124.38H207.286V129.975H213.952V124.38Z" fill="#00B0FF"/>
<path opacity="0.1" d="M181.84 141.788V138.18H188.503V141.275L181.84 141.788Z" fill="#00B0FF"/>
<path opacity="0.1" d="M4.21886 58.7027V61.9038H27.0311V58.7027H4.21886ZM6.49235 61.7031H4.63137V58.8995H6.50641L6.49235 61.7031ZM8.7635 61.7031H6.88845V58.8995H8.7635V61.7031ZM11.03 61.7031H9.15491V58.8995H11.03V61.7031ZM13.3011 61.7031H11.4284V58.8995H13.3034L13.3011 61.7031ZM15.5699 61.7031H13.6949V58.8995H15.5699V61.7031ZM17.8411 61.7031H15.966V58.8995H17.8411V61.7031ZM20.1122 61.7031H18.2372V58.8995H20.1122V61.7031ZM22.381 61.7031H20.506V58.8995H22.381V61.7031ZM24.6498 61.7031H22.7748V58.8995H24.6498V61.7031ZM26.9186 61.7031H25.0436V58.8995H26.9186V61.7031Z" fill="#00B0FF"/>
<path opacity="0.1" d="M4.21886 68.0166V71.2177H27.0311V68.0166H4.21886ZM6.49235 71.015H4.63137V68.2193H6.50641L6.49235 71.015ZM8.7635 71.015H6.88845V68.2193H8.7635V71.015ZM11.03 71.015H9.15491V68.2193H11.03V71.015ZM13.3011 71.015H11.4284V68.2193H13.3034L13.3011 71.015ZM15.5699 71.015H13.6949V68.2193H15.5699V71.015ZM17.8411 71.015H15.966V68.2193H17.8411V71.015ZM20.1122 71.015H18.2372V68.2193H20.1122V71.015ZM22.381 71.015H20.506V68.2193H22.381V71.015ZM24.6498 71.015H22.7748V68.2193H24.6498V71.015ZM26.9186 71.015H25.0436V68.2193H26.9186V71.015Z" fill="#00B0FF"/>
<path opacity="0.1" d="M4.21886 77.3345V80.5414H27.0311V77.3345H4.21886ZM6.49235 80.3329H4.63137V77.5351H6.50641L6.49235 80.3329ZM8.7635 80.3329H6.88845V77.5351H8.7635V80.3329ZM11.03 80.3329H9.15491V77.5351H11.03V80.3329ZM13.3011 80.3329H11.4284V77.5351H13.3034L13.3011 80.3329ZM15.5699 80.3329H13.6949V77.5351H15.5699V80.3329ZM17.8411 80.3329H15.966V77.5351H17.8411V80.3329ZM20.1122 80.3329H18.2372V77.5351H20.1122V80.3329ZM22.381 80.3329H20.506V77.5351H22.381V80.3329ZM24.6498 80.3329H22.7748V77.5351H24.6498V80.3329ZM26.9186 80.3329H25.0436V77.5351H26.9186V80.3329Z" fill="#00B0FF"/>
<path opacity="0.1" d="M4.21886 86.6523V89.8494H27.0311V86.6523H4.21886ZM6.49235 89.6507H4.63137V86.851H6.50641L6.49235 89.6507ZM8.7635 89.6507H6.88845V86.851H8.7635V89.6507ZM11.03 89.6507H9.15491V86.851H11.03V89.6507ZM13.3011 89.6507H11.4284V86.851H13.3034L13.3011 89.6507ZM15.5699 89.6507H13.6949V86.851H15.5699V89.6507ZM17.8411 89.6507H15.966V86.851H17.8411V89.6507ZM20.1122 89.6507H18.2372V86.851H20.1122V89.6507ZM22.381 89.6507H20.506V86.851H22.381V89.6507ZM24.6498 89.6507H22.7748V86.851H24.6498V89.6507ZM26.9186 89.6507H25.0436V86.851H26.9186V89.6507Z" fill="#00B0FF"/>
<path opacity="0.1" d="M4.31731 95.9682C4.40871 96.2692 4.51184 96.5702 4.61966 96.8673V96.1688H6.4947V98.9666H5.49155C5.52202 99.0315 5.55249 99.1023 5.58296 99.1633H27.0311V95.9682H4.31731ZM8.77054 98.9666H6.89549V96.1688H8.77054V98.9666ZM11.037 98.9666H9.16195V96.1688H11.037V98.9666ZM13.3081 98.9666H11.4284V96.1688H13.3035L13.3081 98.9666ZM15.577 98.9666H13.7019V96.1688H15.577V98.9666ZM17.8481 98.9666H15.9731V96.1688H17.8481V98.9666ZM20.1192 98.9666H18.2442V96.1688H20.1192V98.9666ZM22.3881 98.9666H20.513V96.1688H22.3881V98.9666ZM24.6569 98.9666H22.7818V96.1688H24.6569V98.9666ZM26.9257 98.9666H25.0506V96.1688H26.9257V98.9666Z" fill="#00B0FF"/>
<path opacity="0.1" d="M9.61429 105.286C9.67288 105.349 9.72913 105.42 9.79007 105.483H11.0299V106.827C11.1635 106.96 11.2948 107.094 11.4307 107.22V105.475H13.3058V108.282H12.5464C12.6214 108.347 12.694 108.416 12.7808 108.479H27.0381V105.286H9.61429ZM15.5699 108.282H13.6949V105.487H15.5699V108.282ZM17.841 108.282H15.966V105.487H17.841V108.282ZM20.1122 108.282H18.2372V105.487H20.1122V108.282ZM22.381 108.282H20.506V105.487H22.381V108.282ZM24.6498 108.282H22.7748V105.487H24.6498V108.282ZM26.9186 108.282H25.0436V105.487H26.9186V108.282Z" fill="#00B0FF"/>
<path opacity="0.1" d="M22.1279 114.602C22.3412 114.704 22.5591 114.799 22.7794 114.901V114.803H24.6545V115.688L25.0529 115.843V114.803H26.928V116.504C26.9639 116.519 27.0016 116.531 27.0405 116.54V114.602H22.1279Z" fill="#00B0FF"/>
<path opacity="0.1" d="M176.836 65.697H176.85H176.836ZM162.398 123.764H162.632H162.398ZM147.334 94.2191C147.379 94.345 147.416 94.4709 147.458 94.5949C147.421 94.4709 147.381 94.345 147.334 94.2191ZM176.836 65.6911H176.85H176.836ZM35.2696 36.2305V37.0706H45.7394V36.2305H35.2696ZM162.398 123.764H162.632H162.398ZM147.334 94.2191C147.379 94.345 147.416 94.4709 147.458 94.5949C147.421 94.4709 147.381 94.345 147.334 94.2191ZM176.836 65.6911H176.85H176.836ZM162.398 123.758H162.632H162.398ZM147.334 94.2191C147.379 94.345 147.416 94.4709 147.458 94.5949C147.421 94.4709 147.381 94.345 147.334 94.2191Z" fill="#00B0FF"/>
<path d="M108.19 74.6981C108.19 74.6981 107.267 74.5899 107.267 73.4606C107.267 72.3313 106.606 70.2221 106.606 70.2221C106.606 70.2123 106.034 66.5489 105.244 65.9666C104.454 65.3842 103.439 61.9648 103.439 61.9648C103.439 61.9648 103.266 60.1095 102.912 59.7101C102.558 59.3107 102.08 58.3329 101.374 56.9379C100.669 55.543 97.7274 54.577 97.7274 54.577C97.7274 54.577 92.4092 51.9878 90.9022 51.1438C90.7652 51.0745 90.6372 50.9934 90.5201 50.9018C90.2576 50.6126 89.1139 50.6067 89.1139 50.6067C88.9943 49.9732 88.8795 49.2452 88.842 48.5861C88.842 48.5153 88.842 48.4445 88.8303 48.3736C90.5107 47.5398 91.7765 46.2251 92.3952 44.6709C92.4233 44.5961 92.4468 44.5174 92.4725 44.4427C92.5732 44.4148 92.6659 44.3697 92.7446 44.31C92.8233 44.2504 92.8863 44.1777 92.9296 44.0964C93.0655 43.8426 93.0679 43.5455 93.2366 43.3094C93.4335 43.0301 93.8085 42.8805 94.1038 42.67C94.8492 42.1388 95.0413 41.2436 95.0062 40.4291C94.9828 39.77 94.8562 39.105 94.9054 38.4498L94.9195 38.2846C94.9335 38.1862 94.9499 38.0878 94.971 37.9934C95.0859 37.5055 95.3367 37.0451 95.4773 36.5611C95.6179 36.0771 95.632 35.5321 95.3039 35.115C94.8234 34.5031 93.8226 34.3812 92.9436 34.3182C91.9475 34.2474 91.0569 34.3398 90.4194 33.6453C90.121 33.2823 89.7853 32.942 89.4162 32.6282C89.285 32.5259 88.0099 31.8727 88.0099 31.8294C86.7655 31.3456 85.3549 31.2548 84.0372 31.5736C83.3762 31.7349 82.7528 31.9986 82.0824 32.1304C80.6363 32.4176 78.9722 32.1068 77.7441 32.8013C77.0597 33.1948 76.6495 33.8204 76.2651 34.4303C75.9526 34.9327 75.6354 35.4344 75.3135 35.9354C74.7955 36.7598 74.2682 37.5979 74.0502 38.5108C74.0044 38.7095 73.9762 38.9107 73.9658 39.1129V39.1227C73.9658 39.1955 73.9658 39.2683 73.9658 39.3411V39.4336C73.9658 39.5024 73.9658 39.5693 73.9799 39.6303C73.994 39.6913 73.9916 39.711 73.9986 39.7523C74.0057 39.7936 74.0174 39.8861 74.0315 39.949C74.0455 40.012 74.0737 40.1222 74.1018 40.2087C74.1135 40.2461 74.1299 40.2815 74.144 40.3169C74.1674 40.3838 74.1955 40.4488 74.226 40.5137C74.2424 40.5471 74.2588 40.5826 74.2776 40.616C74.3127 40.6849 74.3549 40.7518 74.3971 40.8127C74.4158 40.8403 74.4299 40.8659 74.4487 40.8914C74.5141 40.9829 74.5861 41.071 74.6643 41.1551C75.1659 41.6804 75.9042 42.0149 76.4503 42.5067C76.4503 42.5264 76.4503 42.5461 76.4503 42.5638C76.4503 42.6189 76.4503 42.672 76.4503 42.7271C76.4792 43.824 76.8271 44.8984 77.4635 45.8568C78.0999 46.8152 79.0056 47.6285 80.1019 48.2261C80.1019 48.3008 80.1136 48.3776 80.1183 48.4523C80.164 49.0363 80.1554 49.6225 80.0925 50.2053C79.9971 50.111 79.8776 50.0358 79.7429 49.9854C79.6083 49.935 79.4618 49.9107 79.3144 49.9142C79.2137 49.91 79.1128 49.9173 79.0144 49.9358L78.9933 49.922V49.9397C78.4777 50.046 77.8425 50.4965 77.2354 51.7773C77.2354 51.7773 75.3885 53.5244 73.9822 53.4516C72.576 53.3788 69.0157 55.2695 69.0157 55.2695C69.0157 55.2695 65.5422 57.1622 64.7969 59.0903C64.3803 60.1837 63.8808 61.2535 63.3015 62.2933L59.0077 69.7205L58.2155 75.613C58.2155 75.613 58.6537 78.2336 58.567 78.633C58.4803 79.0324 60.3694 82.6348 60.3694 82.6348C60.3694 82.6348 66.611 91.8405 69.161 92.3127L69.3439 92.2044C69.453 92.2523 69.5687 92.2886 69.6884 92.3127L70.2134 92.0018C70.2449 92.3483 70.2316 92.6966 70.1736 93.0406C69.822 93.9496 70.3048 99.8814 70.9189 101.044C71.533 102.207 71.315 117.453 71.315 117.453L71.2283 118.798C71.2283 118.798 71.2283 118.842 71.2494 118.916L71.2283 119.235L71.2916 119.263C71.3573 119.69 71.3359 120.123 71.2283 120.544C71.008 121.134 70.9189 122.802 70.9189 122.802C70.9189 122.802 69.1634 132.222 69.9954 134.115C70.8275 136.008 71.5353 138.081 71.5353 138.081C71.5353 138.081 72.4142 140.442 71.5775 140.846C70.7408 141.249 68.3618 141.926 68.8517 142.91C69.297 143.818 70.9869 146.254 71.2376 146.61L71.2166 146.797L70.872 149.931C70.9278 150.345 71.0615 150.749 71.2681 151.128C71.6455 151.81 72.3791 152.519 73.7736 152.442C74.008 152.428 74.2799 152.404 74.5424 152.375C77.0948 152.088 80.2379 151.131 80.2379 151.131C80.0747 151.044 79.9251 150.941 79.7925 150.823V150.823C79.6671 150.721 79.5677 150.598 79.5004 150.463C79.4331 150.328 79.3993 150.182 79.4011 150.036C79.4386 149.465 78.1659 146.746 77.8495 146.077C77.8003 145.981 77.7745 145.926 77.7745 145.926C77.7745 145.926 80.6762 143.38 80.1933 141.123C80.1933 141.123 76.9823 139.549 78.0394 138.685C79.0964 137.822 80.9855 135.341 80.9855 135.341C80.9855 135.341 81.0723 126.064 80.9855 124.679C80.8951 123.718 80.9494 122.751 81.1473 121.801C81.1824 121.657 81.2246 121.517 81.2691 121.38C82.731 121.563 84.2068 121.657 85.6849 121.661C86.2239 121.661 86.7724 121.661 87.3255 121.634C87.3255 121.765 87.3326 121.906 87.3466 122.058C87.4685 124.356 87.6959 128.386 87.881 129.883C88.1435 132.03 89.5943 137.814 89.5943 137.814C89.5943 137.814 86.8263 139.305 90.0772 142.98C90.0772 142.98 90.0772 144.312 89.8615 144.505C89.6313 145.135 89.4458 145.777 89.306 146.425C89.1701 147.118 89.1139 147.818 89.3342 148.182C89.8615 149.052 93.0257 148.981 93.0257 148.981L93.103 148.969C93.7004 148.917 94.304 148.966 94.879 149.111C95.4539 149.257 95.9887 149.497 96.4523 149.817C97.6547 150.628 102.218 150.272 104.688 150.014C105.656 149.912 106.303 149.817 106.303 149.817C106.335 149.725 106.346 149.629 106.336 149.534C106.31 149.024 105.835 147.907 102.609 146.909C102.609 146.909 99.5766 145.198 99.6188 143.706H99.5555H99.2039C99.4594 143.695 99.6235 143.706 99.6235 143.706C99.6235 143.706 98.4352 140.067 98.9203 139.771C99.4055 139.476 97.9524 135.443 97.9524 135.443C97.9524 135.443 97.1203 128.675 97.0758 128.201C97.0776 127.794 97.1511 127.39 97.2937 127.001L97.0758 123.29C97.0758 123.29 97.0336 122.057 97.0758 121.655C97.0687 121.307 97.035 120.959 96.975 120.614C96.9539 120.477 96.9328 120.333 96.9094 120.191C98.0461 119.949 98.7844 119.725 98.7844 119.725L98.6532 106.809C99.6188 105.235 99.7969 101.782 99.7922 99.3325C99.7922 97.7585 99.7079 96.5938 99.7079 96.5938L101.027 94.7857C101.027 94.7857 101.332 92.6215 100.849 92.1474C100.636 91.9329 100.732 91.7106 100.908 91.5276C100.999 91.4669 101.096 91.4116 101.196 91.3624C101.196 91.3624 101.182 91.3447 101.166 91.3191C101.258 91.2545 101.356 91.1959 101.459 91.144C101.459 91.144 100.99 90.5341 101.409 90.2763C101.803 90.5006 102.155 90.6698 102.422 90.8076C102.403 90.9512 102.384 91.0338 102.384 91.0338L102.497 90.8371C102.755 90.959 102.912 91.0338 102.912 91.0338C102.912 91.0338 104.979 87.577 104.935 87.0674C104.89 86.5579 106.341 84.4114 106.341 84.4114C106.341 84.4114 106.517 83.284 107.309 82.8118C108.101 82.3397 107.923 78.9183 107.923 78.9183C107.923 78.9183 108.143 77.1358 108.671 76.4078C109.198 75.6798 108.19 74.6981 108.19 74.6981ZM68.636 73.1812L68.6759 74.0056C68.4415 73.6888 68.2727 73.4606 68.2727 73.4606L68.636 73.1812Z" fill="url(#paint0_linear)"/>
<path d="M103.024 89.5405L102.518 91.3506C102.518 91.3506 98.4633 89.6133 97.732 87.4058C97.0008 85.1984 98.9555 84.3602 98.9555 84.3602L102.734 85.704L103.024 89.5405Z" fill="white"/>
<path opacity="0.1" d="M103.024 89.5405L102.518 91.3506C102.518 91.3506 98.4633 89.6133 97.732 87.4058C97.0008 85.1984 98.9555 84.3602 98.9555 84.3602L102.734 85.704L103.024 89.5405Z" fill="black"/>
<path d="M80.2683 151.143C80.2683 151.143 76.5183 152.3 73.9401 152.446C72.5713 152.522 71.8517 151.818 71.4814 151.139C71.2791 150.762 71.1486 150.36 71.0947 149.949L71.4299 146.831L71.608 145.17L77.0855 143.976L77.8613 145.967L77.9339 146.118C78.2456 146.783 79.4949 149.489 79.4574 150.053C79.4559 150.198 79.4891 150.341 79.5552 150.475C79.6212 150.608 79.7187 150.729 79.8418 150.83C79.9675 150.95 80.1109 151.055 80.2683 151.143V151.143Z" fill="white"/>
<path d="M105.884 149.557C105.893 149.652 105.882 149.747 105.851 149.839C105.851 149.839 97.8305 150.962 96.1898 149.839C95.7273 149.511 95.188 149.267 94.6068 149.124C94.0256 148.981 93.4152 148.942 92.8147 149.009C92.8147 149.009 89.7115 149.079 89.1936 148.222C88.9779 147.862 89.0342 147.163 89.1678 146.475C89.3041 145.829 89.4856 145.191 89.7115 144.564L89.8358 144.481L90.5741 143.984L99.218 143.769H99.2836C99.2415 145.253 102.218 146.955 102.218 146.955C105.38 147.938 105.846 149.05 105.884 149.557Z" fill="white"/>
<path opacity="0.1" d="M105.884 149.557C105.892 149.652 105.88 149.748 105.849 149.839C105.849 149.839 97.8305 150.962 96.1898 149.839C95.7275 149.511 95.1887 149.268 94.6079 149.125C94.0271 148.982 93.4171 148.942 92.8171 149.009C92.8171 149.009 89.7115 149.079 89.1959 148.222C88.9803 147.86 89.0342 147.163 89.1678 146.475C90.3631 146.575 92.2499 146.825 92.9905 147.421C94.1109 148.328 96.0093 149.233 97.1742 149.304C98.0859 149.353 103.54 149.498 105.884 149.557Z" fill="black"/>
<path opacity="0.1" d="M80.2683 151.143C80.2683 151.143 76.5182 152.3 73.9401 152.446C72.5713 152.522 71.8517 151.818 71.4838 151.137C72.4377 151.407 73.7619 151.69 74.458 151.431C75.2831 151.124 78.2081 150.925 79.8488 150.84C79.9737 150.955 80.1145 151.057 80.2683 151.143V151.143Z" fill="black"/>
<path d="M85.8325 57.9158C82.7387 56.9065 78.7589 53.5716 79.7527 52.0134C79.9734 51.6202 80.1045 51.1958 80.1394 50.7621C80.2033 50.1734 80.2127 49.5814 80.1675 48.9914C80.0979 48.0252 79.9593 47.0634 79.7527 46.1111C79.7527 46.1111 89.4115 46.294 88.849 47.4883C88.6849 47.8385 88.6592 48.4464 88.7037 49.1272C88.7482 49.8079 88.8654 50.5772 88.9873 51.2284C89.156 52.1216 89.3248 52.8024 89.3248 52.8024C89.3248 52.8024 88.7342 53.4969 88.3873 53.5342C88.0404 53.5716 90.2717 59.354 85.8325 57.9158Z" fill="#CF6F80"/>
<path opacity="0.1" d="M77.9269 146.118L77.8542 146.185C74.9667 143.254 71.4744 146.907 71.4744 146.907L71.4228 146.831L71.601 145.17L77.0784 143.976L77.8542 145.967L77.9269 146.118Z" fill="black"/>
<path opacity="0.1" d="M99.286 143.976C99.286 143.976 97.1766 143.938 96.0515 144.773C94.9265 145.607 89.4889 144.954 89.7233 144.773C89.7927 144.683 89.8346 144.58 89.8451 144.474L90.5834 143.976L99.2274 143.761C99.2602 143.893 99.286 143.976 99.286 143.976Z" fill="black"/>
<path d="M81.5199 120.955C81.3628 121.281 81.2435 121.619 81.1637 121.964C80.9682 122.91 80.9139 123.872 81.002 124.829C81.0887 126.206 81.002 135.435 81.002 135.435C81.002 135.435 79.148 137.896 78.1144 138.764C77.0808 139.632 80.2238 141.19 80.2238 141.19C80.6926 143.433 77.8519 145.967 77.8519 145.967C74.9643 143.035 71.472 146.691 71.472 146.691C71.472 146.691 69.5736 143.937 69.1001 142.953C68.6267 141.969 70.9541 141.288 71.772 140.889C72.59 140.49 71.7322 138.135 71.7322 138.135C71.7322 138.135 71.0408 136.071 70.2205 134.188C69.4001 132.305 71.1252 122.932 71.1252 122.932C71.1252 122.932 71.2142 121.268 71.4275 120.687C71.5351 120.268 71.5565 119.837 71.4908 119.412C71.4767 119.269 71.4603 119.149 71.4486 119.068C71.4369 118.987 71.4275 118.95 71.4275 118.95L71.4603 118.903L72.6322 117.069C72.6322 117.069 82.0825 119.8 81.5199 120.955Z" fill="#00B0FF"/>
<path d="M99.286 143.759C99.286 143.759 97.1766 143.722 96.0515 144.546C94.9265 145.371 89.4889 144.727 89.7233 144.546C89.9577 144.365 89.9389 143.026 89.9389 143.026C86.749 139.37 89.4701 137.887 89.4701 137.887C89.4701 137.887 88.0451 132.132 87.7873 129.997C87.6068 128.506 87.3842 124.498 87.2646 122.21C87.2131 121.226 87.1826 120.549 87.1826 120.549L89.7889 120.109L90.1241 120.052L96.4101 118.993C96.4101 118.993 96.5836 119.977 96.7008 120.782C96.7592 121.125 96.7921 121.471 96.7992 121.818C96.757 122.212 96.7992 123.444 96.7992 123.444L97.0125 127.136C96.8732 127.524 96.8013 127.926 96.7992 128.331C96.8414 128.801 97.6594 135.534 97.6594 135.534C97.6594 135.534 99.0821 139.551 98.5969 139.84C98.1117 140.13 99.286 143.759 99.286 143.759Z" fill="#00B0FF"/>
<path opacity="0.1" d="M88.849 47.4883C88.685 47.8385 88.6592 48.4464 88.7037 49.1272C87.4099 49.7811 85.9226 50.1155 84.4127 50.0918C82.9027 50.0682 81.4313 49.6874 80.1676 48.9934C80.098 48.0265 79.9594 47.064 79.7527 46.1111C79.7527 46.1111 89.4115 46.2901 88.849 47.4883Z" fill="black"/>
<path d="M92.5827 43.1402C92.5846 43.8492 92.4516 44.5539 92.1889 45.2277C91.6017 46.7374 90.3976 48.0243 88.7894 48.8609C87.1812 49.6975 85.2724 50.0299 83.4005 49.7994C81.5285 49.5689 79.8139 48.7903 78.5597 47.6013C77.3054 46.4122 76.5923 44.8893 76.5464 43.3015C76.5464 43.2465 76.5464 43.1953 76.5464 43.1402C76.5282 42.2465 76.7222 41.3587 77.117 40.5286C77.5118 39.6985 78.0996 38.9427 78.8461 38.3053C79.5926 37.6679 80.4828 37.1617 81.4648 36.8161C82.4468 36.4705 83.5009 36.2925 84.5657 36.2925C85.6305 36.2925 86.6847 36.4705 87.6667 36.8161C88.6487 37.1617 89.5389 37.6679 90.2853 38.3053C91.0318 38.9427 91.6196 39.6985 92.0144 40.5286C92.4093 41.3587 92.6032 42.2465 92.585 43.1402H92.5827Z" fill="#CF6F80"/>
<path opacity="0.1" d="M85.8325 57.9158C82.7387 56.9065 78.7589 53.5716 79.7527 52.0134C79.9734 51.6202 80.1045 51.1958 80.1394 50.7621L84.3747 53.6838L86.9951 55.4879L88.9873 51.2304C89.156 52.1236 89.3248 52.8043 89.3248 52.8043C89.3248 52.8043 88.7342 53.4988 88.3873 53.5362C88.0404 53.5736 90.2717 59.354 85.8325 57.9158Z" fill="black"/>
<path d="M96.7851 70.8281L93.2483 120.703L88.6357 120.957L76.6917 92.0372L78.6511 57.7033L79.0636 50.4493L84.3747 54.1107L86.9974 55.9149L89.0482 51.5334L92.8616 54.3232L96.7851 70.8281Z" fill="#00B0FF"/>
<path opacity="0.1" d="M81.5199 120.955C81.3628 121.281 81.2435 121.619 81.1637 121.964C77.8073 121.529 74.5476 120.674 71.4931 119.428L71.4298 119.4L71.4509 119.084L71.4627 118.918L72.6346 117.085C72.6346 117.085 82.0825 119.8 81.5199 120.955Z" fill="black"/>
<path opacity="0.1" d="M89.8428 121.972C88.9848 122.094 88.1194 122.177 87.2505 122.22C87.199 121.236 87.1685 120.559 87.1685 120.559L89.7748 120.119L89.8428 121.972Z" fill="black"/>
<path opacity="0.1" d="M96.6867 120.791C95.0203 121.155 92.4468 121.565 90.1428 121.309L90.11 120.062L96.3961 119.003C96.3961 119.003 96.5695 119.977 96.6867 120.791Z" fill="black"/>
<path opacity="0.1" d="M90.1006 121.537C80.491 122.914 71.69 118.966 71.69 118.966L71.7744 117.628C71.7744 117.628 71.9923 102.461 71.3876 101.298C70.7829 100.135 70.3118 94.2388 70.654 93.3338C70.9962 92.4287 69.4048 78.8573 69.4048 78.8573L69.147 73.3484L59.7108 70.1395L63.9297 62.7576C64.4995 61.7227 64.9896 60.6581 65.3969 59.5704C66.1305 57.6541 69.536 55.7712 69.536 55.7712C69.536 55.7712 73.0283 53.8904 74.4088 53.9612C75.7893 54.032 77.5987 52.2967 77.5987 52.2967C78.9347 49.438 80.1441 50.7326 80.1441 50.7326C80.1441 50.8684 80.1441 50.7326 80.0785 51.1556C79.6097 54.2937 87.6583 64.2096 87.7732 64.3847L88.5396 80.0574L89.3154 99.8912L90.1006 121.537Z" fill="black"/>
<path d="M89.8428 121.537C80.2332 122.914 71.4298 118.966 71.4298 118.966L71.5166 117.628C71.5166 117.628 71.7345 102.461 71.1275 101.298C70.5204 100.135 70.0517 94.2388 70.3962 93.3338C70.7408 92.4287 69.147 78.8573 69.147 78.8573L68.8868 73.3484L59.446 70.1277L63.6648 62.7458C64.2334 61.7104 64.7235 60.6459 65.132 59.5586C65.8633 57.6423 69.2712 55.7594 69.2712 55.7594C69.2712 55.7594 72.7635 53.8786 74.1416 53.9494C75.5198 54.0202 77.3315 52.2849 77.3315 52.2849C78.6699 49.4262 80.1441 50.7208 80.1441 50.7208C80.1441 50.8566 80.0035 50.9175 80.0785 51.1438C81.1098 54.1874 87.4005 64.1978 87.5154 64.3729L88.2912 80.0456L89.067 99.8794L89.8428 121.537Z" fill="white"/>
<path opacity="0.1" d="M87.2529 64.8195C86.2193 64.4575 80.7441 59.2103 80.7441 59.2103V58.0161C80.5449 57.6226 79.3613 57.8626 78.4003 58.1381L78.8128 50.8841L79.2816 51.2107C80.3082 54.2524 87.1334 64.6444 87.2529 64.8195Z" fill="black"/>
<path d="M87.513 64.3847C86.4771 64.0227 81.0019 58.7755 81.0019 58.7755V57.5813C80.8027 57.1878 79.6191 57.4278 78.6581 57.7033L79.073 50.4493L79.5418 50.7759C80.5707 53.8176 87.3982 64.2116 87.513 64.3847Z" fill="white"/>
<path opacity="0.1" d="M71.69 90.5537C71.8189 90.5537 78.3722 89.9753 78.3722 89.9753C78.3722 89.9753 82.3403 96.525 82.0801 98.1186C81.8199 99.7122 81.3488 101.123 79.7527 100.873C78.1566 100.623 71.1627 101.07 71.1627 101.07L71.69 90.5537Z" fill="black"/>
<path d="M71.4299 90.1189C71.5588 90.1189 78.112 89.5405 78.112 89.5405C78.112 89.5405 82.0778 96.0921 81.8199 97.6838C81.5621 99.2754 81.0863 100.688 79.4925 100.438C77.8988 100.188 70.9025 100.635 70.9025 100.635L71.4299 90.1189Z" fill="white"/>
<path d="M76.3683 87.0438C76.3683 87.0438 82.3825 89.7569 82.5114 90.5852C82.6403 91.4135 79.4504 90.2232 78.7613 90.0796C78.3077 89.9878 77.846 89.9273 77.3808 89.8986L72.7846 90.0029L76.3683 87.0438Z" fill="#CF6F80"/>
<path opacity="0.1" d="M85.5747 65.1579C85.9242 65.1579 86.2075 64.9201 86.2075 64.6267C86.2075 64.3333 85.9242 64.0955 85.5747 64.0955C85.2252 64.0955 84.9419 64.3333 84.9419 64.6267C84.9419 64.9201 85.2252 65.1579 85.5747 65.1579Z" fill="black"/>
<path d="M85.5747 64.9415C85.9242 64.9415 86.2075 64.7037 86.2075 64.4103C86.2075 64.1169 85.9242 63.8791 85.5747 63.8791C85.2252 63.8791 84.9419 64.1169 84.9419 64.4103C84.9419 64.7037 85.2252 64.9415 85.5747 64.9415Z" fill="#3F3D56"/>
<path opacity="0.1" d="M86.7396 88.1535C87.0891 88.1535 87.3724 87.9156 87.3724 87.6222C87.3724 87.3289 87.0891 87.091 86.7396 87.091C86.3901 87.091 86.1068 87.3289 86.1068 87.6222C86.1068 87.9156 86.3901 88.1535 86.7396 88.1535Z" fill="black"/>
<path d="M86.7396 87.9351C87.0891 87.9351 87.3724 87.6972 87.3724 87.4039C87.3724 87.1105 87.0891 86.8727 86.7396 86.8727C86.3901 86.8727 86.1068 87.1105 86.1068 87.4039C86.1068 87.6972 86.3901 87.9351 86.7396 87.9351Z" fill="#3F3D56"/>
<path opacity="0.1" d="M86.2052 76.6557C86.5547 76.6557 86.838 76.4179 86.838 76.1245C86.838 75.8311 86.5547 75.5933 86.2052 75.5933C85.8557 75.5933 85.5724 75.8311 85.5724 76.1245C85.5724 76.4179 85.8557 76.6557 86.2052 76.6557Z" fill="black"/>
<path d="M86.2052 76.4393C86.5547 76.4393 86.838 76.2014 86.838 75.9081C86.838 75.6147 86.5547 75.3769 86.2052 75.3769C85.8557 75.3769 85.5724 75.6147 85.5724 75.9081C85.5724 76.2014 85.8557 76.4393 86.2052 76.4393Z" fill="#3F3D56"/>
<path d="M100.793 89.7884C100.793 89.7884 101.224 90.3314 100.793 90.5852C100.362 90.839 100.835 91.4529 100.835 91.4529C100.835 91.4529 99.7594 91.9821 100.233 92.4582C100.706 92.9344 100.406 95.0848 100.406 95.0848L99.1125 96.883C99.1125 96.883 99.1899 98.0418 99.1946 99.6079C99.1946 102.052 99.0235 105.487 98.0766 107.053L98.2078 119.902C98.2078 119.902 93.6773 121.291 89.885 120.868L89.3225 100.249C89.3225 100.249 90.1428 88.5568 90.4452 86.3139C90.6221 85.1495 90.6942 83.9755 90.6608 82.802C90.6608 82.802 90.5319 79.2921 90.0983 77.663C90.0983 77.663 89.6295 70.6058 89.5826 68.6521C89.5615 67.7176 89.6201 64.9907 89.6858 62.3976C89.7584 59.5625 89.8405 56.8887 89.8405 56.8887L88.985 51.2068C88.985 51.2068 89.8405 51.134 90.0983 51.4232C90.2138 51.5137 90.3393 51.5948 90.4733 51.6652V51.6652C91.9499 52.5033 97.1672 55.0807 97.1672 55.0807C97.1672 55.0807 100.055 56.0447 100.746 57.4259C101.438 58.807 101.918 59.7868 102.253 60.1803C102.588 60.5738 102.771 62.4232 102.771 62.4232C102.771 62.4232 103.765 65.8269 104.541 66.4033C105.317 66.9798 105.884 70.6471 105.884 70.6471L99.0282 75.1722C99.0282 75.1722 98.4258 82.6997 98.2969 82.9909C98.168 83.2821 100.793 89.7884 100.793 89.7884Z" fill="white"/>
<path d="M101.053 89.7884C101.053 89.7884 101.482 90.3314 101.053 90.5852C100.624 90.839 101.093 91.4529 101.093 91.4529C101.093 91.4529 100.024 91.988 100.493 92.4641C100.962 92.9403 100.666 95.0907 100.666 95.0907L99.3727 96.8889C99.3727 96.8889 99.4501 98.0478 99.4571 99.6138C99.4571 102.057 99.286 105.493 98.3391 107.059L98.468 119.908C98.468 119.908 93.9304 121.297 90.1428 120.874L89.5826 100.255C89.5826 100.255 90.403 88.5627 90.7053 86.3198C90.8825 85.1554 90.9538 83.9814 90.9186 82.8079C90.9186 82.8079 90.7897 79.298 90.3584 77.6689C90.3584 77.6689 89.8897 70.6117 89.8404 68.658C89.8194 67.7235 89.8803 64.9966 89.9436 62.4035C90.0162 59.5684 90.0983 56.8947 90.0983 56.8947L88.9686 51.1359C88.9686 51.1359 90.0983 51.1359 90.3584 51.4291C90.4728 51.5207 90.5985 51.6018 90.7334 51.6711C92.21 52.5092 97.4297 55.0866 97.4297 55.0866C97.4297 55.0866 100.315 56.0506 101.006 57.4318C101.698 58.8129 102.178 59.7927 102.516 60.1862C102.853 60.5797 103.031 62.4291 103.031 62.4291C103.031 62.4291 104.025 65.8328 104.801 66.4092C105.577 66.9857 106.137 70.6451 106.137 70.6451L99.2813 75.1703C99.2813 75.1703 98.6789 82.6977 98.5477 82.9889C98.4164 83.2801 101.053 89.7884 101.053 89.7884Z" fill="white"/>
<path opacity="0.1" d="M92.8429 58.565L93.4616 60.0799L90.2037 62.8344C90.2764 60.0012 90.3584 57.3255 90.3584 57.3255L89.2287 51.5668C89.2287 51.5668 90.3584 51.5668 90.6186 51.86C90.7327 51.9513 90.8584 52.0318 90.9936 52.1L93.764 58.809L92.8429 58.565Z" fill="black"/>
<path d="M92.5827 58.1302L93.2038 59.6451L89.9459 62.3996C90.0186 59.5645 90.1006 56.8907 90.1006 56.8907L88.9686 51.132C88.9686 51.132 90.1006 51.132 90.3584 51.4251C90.4734 51.5162 90.599 51.5973 90.7334 51.6671L93.5062 58.3742L92.5827 58.1302Z" fill="white"/>
<path opacity="0.1" d="M92.5827 43.1402C92.5846 43.8492 92.4516 44.5539 92.1889 45.2277C92.1447 45.2335 92.0994 45.2318 92.056 45.2226C92.0125 45.2135 91.9716 45.1972 91.9358 45.1746C91.8749 43.4039 90.8366 41.7414 89.5592 40.3268C89.2006 39.8997 88.7658 39.5214 88.2701 39.2053C87.769 38.8894 87.1456 38.7414 86.5216 38.7902C85.8185 38.8709 85.1974 39.2722 84.4872 39.3234C83.5497 39.3883 82.7106 38.8433 81.7801 38.8158C81.4018 38.8188 81.0287 38.8895 80.6855 39.0232C80.3424 39.1568 80.0372 39.3504 79.7902 39.5909C79.3014 40.0764 78.9382 40.6419 78.7238 41.2515C78.3553 42.1759 78.1546 43.1415 78.1284 44.1161C78.1167 44.667 78.0534 45.3575 77.4441 45.5582C77.4899 45.1531 77.4351 44.7443 77.283 44.3579C77.1309 43.9715 76.8848 43.6158 76.5604 43.3134L76.5464 43.3016C76.5464 43.2465 76.5464 43.1953 76.5464 43.1402C76.5282 42.2465 76.7222 41.3587 77.117 40.5286C77.5118 39.6985 78.0996 38.9427 78.8461 38.3053C79.5926 37.6679 80.4828 37.1617 81.4648 36.8161C82.4468 36.4705 83.5009 36.2925 84.5657 36.2925C85.6305 36.2925 86.6847 36.4705 87.6667 36.8161C88.6487 37.1617 89.5389 37.6679 90.2853 38.3053C91.0318 38.9427 91.6196 39.6985 92.0144 40.5286C92.4093 41.3587 92.6032 42.2465 92.585 43.1402H92.5827Z" fill="black"/>
<path d="M87.8857 32.4511C86.6678 31.9702 85.2825 31.8792 83.9903 32.1953C83.3411 32.3566 82.7293 32.6183 82.0707 32.7501C80.6644 33.0354 79.0238 32.7265 77.8167 33.4171C77.1464 33.8106 76.7433 34.4323 76.3683 35.0363L75.4307 36.5355C74.9198 37.3559 74.4041 38.1901 74.1909 39.0932C73.9776 39.9962 74.1065 41.0075 74.7885 41.7335C75.2854 42.2627 76.019 42.5952 76.5581 43.093C76.8811 43.3958 77.126 43.7513 77.2777 44.1372C77.4293 44.5232 77.4844 44.9313 77.4394 45.3359C78.0511 45.1392 78.1097 44.4466 78.1238 43.8957C78.1499 42.9212 78.3506 41.9555 78.7191 41.0311C78.933 40.4213 79.2962 39.8558 79.7855 39.3706C80.0327 39.1302 80.3379 38.9368 80.681 38.8032C81.0241 38.6695 81.3972 38.5987 81.7754 38.5954C82.7129 38.623 83.5544 39.166 84.4825 39.1011C85.1857 39.0519 85.8091 38.6485 86.5169 38.5698C87.1411 38.5203 87.7647 38.6683 88.2654 38.985C88.7609 39.3006 89.195 39.6789 89.5522 40.1064C90.8319 41.521 91.8702 43.1796 91.9311 44.9542C92.196 45.1175 92.578 44.905 92.7093 44.6532C92.8405 44.4014 92.8452 44.1062 93.0116 43.8662C93.2038 43.5888 93.5718 43.4412 93.8601 43.2327C94.5914 42.7034 94.7742 41.8122 94.7461 41.0036C94.7179 40.195 94.5304 39.3745 94.7132 38.5797C94.8234 38.0918 95.0718 37.6353 95.2078 37.1533C95.3437 36.6713 95.3601 36.1302 95.039 35.7151C94.5703 35.1052 93.5835 34.9852 92.7233 34.9281C91.746 34.8573 90.8717 34.9478 90.2483 34.2572C89.9556 33.8968 89.6263 33.5585 89.2639 33.2459C89.1397 33.1436 87.8857 32.4944 87.8857 32.4511Z" fill="#512E4E"/>
<path opacity="0.1" d="M62.4109 73.9406L59.9616 70.1395L59.1858 76.0045C59.1858 76.0045 59.6171 78.6094 59.5303 79.0088C59.4436 79.4082 61.2976 82.9889 61.2976 82.9889C61.2976 82.9889 67.4219 92.1454 69.9228 92.6176L78.3722 87.5495L76.1315 85.161C76.1315 85.161 75.3557 84.9072 75.1612 85.161C75.1612 85.161 71.0009 79.1524 70.5697 78.7176C70.1384 78.2828 70.2228 77.4151 70.2228 77.4151C70.2228 77.4151 69.5759 76.8367 69.7915 76.2937C70.0071 75.7507 68.5423 73.8678 68.5423 73.8678L69.8782 72.8192L62.4109 73.9406Z" fill="black"/>
<path d="M60.0905 69.7067L59.4436 70.1395L58.6678 76.0045C58.6678 76.0045 59.0991 78.6094 59.0123 79.0088C58.9256 79.4082 60.7819 82.9889 60.7819 82.9889C60.7819 82.9889 66.9039 92.1454 69.4048 92.6176L77.8565 87.5495L75.6135 85.161C75.6135 85.161 74.8377 84.9072 74.6432 85.161C74.6432 85.161 70.4829 79.1524 70.0517 78.7176C69.6204 78.2828 69.7071 77.4151 69.7071 77.4151C69.7071 77.4151 69.0602 76.8367 69.2759 76.2937C69.4915 75.7507 68.0243 73.8678 68.0243 73.8678L69.3603 72.8192L60.0905 69.7067Z" fill="white"/>
<path opacity="0.1" d="M100.233 92.6825C100.702 93.1606 100.406 95.3071 100.406 95.3071L99.1125 97.1054C99.1125 97.1054 99.1899 98.2661 99.1946 99.8303L97.0195 100.401C96.823 100.452 96.6146 100.464 96.4117 100.434C96.2089 100.404 96.0175 100.334 95.8535 100.229C95.6895 100.125 95.5576 99.9889 95.4689 99.8329C95.3803 99.6768 95.3373 99.5053 95.3437 99.3325L95.7187 89.1785L100.793 90.8076C100.362 91.0594 100.835 91.6772 100.835 91.6772C100.835 91.6772 99.7594 92.2044 100.233 92.6825Z" fill="black"/>
<path d="M100.493 92.4642C100.962 92.9422 100.667 95.0907 100.667 95.0907L99.3727 96.889C99.3727 96.889 99.4501 98.0478 99.4571 99.6139L97.2422 100.194C97.0497 100.244 96.8457 100.255 96.6471 100.226C96.4486 100.197 96.2613 100.128 96.1008 100.026C95.9403 99.9232 95.8112 99.7901 95.7244 99.6374C95.6376 99.4846 95.5954 99.3167 95.6015 99.1476L95.9789 88.9621L101.056 90.5911C100.622 90.843 101.095 91.4588 101.095 91.4588C101.095 91.4588 100.024 91.988 100.493 92.4642Z" fill="white"/>
<path d="M102.174 87.6242C102.174 87.6242 101.829 89.4717 100.966 89.5799C100.104 89.6881 99.7172 92.5684 98.8571 92.4661C97.9969 92.3638 98.5664 89.7884 98.5969 89.2887C98.6274 88.7889 97.6594 86.7192 98.3836 86.249C99.1079 85.7788 101.4 86.249 101.4 86.249L102.174 87.6242Z" fill="#CF6F80"/>
<path opacity="0.1" d="M104.009 73.3976L105.635 70.6432C105.635 70.6432 106.282 72.7424 106.282 73.8639C106.282 74.9853 107.187 75.0955 107.187 75.0955C107.187 75.0955 108.178 76.0792 107.656 76.7954C107.133 77.5115 106.922 79.294 106.922 79.294C106.922 79.294 107.093 82.6958 106.317 83.166C105.542 83.6362 105.38 84.7596 105.38 84.7596C105.38 84.7596 103.955 86.8943 103.999 87.4019C104.044 87.9095 102.017 91.3466 102.017 91.3466C102.017 91.3466 103.008 87.0753 97.2305 85.2298C97.2305 85.2298 97.1859 83.7798 97.6172 83.3824C98.0485 82.985 98.7211 82.804 98.2993 80.7952C97.8774 78.7864 98.1774 76.3862 98.1774 75.9041C98.1774 75.4221 99.4712 72.4159 99.4712 72.4159L104.009 73.3976Z" fill="black"/>
<path d="M104.712 70.2497L106.132 70.6432C106.132 70.6432 106.781 72.7424 106.781 73.8639C106.781 74.9853 107.686 75.0955 107.686 75.0955C107.686 75.0955 108.678 76.0792 108.155 76.7954C107.632 77.5115 107.424 79.294 107.424 79.294C107.424 79.294 107.595 82.6958 106.819 83.166C106.043 83.6362 105.87 84.7596 105.87 84.7596C105.87 84.7596 104.447 86.8943 104.492 87.4019C104.536 87.9095 102.506 91.3466 102.506 91.3466C102.506 91.3466 103.5 87.0753 97.7203 85.2298C97.7203 85.2298 97.6781 83.7798 98.1094 83.3824C98.5407 82.985 99.2133 82.804 98.7914 80.7952C98.3696 78.7864 98.6696 76.3862 98.6696 75.9041C98.6696 75.4221 99.9633 72.4158 99.9633 72.4158L104.712 70.2497Z" fill="white"/>
<path opacity="0.1" d="M73.34 141.642C73.34 141.642 75.6042 140.448 77.0901 141.316C78.5761 142.184 73.34 141.642 73.34 141.642Z" fill="black"/>
<path opacity="0.1" d="M90.9327 137.95C90.9327 137.95 92.9366 137.733 94.6195 139.254C96.3023 140.775 90.9327 137.95 90.9327 137.95Z" fill="black"/>
<g opacity="0.1">
<path opacity="0.1" d="M93.8647 42.8018C93.5765 43.0104 93.2061 43.1599 93.0139 43.4373C92.8499 43.6754 92.8452 43.9685 92.7139 44.2243C92.5827 44.4801 92.2006 44.6886 91.9358 44.5273C91.8749 42.7566 90.8342 41.0941 89.5568 39.6775C89.1997 39.25 88.7656 38.8717 88.2701 38.5561C87.7684 38.2395 87.1441 38.0914 86.5193 38.1409C85.8161 38.2216 85.1974 38.623 84.4872 38.6721C83.5497 38.739 82.7082 38.1941 81.7777 38.1665C81.3996 38.1697 81.0267 38.2406 80.6839 38.3747C80.3411 38.5087 80.0364 38.7027 79.7902 38.9437C79.3009 39.4281 78.9377 39.993 78.7238 40.6022C78.3555 41.5266 78.1548 42.4923 78.1284 43.4668C78.1144 44.0157 78.0534 44.7004 77.4487 44.905C77.4628 45.0504 77.4628 45.1964 77.4487 45.3418C78.0581 45.1451 78.1191 44.4525 78.1331 43.9016C78.1593 42.9271 78.3599 41.9614 78.7285 41.037C78.9424 40.4272 79.3056 39.8617 79.7949 39.3765C80.0416 39.1362 80.3464 38.9428 80.6891 38.8091C81.0319 38.6754 81.4046 38.6046 81.7824 38.6013C82.72 38.6289 83.5637 39.1719 84.4919 39.107C85.195 39.0578 85.8185 38.6544 86.5239 38.5757C87.1488 38.5262 87.7731 38.6743 88.2748 38.9909C88.7703 39.3065 89.2044 39.6848 89.5615 40.1123C90.8389 41.5269 91.8795 43.1855 91.9405 44.9601C92.2053 45.1234 92.5874 44.9109 92.7186 44.6591C92.8499 44.4073 92.8546 44.1121 93.0186 43.8721C93.2108 43.5947 93.5811 43.4471 93.8694 43.2386C94.6007 42.7093 94.7835 41.8181 94.7554 41.0095C94.7554 40.9839 94.7554 40.9583 94.7554 40.9347C94.7109 41.6351 94.4882 42.3493 93.8647 42.8018Z" fill="black"/>
<path opacity="0.1" d="M76.5628 42.6621C76.0237 42.1644 75.2877 41.8319 74.7932 41.3046C74.3768 40.8378 74.1389 40.2759 74.1112 39.6933C74.0374 40.4214 74.2796 41.1474 74.7932 41.7374C75.2877 42.2667 76.0237 42.5992 76.5628 43.0969C77.0803 43.5838 77.3911 44.201 77.4464 44.8519C77.4823 44.4558 77.4225 44.0576 77.2707 43.6813C77.1188 43.3051 76.8781 42.9584 76.5628 42.6621V42.6621Z" fill="black"/>
<path opacity="0.1" d="M95.2125 36.7224C95.0742 37.2044 94.8281 37.6628 94.7156 38.1488C94.6489 38.4735 94.6246 38.8034 94.6429 39.1325C94.6508 38.945 94.675 38.7583 94.7156 38.5738C94.8281 38.0858 95.0742 37.6294 95.2125 37.1474C95.2931 36.8815 95.3192 36.6061 95.2898 36.3329C95.2752 36.4641 95.2494 36.5943 95.2125 36.7224V36.7224Z" fill="black"/>
</g>
<path opacity="0.1" d="M31.1094 149.642C43.7225 149.642 53.9474 148.264 53.9474 146.563C53.9474 144.863 43.7225 143.484 31.1094 143.484C18.4962 143.484 8.2713 144.863 8.2713 146.563C8.2713 148.264 18.4962 149.642 31.1094 149.642Z" fill="#00B0FF"/>
<path d="M31.8453 87.579H30.3757V115.353H31.8453V87.579Z" fill="#535461"/>
<path d="M41.0799 115.269L40.9885 116.52L40.8572 118.291L40.8033 119.027L40.6744 120.797L40.6182 121.533L40.4869 123.304L39.0056 143.386C38.9413 144.25 38.4871 145.061 37.7355 145.653C36.984 146.246 35.9915 146.577 34.9602 146.577H27.2585C26.2274 146.576 25.2352 146.246 24.4841 145.653C23.7329 145.06 23.2792 144.249 23.2154 143.386L21.7412 123.29L21.6099 121.519L21.556 120.784L21.4247 119.013L21.3708 118.277L21.2396 116.506L21.1458 115.255C21.1295 115.014 21.1721 114.773 21.2707 114.547C21.3694 114.32 21.5222 114.113 21.7198 113.938C21.9173 113.762 22.1554 113.623 22.4194 113.528C22.6835 113.433 22.9679 113.384 23.2553 113.384H39.008C39.2943 113.386 39.577 113.437 39.8387 113.535C40.1005 113.632 40.3357 113.773 40.5299 113.95C40.724 114.127 40.873 114.335 40.9676 114.562C41.0622 114.788 41.1004 115.029 41.0799 115.269V115.269Z" fill="#3F3D56"/>
<path d="M40.9885 116.52L40.8572 118.285H21.3614L21.2302 116.52H40.9885Z" fill="#9D9CB5"/>
<path d="M40.8033 119.021L40.6744 120.788H21.5466L21.4154 119.021H40.8033Z" fill="#9D9CB5"/>
<path d="M40.6182 121.525L40.4893 123.29H21.7318L21.6005 121.525H40.6182Z" fill="#9D9CB5"/>
<path d="M18.9872 97.9887C27.5444 103.187 31.1164 111.316 31.1164 111.316C31.1164 111.316 20.8036 111.019 12.244 105.821C3.68445 100.623 0.119522 92.4956 0.119522 92.4956C0.119522 92.4956 10.4276 92.7907 18.9872 97.9887Z" fill="#00B0FF"/>
<path d="M0.112518 92.4956C0.112518 92.4956 10.819 97.4831 14.2527 101.613C17.6864 105.742 31.1164 111.316 31.1164 111.316" stroke="#535461" stroke-width="2" stroke-miterlimit="10"/>
<path d="M24.5115 87.518C29.1687 90.3452 31.1164 94.77 31.1164 94.77C31.1164 94.77 25.503 94.6087 20.8435 91.7814C16.184 88.9542 14.241 84.5275 14.241 84.5275C14.241 84.5275 19.852 84.6888 24.5115 87.518Z" fill="#00B0FF"/>
<path d="M14.241 84.5275C14.241 84.5275 20.0677 87.2425 21.9357 89.4894C23.8037 91.7362 31.1164 94.77 31.1164 94.77" stroke="#535461" stroke-width="2" stroke-miterlimit="10"/>
<path d="M37.8782 94.5457C32.5273 99.482 31.3953 105.933 31.3953 105.933C31.3953 105.933 38.94 104.379 44.2862 99.4407C49.6324 94.5024 50.7692 88.0531 50.7692 88.0531C50.7692 88.0531 43.2292 89.6094 37.8782 94.5457Z" fill="#00B0FF"/>
<path d="M50.7739 88.0551C50.7739 88.0551 43.8034 93.1154 42.0315 96.6017C40.2596 100.088 31.3953 105.933 31.3953 105.933" stroke="#535461" stroke-width="2" stroke-miterlimit="10"/>
<path d="M234.303 92.8084C234.303 92.8084 230.434 76.6478 231.915 74.6371C231.915 74.6371 231.969 72.768 231.88 70.3855C231.88 70.2949 231.88 70.2044 231.88 70.112C232.14 70.2578 232.412 70.3893 232.693 70.5055C234.058 71.094 235.625 71.2639 237.123 70.9855L235.951 69.8896C235.67 69.628 235.377 69.3447 235.316 68.9984C235.255 68.6521 235.424 68.3432 235.569 68.0343C236.682 65.6734 236.741 62.7045 234.596 60.9024C232.785 59.3874 232.344 57.4318 230.377 56.0487C228.941 55.0354 228.151 53.55 227.405 52.1138C226.775 50.8998 226.14 49.6761 225.779 48.3894C225.498 47.384 225.385 46.3432 224.998 45.3615C224.612 44.3797 223.887 43.4255 222.755 42.9868C222.352 42.8313 221.905 42.7428 221.537 42.5362C221.054 42.2627 220.763 41.8181 220.414 41.4286C218.64 39.4611 212.698 40.6199 209.886 41.4187C209.121 41.6199 208.413 41.9492 207.804 42.3867L207.83 42.3513C207.851 42.3218 207.877 42.2923 207.9 42.2628C207.592 42.4717 207.327 42.7208 207.113 43.0005C206.703 43.5455 206.532 44.181 206.189 44.7712C205.777 45.4697 203.482 47.4194 204.469 48.2044C204.538 48.2572 204.617 48.2997 204.703 48.3304C205.074 48.4598 205.482 48.494 205.875 48.4287L205.833 48.5133C205.496 49.2059 205.323 49.9471 205.324 50.6952C205.324 53.9277 208.5 56.5484 212.422 56.5484C213.159 56.549 213.892 56.4541 214.594 56.267C214.611 56.3418 214.625 56.4166 214.641 56.4913C214.641 56.5208 214.653 56.5504 214.658 56.5799L214.533 56.7255C214.527 56.7165 214.52 56.7079 214.512 56.6999L210.832 61.0165C210.27 61.349 207.031 63.3164 206.848 64.792C206.656 66.4073 206.464 68.298 206.464 68.298L206.438 68.7033C206.277 68.8161 206.089 68.8982 205.887 68.9441C205.684 68.99 205.472 68.9984 205.266 68.9689C204.117 68.8115 204.117 72.5103 204.117 72.5103C204.117 72.5103 203.353 73.1005 202.828 72.589C202.303 72.0775 200.916 73.8108 200.916 73.8108L192.22 74.1256L192.021 74.1354L191.552 72.9176C191.502 72.7891 191.393 72.6825 191.25 72.621C191.106 72.5595 190.939 72.548 190.786 72.589C190.75 72.599 190.714 72.6115 190.68 72.6264L190.648 72.6421L190.587 72.6775L190.556 72.7011C190.539 72.7139 190.524 72.7277 190.509 72.7424L190.481 72.77L190.467 72.7818C190.413 72.8446 190.377 72.9172 190.362 72.9937C190.348 73.0703 190.355 73.1486 190.383 73.2225L190.786 74.2672C189.108 74.5505 187.392 75.3493 188.791 77.5489L181.699 76.4491L183.993 78.0664L195.839 80.1184C195.682 80.3545 195.785 80.6968 196.275 81.1789C198.384 83.2585 202.228 83.8231 203.775 83.9687C204.184 84.7358 204.694 85.4618 205.296 86.1329L205.163 88.2046C205.163 88.2046 201.246 103.995 200.529 104.796C200.891 104.452 201.222 104.085 201.52 103.7C200.384 106.945 198.795 111.385 198.377 112.05C197.707 113.113 197.086 117.411 197.85 117.687C198.084 117.771 198.755 117.73 199.711 117.669V118.025L199.669 131.52C199.669 131.52 199.861 139.797 199.334 140.586C198.806 141.375 198.666 143.03 198.666 143.03C198.666 143.03 196.556 146.294 194.885 147.606C194.874 147.616 194.861 147.625 194.848 147.633L194.796 147.326C194.796 147.326 192.787 149.455 188.344 149.335C188.344 149.335 185.669 150.795 189.635 150.874C193.601 150.952 198.666 150.756 198.666 150.756C198.666 150.756 202.203 146.231 205.165 146.821V150.25H206.072V146.766C206.493 146.533 206.853 146.232 207.13 145.879C207.408 145.526 207.597 145.13 207.687 144.714C207.765 144.285 207.708 143.847 207.522 143.442C207.336 143.037 207.028 142.68 206.628 142.406C206.448 142.269 206.303 142.103 206.204 141.918C206.104 141.732 206.051 141.531 206.049 141.328L206.016 141.351C206.016 141.282 205.995 141.212 205.985 141.139C205.725 139.368 205.399 135.715 206.55 133.011C208.128 129.305 208.606 124.142 207.457 121.069C207.087 120.087 206.782 119.087 206.546 118.076C206.517 117.949 206.492 117.827 206.468 117.712C207.253 117.802 208.031 117.933 208.796 118.106C211.456 118.722 217.276 118.836 222.244 118.802C222.256 118.916 222.27 119.037 222.287 119.157C222.375 119.991 222.56 120.816 222.84 121.62C223.463 123.194 223.749 130.133 223.749 130.133C223.749 130.133 224.553 135.839 224.115 138.16C223.88 139.451 223.646 140.747 223.512 142.05V142.075C223.512 142.075 222.195 145.223 221.232 146.933C221.208 146.976 221.183 147.02 221.159 147.061C220.902 147.08 220.65 147.127 220.407 147.201C220.407 147.201 219.115 149.365 217.829 149.723C216.542 150.081 216.969 151.259 219.882 150.827C222.795 150.394 227.195 150.04 227.195 150.04L227.384 147.832L228.28 146.892L228.045 149.093L228.999 148.936L228.873 146.258L230.338 144.72C230.338 144.72 232.107 143.397 229.477 140.796V140.854C229.449 140.816 229.423 140.777 229.393 140.739V140.728C228.957 140.161 228.61 139.104 229.245 137.229C230.394 133.842 231.062 130.766 231.062 130.766C231.062 130.766 233.626 122.529 230.544 118.631H230.68C230.364 118.083 230.141 117.5 230.016 116.9C230.001 116.829 229.987 116.756 229.974 116.681C232.255 116.571 234.493 116.225 236.319 115.477C236.312 115.47 235.213 95.9209 234.303 92.8084ZM205.35 79.174V79.2134L204.881 79.2331L205.35 79.174ZM203.742 79.3609C203.665 79.3753 203.593 79.4042 203.531 79.4455C203.33 79.6849 203.203 79.963 203.163 80.2542L202.432 80.1164C202.432 80.1164 201.919 80.024 201.181 79.9197L200.831 79.6246C201.792 79.5577 202.791 79.4593 203.742 79.3609V79.3609Z" fill="url(#paint1_linear)"/>
<path d="M227.938 146.286L227.659 149.074L228.594 148.916L228.453 145.892L227.938 146.286Z" fill="#1D2366"/>
<path d="M206.602 133.049C205.474 135.744 205.793 139.382 206.046 141.149C206.14 141.802 206.227 142.199 206.227 142.199C206.227 142.199 204.542 145.422 204.401 145.544C204.26 145.666 199.442 148.135 199.442 148.135L196.073 149.786C196.073 149.786 192.656 148.529 194.295 148.096C194.629 147.983 194.931 147.81 195.178 147.59C196.819 146.282 198.879 143.03 198.879 143.03C198.879 143.03 199.02 141.379 199.535 140.594C200.051 139.809 199.863 131.559 199.863 131.559L199.903 118.112V116.359L206.314 116.398C206.354 116.993 206.446 117.585 206.59 118.169C206.82 119.176 207.118 120.172 207.483 121.151C208.613 124.219 208.144 129.356 206.602 133.049Z" fill="#FFB0B1"/>
<path opacity="0.1" d="M206.227 142.199C206.227 142.199 204.542 145.422 204.401 145.544C204.26 145.666 199.442 148.135 199.442 148.135L196.073 149.786C196.073 149.786 192.656 148.529 194.295 148.096C194.629 147.983 194.931 147.81 195.178 147.59L195.323 148.45L196.446 148.41L206.056 141.153C206.14 141.802 206.227 142.199 206.227 142.199Z" fill="black"/>
<path d="M206.11 141.336L196.446 148.643L195.323 148.682L195.089 147.305C195.089 147.305 193.125 149.426 188.761 149.308C188.761 149.308 186.14 150.762 190.024 150.84C193.908 150.919 198.867 150.722 198.867 150.722C198.867 150.722 202.331 146.197 205.231 146.787V150.205H206.121V146.756C206.535 146.522 206.889 146.22 207.16 145.868C207.432 145.517 207.616 145.123 207.701 144.71C207.778 144.284 207.724 143.85 207.543 143.447C207.362 143.045 207.06 142.688 206.668 142.412C206.492 142.274 206.352 142.107 206.256 141.922C206.16 141.737 206.11 141.537 206.11 141.336V141.336Z" fill="#1D2366"/>
<path d="M228.828 137.251C228.205 139.12 228.545 140.173 228.971 140.737V140.749C229.518 141.446 229.899 142.226 230.091 143.045L230.129 143.222L225.732 148.603L223.346 149.39C223.346 149.39 219.509 148.29 220.21 147.976C220.386 147.899 220.66 147.49 220.974 146.925C221.912 145.223 223.205 142.083 223.205 142.083V142.058C223.341 140.761 223.557 139.468 223.796 138.182C224.225 135.866 223.437 130.182 223.437 130.182C223.437 130.182 223.156 123.27 222.547 121.698C222.272 120.899 222.089 120.08 222.001 119.251C221.874 118.267 221.846 117.457 221.846 117.457C221.846 117.457 224.373 114.505 229.004 117.693C229.374 117.947 229.7 118.244 229.972 118.574C233.171 122.395 230.595 130.812 230.595 130.812C230.595 130.812 229.951 133.873 228.828 137.251Z" fill="#FFB0B1"/>
<path opacity="0.1" d="M230.136 143.222L225.739 148.603L223.353 149.39C223.353 149.39 219.516 148.29 220.217 147.976C220.393 147.899 220.667 147.49 220.981 146.925C222.605 146.913 223.447 148.212 223.447 148.212L225.505 147.936C225.505 147.936 228.219 143.458 228.828 143.185C229.438 142.911 228.922 141.141 228.922 141.141V140.69C228.938 140.706 228.952 140.724 228.971 140.739V140.751C229.518 141.448 229.899 142.228 230.091 143.047L230.136 143.222Z" fill="black"/>
<path d="M223.587 148.328C223.587 148.328 222.416 146.522 220.17 147.189C220.17 147.189 218.907 149.353 217.644 149.703C216.38 150.053 216.802 151.234 219.657 150.803C222.512 150.372 226.815 150.016 226.815 150.016L227.002 147.814L229.904 144.712C229.904 144.712 231.634 143.395 229.06 140.804V141.255C229.06 141.255 229.576 143.026 228.966 143.299C228.357 143.573 225.652 148.052 225.652 148.052L223.587 148.328Z" fill="#1D2366"/>
<path opacity="0.1" d="M206.321 116.394C206.361 116.989 206.453 117.581 206.597 118.165C203.958 117.84 201.509 118.002 199.903 118.108V116.355L206.321 116.394Z" fill="black"/>
<path opacity="0.1" d="M230.232 119.064C230.232 119.064 226.482 119.217 222.01 119.249C221.883 118.265 221.855 117.455 221.855 117.455C221.855 117.455 224.382 114.504 229.013 117.691C229.384 117.945 229.71 118.242 229.981 118.572C230.054 118.74 230.138 118.904 230.232 119.064V119.064Z" fill="black"/>
<path d="M230.232 118.71C230.232 118.71 213.807 119.377 208.8 118.198C203.794 117.02 198.832 118.041 198.084 117.767C197.337 117.494 197.944 113.211 198.6 112.15C199.256 111.09 202.856 100.365 202.856 100.365L206.321 85.2042L209.97 84.3602L210.228 84.2992L216.586 82.8276L221.246 81.7474C221.246 81.7474 230.511 112.111 229.716 114.35C229.428 115.207 229.381 116.109 229.581 116.984C229.702 117.582 229.921 118.163 230.232 118.71V118.71Z" fill="#1D2366"/>
<path d="M194.245 74.8358C194.245 74.8358 190.964 77.787 193.448 79.4318C195.933 81.0765 197.566 79.5892 197.566 79.5892L194.245 74.8358Z" fill="#C7DAF5"/>
<path opacity="0.1" d="M194.245 74.8358C194.245 74.8358 190.964 77.787 193.448 79.4318C195.933 81.0765 197.566 79.5892 197.566 79.5892L194.245 74.8358Z" fill="black"/>
<path d="M220.756 55.4328C220.756 55.4328 220.372 55.7398 219.793 56.1923C218.968 56.8396 217.747 57.7859 216.664 58.5788C215.164 59.6747 213.926 60.4793 214.369 59.7927C214.812 59.1061 214.728 57.9099 214.508 56.7904C214.491 56.7156 214.477 56.6408 214.461 56.5681C214.278 55.7459 214.036 54.9338 213.736 54.1363C213.736 54.1363 216.16 51.5078 217.501 50.4709C218 50.0774 218.349 49.9161 218.37 50.1896C218.394 50.5575 218.722 51.3701 219.129 52.2318C219.141 52.2593 219.153 52.2849 219.167 52.3125C219.439 52.9027 219.746 53.5087 220.015 54.032C220.428 54.8347 220.756 55.4328 220.756 55.4328Z" fill="#FFB0B1"/>
<path opacity="0.1" d="M219.167 52.3125C218.939 53.3407 218.387 54.2988 217.567 55.0865C216.747 55.8742 215.691 56.4627 214.508 56.7904C214.321 55.8923 214.064 55.0056 213.736 54.1363C213.736 54.1363 218.3 49.1882 218.37 50.1896C218.386 50.5693 218.743 51.4114 219.167 52.3125Z" fill="black"/>
<path opacity="0.1" d="M214.053 58.1125L214.643 57.4141C214.643 57.4141 215.035 59.4169 216.474 58.5335C217.913 57.6502 217.983 65.1815 217.983 65.1815L216.439 84.5668L205.278 84.0061L205.594 74.6391L206.857 69.9172L209.982 63.0528L211.84 60.7843L214.053 58.1125Z" fill="black"/>
<path d="M217.983 65.3016L216.577 82.8295L216.429 84.6868L210.207 84.374L209.972 84.3622L205.285 84.1261L205.601 74.7571L206.864 70.0352L209.989 63.1708L211.847 60.9023L214.06 58.2207L214.65 57.5242C214.65 57.5242 215.042 59.5271 216.481 58.6437L216.511 58.626C217.918 57.8784 217.983 65.3016 217.983 65.3016Z" fill="#1D2366"/>
<path d="M207.021 68.3944C207.021 68.3944 206.461 69.3781 205.336 69.2187C204.211 69.0594 204.214 72.7602 204.214 72.7602C204.214 72.7602 203.466 73.3504 202.95 72.8388C202.435 72.3273 201.075 74.0567 201.075 74.0567L192.558 74.3715C192.558 74.3715 196.348 75.8254 195.605 80.2246C195.605 80.2246 208.472 79.5557 208.894 78.5346C209.316 77.5135 207.021 68.3944 207.021 68.3944Z" fill="white"/>
<path opacity="0.03" d="M207.021 68.3944C207.021 68.3944 206.461 69.3781 205.336 69.2187C204.211 69.0594 204.214 72.7602 204.214 72.7602C204.214 72.7602 203.466 73.3504 202.95 72.8388C202.435 72.3273 201.075 74.0567 201.075 74.0567L192.558 74.3715C192.558 74.3715 196.348 75.8254 195.605 80.2246C195.605 80.2246 208.472 79.5557 208.894 78.5346C209.316 77.5135 207.021 68.3944 207.021 68.3944Z" fill="black"/>
<path d="M182.268 76.6832L184.514 78.2926L202.997 81.5527L200.705 79.5892L182.268 76.6832Z" fill="white"/>
<path d="M214.088 58.7322C213.781 59.1257 212.902 61.1404 212.168 62.8993C211.557 64.3651 211.046 65.6537 211.046 65.6537C211.046 65.6537 209.853 72.1739 209.243 73.3524C208.634 74.5309 208.964 79.1268 208.964 79.1268L206.693 90.477C206.693 90.477 205.664 96.3302 204.075 99.8263C202.507 103.267 200.761 104.881 200.707 104.932C201.41 104.133 205.242 88.4053 205.242 88.4053L206.508 68.5695C206.508 68.5695 206.693 66.6847 206.881 65.0733C207.068 63.462 210.865 61.2624 210.865 61.2624L214.526 56.8927C214.894 57.3058 214.648 58.0259 214.088 58.7322Z" fill="white"/>
<path d="M204.542 84.2245C204.542 84.2245 199.151 84.0277 196.54 81.3953C193.929 78.7628 202.575 80.3447 202.575 80.3447L204.823 80.7775L204.542 84.2245Z" fill="#FFB0B1"/>
<path opacity="0.1" d="M229.716 114.352C229.428 115.209 229.381 116.111 229.58 116.986C223.7 117.337 217.409 116.003 217.409 116.003C216.237 116.908 213.15 118.242 213.15 118.242L211.468 100.731C210.392 98.3704 209.97 86.0011 209.97 86.0011C209.97 86.0011 210.066 85.3538 210.204 84.3838C210.204 84.3602 210.204 84.3346 210.216 84.311C210.636 81.6019 211.468 76.516 211.875 75.8294C212.438 74.885 210.146 72.3726 210.146 72.3726L211.189 64.9061L211.315 64.005C213.514 63.1806 215.199 60.5482 215.199 60.5482L216.493 58.6457C217.899 57.8882 217.972 65.3114 217.972 65.3114L216.565 82.8394L221.225 81.7593C221.225 81.7593 230.511 112.113 229.716 114.352Z" fill="black"/>
<path d="M235.752 115.562C229.341 118.234 217.69 115.759 217.69 115.759C216.519 116.664 213.432 117.998 213.432 117.998L211.747 100.487C210.673 98.1264 210.251 85.7571 210.251 85.7571C210.251 85.7571 211.606 76.5278 212.168 75.5854C212.332 75.31 212.253 74.9007 212.058 74.46C211.102 72.3624 210.75 70.1046 211.032 67.871L211.482 64.6621L211.606 63.763C213.807 62.9367 215.492 60.3042 215.492 60.3042L216.664 58.5808L218.82 55.4053L219.842 53.9022L220.015 54.034L221.34 55.0413C221.34 55.0413 221.902 55.4348 222.746 56.025C224.581 57.3236 227.752 59.6097 229.388 61.0086C230.827 62.2402 231.282 67.0309 231.413 70.6373C231.5 73.012 231.449 74.8732 231.449 74.8732C229.998 76.878 233.792 92.9737 233.792 92.9737C234.676 96.0842 235.752 115.562 235.752 115.562Z" fill="white"/>
<path opacity="0.03" d="M223.447 60.2649C223.447 60.2649 219.047 67.2946 219.558 69.9664C220.069 72.6382 221.523 75.6621 220.822 76.3685C220.581 76.636 220.27 76.8533 219.912 77.0031C219.555 77.1529 219.161 77.2313 218.762 77.2322C218.058 77.2715 216.183 78.3713 216.183 78.4894C216.183 78.6074 214.451 78.6074 212.902 79.1583C211.353 79.7092 209.065 80.022 209.065 80.022C209.065 80.022 204.612 79.904 204.197 80.2581C203.782 80.6122 203.356 82.7312 204.244 84.4212C205.132 86.1113 206.119 87.3724 206.864 87.6026C207.61 87.8328 212.339 86.5028 216.176 86.188C220.013 85.8732 224.178 83.3214 224.178 83.3214C224.178 83.3214 228.765 81.9442 229.569 79.6285C230.373 77.3128 228.587 64.5854 228.587 64.5854C228.587 64.5854 227.237 58.6535 223.447 60.2649Z" fill="black"/>
<path opacity="0.03" d="M222.884 59.6747C222.884 59.6747 218.485 66.7063 219.001 69.3761C219.516 72.046 220.965 75.0719 220.262 75.7802C220.022 76.0481 219.711 76.2655 219.354 76.4154C218.997 76.5653 218.603 76.6435 218.204 76.6439C217.501 76.6832 215.626 77.783 215.626 77.9011C215.626 78.0191 213.893 78.0191 212.344 78.5681C210.795 79.117 208.507 79.4318 208.507 79.4318C208.507 79.4318 204.054 79.3137 203.642 79.6679C203.229 80.022 202.798 82.1429 203.688 83.831C204.579 85.5191 205.564 86.7822 206.309 87.0124C207.054 87.2425 211.784 85.9125 215.621 85.5997C219.458 85.2869 223.623 82.7312 223.623 82.7312C223.623 82.7312 228.207 81.354 229.002 79.0403C229.796 76.7265 228.02 63.9952 228.02 63.9952C228.02 63.9952 226.674 58.0653 222.884 59.6747Z" fill="black"/>
<path d="M223.309 59.9108C223.309 59.9108 218.909 66.9424 219.425 69.6122C219.94 72.2821 221.389 75.308 220.688 76.0143C220.448 76.2828 220.137 76.5008 219.78 76.6511C219.422 76.8013 219.028 76.8797 218.628 76.88C217.925 76.9193 216.05 78.0191 216.05 78.1352C216.05 78.2513 214.32 78.2533 212.768 78.8042C211.217 79.355 208.932 79.6679 208.932 79.6679C208.932 79.6679 204.478 79.5498 204.064 79.904C203.649 80.2581 203.222 82.379 204.11 84.0671C204.999 85.7551 205.985 87.0182 206.731 87.2484C207.476 87.4786 212.206 86.1486 216.043 85.8338C219.88 85.519 224.044 82.9673 224.044 82.9673C224.044 82.9673 228.631 81.5901 229.435 79.2744C230.239 76.9587 228.465 64.2313 228.465 64.2313C228.465 64.2313 227.096 58.3092 223.309 59.9108Z" fill="white"/>
<path opacity="0.1" d="M223.212 78.7707C223.212 78.7707 219.697 78.1805 220.92 79.1642C222.144 80.1479 222.137 81.0097 223.634 80.9703C225.132 80.931 223.212 78.7707 223.212 78.7707Z" fill="black"/>
<path opacity="0.1" d="M229.154 99.9365C229.154 99.9365 227.565 100.84 230.605 102.921C233.645 105.003 229.154 99.9365 229.154 99.9365Z" fill="black"/>
<path opacity="0.1" d="M226.121 107.36C226.121 107.478 225.559 111.688 227.663 112.741C229.768 113.793 226.121 107.36 226.121 107.36Z" fill="black"/>
<path d="M192.703 74.3616C191.006 74.4108 187.34 74.8456 189.241 77.8224C190.922 80.4568 193.746 78.6959 195.335 77.36C194.948 76.1145 194.005 75.0413 192.703 74.3616V74.3616Z" fill="#FFB0B1"/>
<path d="M195.356 77.336L195.427 77.2754L195.356 77.336Z" fill="#FFB0B1"/>
<path opacity="0.1" d="M222.746 56.1451C220.946 57.178 219.437 58.0495 219.141 58.2306C218.335 58.7323 216.797 61.6775 215.806 63.1807C215.016 64.3906 212.45 64.7015 211.482 64.7782L211.606 63.8791C213.807 63.0528 215.492 60.4203 215.492 60.4203L219.842 54.0182L221.34 55.1613C221.34 55.1613 221.902 55.5548 222.746 56.1451Z" fill="black"/>
<path d="M222.746 56.027C220.946 57.0599 219.437 57.9315 219.141 58.1145C218.335 58.6142 216.797 61.5595 215.806 63.0626C215.016 64.2726 212.45 64.5834 211.482 64.6602L211.606 63.761C213.807 62.9347 215.492 60.3023 215.492 60.3023L219.842 53.9002L221.34 55.0393C221.34 55.0393 221.902 55.4289 222.746 56.027Z" fill="#DCE7FF"/>
<path d="M219.282 51.0139C219.283 52.195 218.856 53.3484 218.058 54.3212C217.116 55.4715 215.714 56.3001 214.106 56.6567C212.499 57.0134 210.792 56.8744 209.296 56.2651C207.8 55.6558 206.613 54.6164 205.952 53.3356C205.29 52.0549 205.198 50.6175 205.691 49.2844C206.184 47.9513 207.23 46.8107 208.64 46.0697C210.049 45.3286 211.728 45.0362 213.372 45.2454C215.016 45.4547 216.517 46.1517 217.601 47.2101C218.685 48.2685 219.282 49.618 219.282 51.0139V51.0139Z" fill="#FFB0B1"/>
<path opacity="0.1" d="M231.413 70.6392C230.462 70.1477 229.686 69.4488 229.17 68.6167C228.779 67.9674 228.519 67.2178 227.851 66.7575C227.248 66.3443 226.445 66.244 225.694 66.059C223.229 65.4471 221.162 63.5584 221.084 61.4021C221.047 60.3869 221.424 59.3736 221.253 58.3683C221.156 57.7993 220.886 57.2607 220.47 56.8041C220.264 56.5858 220.037 56.3812 219.793 56.1923C219.465 55.9326 219.12 55.6807 218.82 55.4053C218.631 55.2347 218.466 55.0466 218.328 54.8446C218.216 54.6792 218.126 54.5045 218.058 54.3232C217.59 53.1191 218.016 51.6907 217.501 50.4729L217.472 50.406C217.278 49.9732 216.882 49.5403 216.331 49.5069C215.78 49.4734 215.309 49.8571 214.784 50.0283C213.685 50.3863 212.499 49.7764 211.582 49.1547C210.666 48.533 209.632 47.8227 208.468 47.9605C207.696 48.0529 207.087 48.4936 206.377 48.7219C206.217 48.774 206.051 48.8141 205.882 48.8419C206.483 47.5837 207.588 46.5405 209.005 45.8915C210.423 45.2425 212.066 45.0282 213.651 45.2855C215.237 45.5427 216.666 46.2554 217.694 47.3012C218.721 48.3469 219.283 49.6604 219.282 51.0159C219.283 51.4252 219.232 51.8335 219.129 52.2338C219.141 52.2613 219.153 52.2869 219.167 52.3144C219.439 52.9047 219.746 53.5106 220.015 54.034L221.34 55.0413C221.34 55.0413 221.902 55.4348 222.746 56.025C224.581 57.3236 227.752 59.6097 229.388 61.0086C230.827 62.2441 231.277 67.0329 231.413 70.6392Z" fill="black"/>
<path d="M206.295 45.1273C206.63 44.5548 206.796 43.9134 207.197 43.3704C207.786 42.5834 208.812 42.0798 209.867 41.7748C212.621 40.978 218.44 39.8211 220.18 41.7748C220.522 42.1683 220.805 42.6051 221.279 42.8766C221.64 43.0832 222.076 43.1717 222.472 43.3271C223.58 43.7639 224.288 44.7162 224.666 45.6881C225.043 46.66 225.155 47.7027 225.432 48.7042C225.786 49.9889 226.407 51.2068 227.026 52.4167C227.755 53.8451 228.528 55.3266 229.934 56.3359C231.854 57.7131 232.278 59.6629 234.06 61.1739C236.169 62.9682 236.101 65.9292 235.013 68.2803C234.871 68.5892 234.709 68.9118 234.765 69.2404C234.821 69.569 235.112 69.868 235.386 70.1297L236.539 71.2216C233.811 71.7745 230.724 70.5783 229.454 68.479C229.063 67.8297 228.802 67.0821 228.132 66.6197C227.532 66.2066 226.726 66.1082 225.978 65.9233C223.512 65.3094 221.445 63.4187 221.368 61.2624C221.33 60.2492 221.708 59.2359 221.537 58.2325C221.441 57.6597 221.171 57.1174 220.751 56.6586C220.107 55.9522 219.134 55.4781 218.609 54.6911C217.721 53.3749 218.396 51.6652 217.756 50.2525C217.559 49.8197 217.165 49.3869 216.615 49.3534C216.064 49.32 215.593 49.7036 215.065 49.8748C213.968 50.2329 212.783 49.6249 211.866 49.0013C210.95 48.3776 209.916 47.6693 208.749 47.809C207.978 47.8995 207.371 48.3402 206.66 48.5704C206.135 48.7396 205.071 48.8911 204.612 48.5192C203.642 47.7696 205.889 45.8278 206.295 45.1273Z" fill="#591D4B"/>
<path opacity="0.1" d="M230.106 67.8297C229.712 67.1805 229.454 66.4328 228.784 65.9725C228.184 65.5593 227.377 65.4589 226.627 65.274C224.164 64.6621 222.097 62.7714 222.017 60.6151C221.98 59.6019 222.357 58.5867 222.188 57.5833C222.09 57.0141 221.82 56.4756 221.403 56.0191C220.756 55.3128 219.783 54.8387 219.261 54.0517C218.372 52.7374 219.048 51.0277 218.405 49.6131C218.211 49.1823 217.815 48.7494 217.266 48.714C216.718 48.6786 216.242 49.0662 215.717 49.2373C214.62 49.5954 213.432 48.9855 212.518 48.3638C211.604 47.7421 210.565 47.0318 209.4 47.1696C208.629 47.262 208.02 47.7027 207.312 47.931C206.787 48.1002 205.721 48.2536 205.261 47.8818C204.296 47.0948 206.543 45.1569 206.946 44.4604C207.282 43.8859 207.448 43.2465 207.851 42.7034C207.872 42.6739 207.896 42.6444 207.919 42.6149C207.618 42.8246 207.357 43.0729 207.148 43.3507C206.747 43.8938 206.581 44.5312 206.246 45.1077C205.84 45.8041 203.592 47.748 204.56 48.5291C205.029 48.9029 206.084 48.7494 206.609 48.5802C207.312 48.35 207.926 47.9093 208.697 47.8188C209.869 47.6791 210.9 48.3894 211.815 49.0111C212.729 49.6328 213.924 50.2427 215.016 49.8846C215.541 49.7135 216.001 49.3278 216.563 49.3633C217.126 49.3987 217.501 49.8295 217.705 50.2624C218.344 51.675 217.669 53.3847 218.558 54.7009C219.083 55.4742 220.055 55.9581 220.7 56.6684C221.119 57.1272 221.39 57.6695 221.485 58.2424C221.656 59.2457 221.279 60.259 221.316 61.2722C221.394 63.4364 223.461 65.3193 225.927 65.9331C226.67 66.118 227.481 66.2164 228.081 66.6296C228.753 67.0919 229.018 67.8396 229.402 68.4888C230.673 70.5881 233.76 71.7843 236.488 71.2314L235.944 70.716C233.579 70.7455 231.186 69.6162 230.106 67.8297Z" fill="black"/>
<path opacity="0.1" d="M213.947 58.8503C213.64 59.2438 212.761 61.2584 212.028 63.0173C211.341 62.793 210.718 61.3627 210.718 61.3627L214.379 56.991C214.754 57.4239 214.507 58.142 213.947 58.8503Z" fill="black"/>
<path d="M214.088 58.7322C213.781 59.1257 212.902 61.1404 212.168 62.8993C211.482 62.677 210.858 61.2447 210.858 61.2447L214.519 56.875C214.894 57.3058 214.648 58.0259 214.088 58.7322Z" fill="#DCE7FF"/>
<path d="M192.802 78.8317L190.772 73.4586C190.748 73.3957 190.739 73.3294 190.745 73.2636C190.752 73.1978 190.774 73.1337 190.81 73.075C190.846 73.0163 190.896 72.9642 190.956 72.9216C191.016 72.8791 191.086 72.847 191.161 72.827V72.827C191.312 72.7875 191.475 72.7996 191.616 72.8607C191.756 72.9219 191.862 73.0272 191.911 73.1536L193.941 78.5208L193.739 79.6443L192.802 78.8317Z" fill="#BE8B87"/>
<path opacity="0.1" d="M190.964 72.9864C191.115 72.9462 191.28 72.958 191.421 73.0192C191.562 73.0805 191.668 73.1861 191.716 73.313L193.746 78.6802L193.594 79.5223L193.741 79.6521L193.943 78.5287L191.902 73.1615C191.853 73.035 191.747 72.9298 191.607 72.8686C191.466 72.8074 191.303 72.7953 191.151 72.8349V72.8349C191.024 72.8695 190.915 72.9388 190.84 73.0317C190.88 73.0137 190.921 72.9986 190.964 72.9864V72.9864Z" fill="white"/>
<path d="M192.802 78.8317L193.941 78.5287L193.774 79.4495L193.739 79.6521L193.406 79.3609L192.802 78.8317Z" fill="#EFC8C4"/>
<path d="M193.406 79.3609C193.426 79.3399 193.451 79.3225 193.479 79.3098C193.495 79.301 193.514 79.2964 193.534 79.2964C193.553 79.2964 193.573 79.301 193.589 79.3098C193.605 79.326 193.618 79.3438 193.629 79.3629C193.644 79.3846 193.665 79.4031 193.691 79.4171C193.716 79.4311 193.744 79.4401 193.774 79.4436L193.739 79.6403L193.406 79.3609Z" fill="#727A9C"/>
<path d="M190.76 75.367C190.76 75.367 194.831 75.3473 193.873 76.8013C192.914 78.2552 191.416 78.4303 191.416 78.4303L190.76 75.367Z" fill="#FFB0B1"/>
<path d="M165.44 10.1166H165.264C158.27 10.1166 152.085 13.2232 148.527 17.8074C144.969 13.2232 138.784 10.1166 131.79 10.1166H131.614C126.365 10.1586 121.348 11.9377 117.654 15.0672C113.959 18.1968 111.884 22.424 111.882 26.8301C111.882 32.3015 114.736 40.0651 120.303 46.4534C130.909 58.626 148.527 69.2758 148.527 69.2758C148.527 69.2758 166.145 58.628 176.749 46.4534C182.318 40.0651 185.17 32.3015 185.17 26.8301C185.167 22.4243 183.093 18.1974 179.399 15.0679C175.705 11.9384 170.688 10.1591 165.44 10.1166V10.1166ZM162.925 47.3899C162.128 47.3874 161.352 47.1827 160.696 46.8028C160.041 46.4229 159.537 45.8855 159.252 45.2611H155.071C154.796 45.2597 154.528 45.1861 154.305 45.0507C154.081 44.9152 153.914 44.7247 153.826 44.5056L152.542 41.2574L148.478 53.1781C148.399 53.4076 148.233 53.6093 148.006 53.753C147.778 53.8967 147.501 53.9746 147.217 53.9749H147.135C146.838 53.9629 146.555 53.8657 146.333 53.6995C146.111 53.5334 145.964 53.3083 145.916 53.062L141.728 31.9159L138.667 44.4289C138.596 44.6666 138.433 44.8777 138.204 45.0286C137.974 45.1794 137.69 45.2613 137.399 45.2611H131.509C131.332 45.2674 131.156 45.2436 130.99 45.1912C130.825 45.1388 130.674 45.0589 130.547 44.9563C130.419 44.8536 130.317 44.7303 130.248 44.5939C130.179 44.4575 130.143 44.3106 130.143 44.1623C130.143 44.014 130.179 43.8671 130.248 43.7307C130.317 43.5943 130.419 43.471 130.547 43.3684C130.674 43.2657 130.825 43.1858 130.99 43.1334C131.156 43.081 131.332 43.0572 131.509 43.0635H136.367L140.703 26.2398C140.775 25.9911 140.946 25.7709 141.19 25.6167C141.433 25.4626 141.732 25.3842 142.037 25.3949C142.341 25.4056 142.632 25.5047 142.859 25.6753C143.086 25.846 143.235 26.0775 143.282 26.3303L147.559 47.9014L151.201 37.2359C151.277 37.0113 151.437 36.8133 151.658 36.6714C151.879 36.5296 152.149 36.4515 152.427 36.4489H152.453C152.728 36.449 152.997 36.5221 153.22 36.6577C153.443 36.7934 153.609 36.9847 153.695 37.2044L156.018 43.0694H159.201C159.427 42.4923 159.839 41.9788 160.391 41.5858C160.943 41.1927 161.613 40.9353 162.329 40.842C163.044 40.7487 163.776 40.8231 164.444 41.0569C165.112 41.2908 165.69 41.675 166.114 42.1672C166.539 42.6595 166.793 43.2405 166.849 43.8463C166.904 44.4521 166.76 45.059 166.43 45.6001C166.101 46.1412 165.6 46.5954 164.983 46.9127C164.366 47.2299 163.656 47.3978 162.932 47.3978L162.925 47.3899Z" fill="#00B0FF"/>
</g>
<defs>
<linearGradient id="paint0_linear" x1="83.5169" y1="152.452" x2="83.5169" y2="31.3867" gradientUnits="userSpaceOnUse">
<stop stop-color="#808080" stop-opacity="0.25"/>
<stop offset="0.54" stop-color="#808080" stop-opacity="0.12"/>
<stop offset="1" stop-color="#808080" stop-opacity="0.1"/>
</linearGradient>
<linearGradient id="paint1_linear" x1="52317.4" y1="91345.1" x2="52317.4" y2="29201.4" gradientUnits="userSpaceOnUse">
<stop stop-color="#808080" stop-opacity="0.25"/>
<stop offset="0.54" stop-color="#808080" stop-opacity="0.12"/>
<stop offset="1" stop-color="#808080" stop-opacity="0.1"/>
</linearGradient>
<clipPath id="clip0">
<rect width="259" height="154" fill="white"/>
</clipPath>
</defs>
</svg>
