<svg width="290" height="164" viewBox="0 0 290 164" fill="none" xmlns="http://www.w3.org/2000/svg">
<g clip-path="url(#clip0)">
<path opacity="0.1" d="M3.18982 86.9891C7.77768 102.001 17.4899 114.977 32.8392 121.267C64.7375 134.339 136.677 127.598 190.367 119.851C217.496 115.952 242.121 105.178 260.279 89.2631L3.18982 86.9891Z" fill="#00BFA6"/>
<path d="M211.24 131.448C211.24 131.448 193.362 139.702 226.312 152.405C226.312 152.405 233.569 142.087 225.545 133.677C223.988 132.037 221.698 130.892 219.111 130.458C216.523 130.024 213.818 130.331 211.507 131.322L211.24 131.448Z" fill="#00BFA6"/>
<path d="M211.446 131.274C211.446 131.274 226.742 140.232 226.312 152.405" stroke="#535461" stroke-miterlimit="10"/>
<path d="M4.83868 133.875C4.83868 133.875 -13.0397 142.13 19.9104 154.833C19.9104 154.833 27.1675 144.515 19.144 136.105C17.5863 134.465 15.2967 133.319 12.7093 132.885C10.122 132.451 7.41648 132.759 5.1056 133.75L4.83868 133.875Z" fill="#00BFA6"/>
<path d="M5.04504 133.701C5.04504 133.701 20.3414 142.66 19.9107 154.833" stroke="#535461" stroke-miterlimit="10"/>
<path d="M227.189 153.573C227.189 153.573 221.589 139.006 228.246 128.302C231.073 123.821 231.925 118.759 230.675 113.877C230.049 111.562 229.148 109.296 227.982 107.107" stroke="#535461" stroke-width="2" stroke-miterlimit="10"/>
<path d="M232.128 100.338C232.128 102.122 227.9 107.295 227.9 107.295C227.9 107.295 223.671 102.122 223.671 100.338C223.742 99.5181 224.218 98.7497 225.001 98.1884C225.785 97.6271 226.818 97.3147 227.891 97.3147C228.964 97.3147 229.997 97.6271 230.78 98.1884C231.564 98.7497 232.039 99.5181 232.11 100.338H232.128Z" fill="#00BFA6"/>
<path d="M239.103 110.219C237.837 111.716 230.622 114.304 230.622 114.304C230.622 114.304 230.754 108.206 232.02 106.709C232.661 106.05 233.606 105.602 234.663 105.457C235.719 105.311 236.809 105.479 237.71 105.926C238.611 106.373 239.256 107.065 239.515 107.863C239.773 108.66 239.626 109.503 239.103 110.221V110.219Z" fill="#00BFA6"/>
<path d="M238.799 127.106C236.719 127.915 228.785 127.355 228.785 127.355C228.785 127.355 232.919 122.141 235.001 121.338C235.989 121.017 237.1 120.995 238.108 121.278C239.116 121.56 239.946 122.126 240.429 122.86C240.913 123.593 241.014 124.441 240.711 125.229C240.409 126.018 239.726 126.689 238.802 127.106H238.799Z" fill="#00BFA6"/>
<path d="M234.808 139.844C232.934 140.904 224.993 141.383 224.993 141.383C224.993 141.383 227.916 135.718 229.79 134.648C230.692 134.201 231.784 134.034 232.842 134.181C233.9 134.328 234.845 134.779 235.485 135.44C236.125 136.102 236.411 136.925 236.286 137.743C236.161 138.561 235.633 139.311 234.811 139.842L234.808 139.844Z" fill="#00BFA6"/>
<path d="M221.761 114.649C223.431 115.892 231.219 117.18 231.219 117.18C231.219 117.18 229.311 111.259 227.641 110.016C226.824 109.485 225.773 109.21 224.701 109.25C223.629 109.289 222.617 109.638 221.87 110.227C221.122 110.816 220.695 111.601 220.675 112.422C220.655 113.243 221.043 114.039 221.761 114.649Z" fill="#00BFA6"/>
<path d="M217.345 129.59C219.425 130.4 227.358 129.839 227.358 129.839C227.358 129.839 223.225 124.626 221.142 123.822C220.644 123.597 220.09 123.453 219.516 123.399C218.942 123.344 218.359 123.38 217.804 123.505C217.249 123.63 216.733 123.84 216.288 124.124C215.844 124.407 215.48 124.758 215.219 125.153C214.959 125.549 214.807 125.981 214.773 126.423C214.74 126.865 214.825 127.308 215.024 127.724C215.223 128.14 215.532 128.52 215.93 128.841C216.329 129.162 216.809 129.417 217.342 129.59H217.345Z" fill="#00BFA6"/>
<path d="M215.653 144.564C217.527 145.624 225.469 146.103 225.469 146.103C225.469 146.103 222.546 140.438 220.672 139.368C220.23 139.083 219.717 138.871 219.164 138.744C218.61 138.616 218.029 138.577 217.455 138.629C216.881 138.68 216.327 138.821 215.828 139.043C215.328 139.265 214.893 139.563 214.549 139.918C214.205 140.273 213.96 140.679 213.829 141.11C213.698 141.541 213.684 141.987 213.787 142.422C213.891 142.857 214.109 143.272 214.43 143.64C214.75 144.008 215.166 144.321 215.651 144.562L215.653 144.564Z" fill="#00BFA6"/>
<path opacity="0.25" d="M232.128 100.338C232.128 102.122 227.9 107.295 227.9 107.295C227.9 107.295 223.671 102.122 223.671 100.338C223.742 99.5181 224.218 98.7497 225.001 98.1884C225.785 97.6271 226.818 97.3147 227.891 97.3147C228.964 97.3147 229.997 97.6271 230.78 98.1884C231.564 98.7497 232.039 99.5181 232.11 100.338H232.128Z" fill="black"/>
<path opacity="0.25" d="M239.103 110.219C237.837 111.716 230.622 114.304 230.622 114.304C230.622 114.304 230.754 108.206 232.02 106.709C232.661 106.05 233.606 105.602 234.663 105.457C235.719 105.311 236.809 105.479 237.71 105.926C238.611 106.373 239.256 107.065 239.515 107.863C239.773 108.66 239.626 109.503 239.103 110.221V110.219Z" fill="black"/>
<path opacity="0.25" d="M238.799 127.106C236.719 127.915 228.785 127.355 228.785 127.355C228.785 127.355 232.919 122.141 235.001 121.338C235.989 121.017 237.1 120.995 238.108 121.278C239.116 121.56 239.946 122.126 240.429 122.86C240.913 123.593 241.014 124.441 240.711 125.229C240.409 126.018 239.726 126.689 238.802 127.106H238.799Z" fill="black"/>
<path opacity="0.25" d="M234.808 139.844C232.934 140.904 224.993 141.383 224.993 141.383C224.993 141.383 227.916 135.718 229.79 134.648C230.692 134.201 231.784 134.034 232.842 134.181C233.9 134.328 234.845 134.779 235.485 135.44C236.125 136.102 236.411 136.925 236.286 137.743C236.161 138.561 235.633 139.311 234.811 139.842L234.808 139.844Z" fill="black"/>
<path opacity="0.25" d="M221.761 114.649C223.431 115.892 231.219 117.18 231.219 117.18C231.219 117.18 229.311 111.259 227.641 110.016C226.824 109.485 225.773 109.21 224.701 109.25C223.629 109.289 222.617 109.638 221.87 110.227C221.122 110.816 220.695 111.601 220.675 112.422C220.655 113.243 221.043 114.039 221.761 114.649Z" fill="black"/>
<path opacity="0.25" d="M217.345 129.59C219.425 130.4 227.358 129.839 227.358 129.839C227.358 129.839 223.225 124.626 221.142 123.822C220.644 123.597 220.09 123.453 219.516 123.399C218.942 123.344 218.359 123.38 217.804 123.505C217.249 123.63 216.733 123.84 216.288 124.124C215.844 124.407 215.48 124.758 215.219 125.153C214.959 125.549 214.807 125.981 214.773 126.423C214.74 126.865 214.825 127.308 215.024 127.724C215.223 128.14 215.532 128.52 215.93 128.841C216.329 129.162 216.809 129.417 217.342 129.59H217.345Z" fill="black"/>
<path opacity="0.25" d="M215.653 144.564C217.527 145.624 225.469 146.103 225.469 146.103C225.469 146.103 222.546 140.438 220.672 139.368C220.23 139.083 219.717 138.871 219.164 138.744C218.61 138.616 218.029 138.577 217.455 138.629C216.881 138.68 216.327 138.821 215.828 139.043C215.328 139.265 214.893 139.563 214.549 139.918C214.205 140.273 213.96 140.679 213.829 141.11C213.698 141.541 213.684 141.987 213.787 142.422C213.891 142.857 214.109 143.272 214.43 143.64C214.75 144.008 215.166 144.321 215.651 144.562L215.653 144.564Z" fill="black"/>
<path d="M240.139 153.85C240.139 153.85 234.539 139.283 241.196 128.579C244.023 124.098 244.875 119.037 243.625 114.154C243.008 111.84 242.115 109.574 240.958 107.384" stroke="#535461" stroke-width="2" stroke-miterlimit="10"/>
<path d="M245.089 100.613C245.089 102.397 240.86 107.57 240.86 107.57C240.86 107.57 236.632 102.397 236.632 100.613C236.703 99.7932 237.178 99.0249 237.962 98.4635C238.745 97.9022 239.778 97.5899 240.851 97.5899C241.924 97.5899 242.957 97.9022 243.74 98.4635C244.524 99.0249 244.999 99.7932 245.07 100.613H245.089Z" fill="#00BFA6"/>
<path d="M252.063 110.496C250.797 111.993 243.574 114.573 243.574 114.573C243.574 114.573 243.707 108.475 244.972 106.978C245.614 106.319 246.559 105.871 247.615 105.726C248.672 105.58 249.761 105.748 250.662 106.195C251.563 106.642 252.208 107.334 252.467 108.132C252.726 108.929 252.578 109.772 252.055 110.49L252.063 110.496Z" fill="#00BFA6"/>
<path d="M251.767 127.383C249.687 128.192 241.753 127.632 241.753 127.632C241.753 127.632 245.887 122.418 247.969 121.615C248.957 121.296 250.066 121.276 251.072 121.56C252.078 121.843 252.906 122.408 253.389 123.141C253.871 123.874 253.972 124.719 253.671 125.507C253.37 126.294 252.689 126.965 251.767 127.383Z" fill="#00BFA6"/>
<path d="M247.768 140.121C245.895 141.181 237.953 141.66 237.953 141.66C237.953 141.66 240.876 135.996 242.75 134.925C243.653 134.478 244.744 134.311 245.802 134.458C246.86 134.605 247.806 135.056 248.445 135.717C249.085 136.379 249.372 137.203 249.246 138.02C249.121 138.838 248.593 139.588 247.771 140.119L247.768 140.121Z" fill="#00BFA6"/>
<path d="M234.721 114.927C236.391 116.169 244.179 117.458 244.179 117.458C244.179 117.458 242.271 111.536 240.601 110.294C239.784 109.762 238.733 109.488 237.661 109.527C236.59 109.566 235.578 109.915 234.83 110.504C234.082 111.093 233.655 111.878 233.635 112.699C233.615 113.52 234.003 114.316 234.721 114.927Z" fill="#00BFA6"/>
<path d="M230.302 129.868C232.382 130.677 240.316 130.116 240.316 130.116C240.316 130.116 236.175 124.903 234.103 124.1C233.115 123.778 232.004 123.757 230.996 124.039C229.988 124.322 229.158 124.888 228.674 125.621C228.191 126.355 228.09 127.202 228.393 127.991C228.695 128.779 229.378 129.45 230.302 129.868Z" fill="#00BFA6"/>
<path d="M228.611 144.841C230.485 145.901 238.426 146.38 238.426 146.38C238.426 146.38 235.503 140.716 233.63 139.645C233.188 139.36 232.674 139.148 232.121 139.021C231.568 138.894 230.986 138.854 230.413 138.906C229.839 138.958 229.285 139.098 228.785 139.32C228.285 139.542 227.85 139.84 227.506 140.195C227.163 140.551 226.918 140.956 226.787 141.387C226.656 141.818 226.642 142.264 226.745 142.7C226.848 143.135 227.067 143.549 227.387 143.917C227.708 144.285 228.123 144.599 228.608 144.839L228.611 144.841Z" fill="#00BFA6"/>
<path opacity="0.1" d="M284.741 16.3308H255.282C254.606 16.3308 253.959 16.1254 253.481 15.7599C253.004 15.3943 252.735 14.8985 252.735 14.3815C252.735 13.8645 253.004 13.3687 253.481 13.0031C253.959 12.6376 254.606 12.4322 255.282 12.4322H260.374C259.699 12.4322 259.051 12.2268 258.574 11.8613C258.096 11.4957 257.828 10.9999 257.828 10.4829C257.828 9.96592 258.096 9.47011 258.574 9.10455C259.051 8.73898 259.699 8.53361 260.374 8.53361H256.735C256.06 8.53361 255.412 8.32824 254.935 7.96268C254.457 7.59711 254.189 7.1013 254.189 6.58431C254.189 6.06733 254.457 5.57152 254.935 5.20595C255.412 4.84039 256.06 4.63502 256.735 4.63502H272.116C268.704 3.42113 264.717 2.55725 260.123 2.10406C218.198 -2.0191 203.23 0.708096 197.949 3.52026C191.435 6.97984 184.167 9.52495 176.4 10.751C150.527 14.8317 102.151 19.7459 58.3155 9.16686C36.5232 3.90668 20.3256 12.7923 10.6187 27.6341H289.857C289.493 23.3208 288.401 19.3392 286.398 15.8513C285.939 16.1587 285.351 16.3289 284.741 16.3308Z" fill="#00BFA6"/>
<path opacity="0.1" d="M0.703002 55.6567C-0.427971 64.3876 -0.0431826 73.1947 1.84733 81.8483L260.488 89.081C267.688 82.7407 273.733 75.6832 278.459 68.101L0.703002 55.6567ZM102.979 74.3404H97.8964C98.5718 74.3404 99.2194 74.5458 99.697 74.9113C100.174 75.2769 100.443 75.7727 100.443 76.2897C100.443 76.8067 100.174 77.3025 99.697 77.668C99.2194 78.0336 98.5718 78.239 97.8964 78.239H68.4374C67.7621 78.239 67.1144 78.0336 66.6369 77.668C66.1594 77.3025 65.8911 76.8067 65.8911 76.2897C65.8911 75.7727 66.1594 75.2769 66.6369 74.9113C67.1144 74.5458 67.7621 74.3404 68.4374 74.3404H73.53C72.8547 74.3404 72.207 74.135 71.7295 73.7694C71.252 73.4039 70.9837 72.9081 70.9837 72.3911C70.9837 71.8741 71.252 71.3783 71.7295 71.0127C72.207 70.6472 72.8547 70.4418 73.53 70.4418H69.8909C69.2156 70.4418 68.5679 70.2364 68.0904 69.8708C67.6129 69.5053 67.3446 69.0095 67.3446 68.4925C67.3446 67.9755 67.6129 67.4797 68.0904 67.1141C68.5679 66.7486 69.2156 66.5432 69.8909 66.5432H99.35C100.025 66.5432 100.673 66.7486 101.15 67.1141C101.628 67.4797 101.896 67.9755 101.896 68.4925C101.896 69.0095 101.628 69.5053 101.15 69.8708C100.673 70.2364 100.025 70.4418 99.35 70.4418H102.979C103.654 70.4418 104.302 70.6472 104.779 71.0127C105.257 71.3783 105.525 71.8741 105.525 72.3911C105.525 72.9081 105.257 73.4039 104.779 73.7694C104.302 74.135 103.654 74.3404 102.979 74.3404Z" fill="#00BFA6"/>
<path opacity="0.1" d="M289.868 27.7798L7.48968 33.0399C4.05407 39.7993 1.77863 47.4427 0.726807 55.3633H284.921C286.778 50.71 288.152 45.9516 289.03 41.1325C289.868 36.4793 290.209 31.9697 289.868 27.7798ZM58.0513 45.0048H52.9693C53.6446 45.0048 54.2923 45.2102 54.7698 45.5757C55.2473 45.9413 55.5156 46.4371 55.5156 46.9541C55.5156 47.4711 55.2473 47.9669 54.7698 48.3325C54.2923 48.698 53.6446 48.9034 52.9693 48.9034H23.5102C22.8349 48.9034 22.1872 48.698 21.7097 48.3325C21.2322 47.9669 20.9639 47.4711 20.9639 46.9541C20.9639 46.4371 21.2322 45.9413 21.7097 45.5757C22.1872 45.2102 22.8349 45.0048 23.5102 45.0048H28.6028C27.9275 45.0048 27.2798 44.7994 26.8023 44.4339C26.3248 44.0683 26.0565 43.5725 26.0565 43.0555C26.0565 42.5385 26.3248 42.0427 26.8023 41.6772C27.2798 41.3116 27.9275 41.1062 28.6028 41.1062H24.9637C24.2884 41.1062 23.6407 40.9008 23.1632 40.5353C22.6857 40.1697 22.4174 39.6739 22.4174 39.1569C22.4174 38.6399 22.6857 38.1441 23.1632 37.7786C23.6407 37.413 24.2884 37.2076 24.9637 37.2076H54.4228C55.0981 37.2076 55.7458 37.413 56.2233 37.7786C56.7008 38.1441 56.9691 38.6399 56.9691 39.1569C56.9691 39.6739 56.7008 40.1697 56.2233 40.5353C55.7458 40.9008 55.0981 41.1062 54.4228 41.1062H58.0513C58.7266 41.1062 59.3743 41.3116 59.8518 41.6772C60.3294 42.0427 60.5976 42.5385 60.5976 43.0555C60.5976 43.5725 60.3294 44.0683 59.8518 44.4339C59.3743 44.7994 58.7266 45.0048 58.0513 45.0048Z" fill="#00BFA6"/>
<path d="M145.44 164C223.235 164 286.3 161.011 286.3 157.324C286.3 153.636 223.235 150.647 145.44 150.647C67.6452 150.647 4.57996 153.636 4.57996 157.324C4.57996 161.011 67.6452 164 145.44 164Z" fill="#00BFA6"/>
<path d="M191.099 54.4448C191.099 54.4448 174.764 42.6762 172.404 40.916C171.582 40.3091 170.805 39.7022 170.142 39.1903C168.866 38.2136 167.232 37.558 165.456 37.3108C159.336 36.4226 153.075 33.5417 153.075 33.5417C153.041 33.5073 153.006 33.4769 152.975 33.4405C152.444 32.8726 152.054 32.2348 151.825 31.559C151.791 31.4599 151.756 31.3567 151.727 31.2515C151.826 31.1544 151.922 31.0552 152.015 30.9541C152.122 30.9255 152.226 30.8896 152.325 30.8469C153.099 30.509 153.535 29.8838 153.828 29.2688C154.093 28.7246 154.304 28.1237 154.933 27.7697C155.158 27.6741 155.361 27.5503 155.533 27.4035C155.66 27.2106 155.709 26.9927 155.673 26.7783C155.673 25.3965 155.385 24.3364 155.805 22.989C156.476 20.8323 157.092 18.1334 154.965 16.5331C153.866 15.7208 152.467 15.1874 150.958 15.0057C149.592 14.8398 147.57 16.264 146.185 16.2195C142.657 16.1164 139.684 13.6805 136.33 14.4675C134.871 14.8066 133.598 15.505 132.71 16.4542C131.055 18.2589 131.214 20.5936 131.452 22.7462C131.448 22.9101 131.512 23.0708 131.634 23.2055C131.758 23.3167 131.957 23.3754 132.078 23.4867C132.208 23.6344 132.258 23.8152 132.216 23.9904C132.177 24.3388 132.066 24.6802 131.888 25.002C131.842 25.0556 131.814 25.1168 131.805 25.1805C131.797 25.2441 131.808 25.3085 131.838 25.3682C131.904 25.435 131.997 25.4833 132.102 25.5058C132.244 25.5424 132.39 25.5688 132.538 25.5847C132.514 25.7627 132.493 25.9407 132.485 26.1208C132.485 26.222 132.485 26.3231 132.485 26.4263C132.491 27.741 132.925 29.0338 133.748 30.1881C134.57 31.3424 135.754 32.3218 137.195 33.0379C137.224 33.1836 137.255 33.3333 137.284 33.4891C137.374 33.9686 137.456 34.5007 137.517 35.0793C137.517 35.1845 137.538 35.2816 137.549 35.3969L137.477 35.2856L126.113 39.5504C125.274 39.6991 124.49 39.9932 123.822 40.4103L123.598 40.4952V40.5458C123.504 40.6052 123.409 40.6685 123.312 40.736L113.452 32.2105L90.4597 47.4892L103.103 57.9104L117.31 57.0041C116.61 60.6862 116.132 63.5085 116.132 63.5085C116.132 63.5085 113.534 72.032 126.119 70.4013C126.037 75.7768 123.029 84.7474 123.029 84.7474C123.379 85.0977 123.791 85.4089 124.253 85.672L124.182 86.0382L123.389 90.1593C123.389 90.1593 118.669 100.17 117.945 109.098C117.22 118.026 116.311 123.031 116.311 123.031L114.678 140.89L112.382 149.055C108.599 152.222 104.194 154.918 99.3262 157.046C99.1114 157.134 98.9214 157.253 98.7675 157.397C98.6136 157.542 98.4988 157.708 98.4299 157.886C98.361 158.065 98.3394 158.252 98.3662 158.437C98.393 158.623 98.4679 158.802 98.5863 158.964C99.5165 160.19 102.379 161.463 111.047 159.424C124.842 156.187 123.571 156.312 123.571 156.312C123.571 156.312 123.775 151.978 123.188 149.409C123.169 149.332 123.151 149.257 123.132 149.183C126.436 146.332 124.84 141.697 124.84 141.697C124.84 141.697 131.373 131.957 128.275 125.599C128.275 125.599 127.548 120.187 131.362 117.617C131.415 117.581 131.47 117.541 131.526 117.498L131.576 117.458L131.7 117.356L131.756 117.31L131.901 117.18L131.933 117.152C131.991 117.097 132.052 117.039 132.113 116.978L132.16 116.93L132.313 116.798L132.372 116.733L132.514 116.574L132.562 116.521L132.755 116.296L132.792 116.252L132.953 116.049L133.014 115.973L133.162 115.782L133.217 115.71L133.421 115.439L133.624 115.159L133.682 115.076L133.838 114.856L133.899 114.767L134.087 114.494L134.11 114.459L134.327 114.136L134.38 114.057L134.549 113.8L134.613 113.703L134.79 113.428L134.835 113.359L135.057 113.005L135.094 112.946L135.279 112.645L135.342 112.541L135.514 112.26L135.569 112.169L135.797 111.791L136.016 111.417L136.077 111.313L136.248 111.016L136.307 110.913L136.542 110.526V110.51L136.772 110.106L136.822 110.019L137.002 109.699L137.062 109.592L137.25 109.25L137.287 109.185L137.514 108.78L137.551 108.714L137.739 108.37L137.8 108.258L137.972 107.937L138.022 107.844L138.241 107.439L138.26 107.405L138.458 107.03L138.519 106.915L138.68 106.607L138.738 106.496L138.928 106.128L138.947 106.09L139.153 105.685L139.214 105.568L139.362 105.278L139.425 105.151L139.581 104.843L139.626 104.752L139.819 104.37L139.872 104.265L140.012 103.985L140.083 103.844L140.207 103.597L140.273 103.464L140.448 103.109L140.498 103.006L140.625 102.747L140.696 102.604L140.802 102.387L140.873 102.24L140.992 101.995L141.069 101.837L141.188 101.59L141.264 101.432L141.346 101.262L141.423 101.1L141.489 100.961L141.666 100.593L141.695 100.53L141.777 100.356L141.833 100.241L141.917 100.065L141.957 99.9817C142.715 98.3814 143.18 97.3516 143.18 97.3516C143.18 97.3516 146.616 106.551 146.088 109.391C145.559 112.232 149.354 122.785 149.354 122.785C149.354 122.785 147.176 133.337 148.448 135.907C149.719 138.476 146.632 148.082 146.632 148.082C146.632 148.082 146.867 148.181 147.266 148.333L147.242 148.594C147.044 150.706 146.613 154.764 146.088 156.334C145.361 158.499 145.725 160.799 151.532 160.528C157.338 160.257 157.52 157.552 157.52 157.552C157.52 157.552 155.604 152.822 155.369 150.032C155.369 149.941 155.369 149.852 155.353 149.765L155.517 149.719L155.565 149.704C155.631 149.682 155.694 149.66 155.755 149.636C155.813 149.611 155.866 149.587 155.921 149.561L155.969 149.537C156.015 149.512 156.06 149.487 156.104 149.46L156.135 149.439C156.188 149.406 156.238 149.371 156.286 149.334L156.32 149.308C156.357 149.277 156.394 149.245 156.429 149.213L156.466 149.176C156.508 149.134 156.55 149.089 156.59 149.041C158.585 146.613 158.768 141.464 158.768 141.464C158.768 141.464 162.761 124.148 161.31 121.84C159.859 119.531 160.583 114.13 160.583 114.13C160.583 114.13 158.95 106.013 160.766 102.09C162.124 99.1522 162.975 89.0082 162.935 84.1547C162.935 84.0535 162.935 83.9544 162.935 83.8573C162.935 83.8229 162.935 83.7885 162.935 83.7541C164.288 82.4674 165.314 80.2095 164.584 76.2523C164.542 76.0277 164.51 75.8011 164.479 75.5705C166.54 74.391 168.575 73.0051 168.575 73.0051L169.278 72.4508L169.503 72.2727C169.698 72.3355 169.904 72.3921 170.118 72.4427C170.911 72.7178 171.477 72.8716 171.477 72.8716C171.477 72.8716 181.823 66.3773 189.627 63.2657C197.431 60.1541 191.099 54.4448 191.099 54.4448ZM178.758 60.1258C178.758 60.1258 167.867 65.4102 165.877 68.1091C165.762 68.2602 165.673 68.422 165.612 68.5906L165.348 68.6756L165.015 68.7727C166.683 61.4894 171.146 54.3093 171.146 54.3093C171.146 54.3093 174.582 56.6096 176.96 57.5463C179.339 58.483 178.758 60.1278 178.758 60.1278V60.1258Z" fill="url(#paint0_linear)"/>
<path d="M112.157 158.586C103.795 160.609 101.033 159.347 100.138 158.131C99.9095 157.806 99.8565 157.425 99.9898 157.07C100.123 156.715 100.432 156.414 100.851 156.231C105.603 154.093 109.885 151.393 113.536 148.232C114.467 147.422 114.956 146.927 114.956 146.927C114.956 146.927 121.433 145.988 123.008 146.927C123.402 147.161 123.677 147.817 123.864 148.667C124.43 151.212 124.234 155.505 124.234 155.505C124.234 155.505 125.461 155.369 112.157 158.586Z" fill="#5B5877"/>
<path d="M156.97 156.709C156.97 156.709 156.796 159.389 151.193 159.656C145.591 159.923 145.242 157.645 145.942 155.503C146.45 153.949 146.864 149.929 147.055 147.835C147.126 147.04 147.166 146.524 147.166 146.524C147.166 146.524 155.919 145.854 155.044 147.738C154.872 148.236 154.821 148.755 154.896 149.267C155.123 152.025 156.97 156.709 156.97 156.709Z" fill="#5B5877"/>
<path opacity="0.1" d="M123.856 148.667L123.701 148.804C120.373 151.618 113.373 148.804 113.373 148.804L113.528 148.234C114.459 147.424 114.948 146.929 114.948 146.929C114.948 146.929 121.425 145.99 123 146.929C123.405 147.161 123.679 147.817 123.856 148.667Z" fill="black"/>
<path opacity="0.1" d="M155.041 147.73C154.869 148.228 154.819 148.747 154.893 149.259C152.605 149.866 148.551 148.43 147.052 147.843C147.124 147.048 147.163 146.532 147.163 146.532C147.163 146.532 155.921 145.854 155.041 147.73Z" fill="black"/>
<path d="M160.647 121.33C162.047 123.608 158.197 140.752 158.197 140.752C158.197 140.752 158.022 145.844 156.096 148.256C154.169 150.667 146.468 147.317 146.468 147.317C146.468 147.317 149.444 137.808 148.218 135.255C146.991 132.702 149.092 122.261 149.092 122.261C149.092 122.261 145.416 111.807 145.942 108.993C146.468 106.179 143.141 97.0562 143.141 97.0562C143.141 97.0562 135.437 114.613 131.761 117.158C128.085 119.703 128.785 125.065 128.785 125.065C131.761 131.363 125.458 141.013 125.458 141.013C125.458 141.013 127.044 145.703 123.708 148.517C120.373 151.331 113.38 148.517 113.38 148.517L115.664 140.226L117.25 122.536C117.25 122.536 118.124 117.577 118.835 108.732C119.546 99.8866 124.086 89.9692 124.086 89.9692L124.848 85.8864L125.487 82.4633C125.487 82.4633 161.025 81.5246 161.899 81.391C162.119 81.3566 162.23 82.3803 162.24 83.9928C162.28 88.8018 161.447 98.8487 160.147 101.76C158.398 105.646 159.973 113.697 159.973 113.697C159.973 113.697 159.246 119.052 160.647 121.33Z" fill="#5F5D7E"/>
<g opacity="0.05">
<path opacity="0.05" d="M141.217 97.0724C141.217 97.0724 133.513 114.629 129.837 117.174C126.161 119.719 126.861 125.081 126.861 125.081C129.837 131.379 123.534 141.029 123.534 141.029C123.534 141.029 125.12 145.719 121.784 148.533C120.941 149.229 119.79 149.662 118.555 149.747C120.405 149.895 122.358 149.68 123.708 148.533C127.036 145.719 125.458 141.029 125.458 141.029C125.458 141.029 131.761 131.381 128.785 125.081C128.785 125.081 128.085 119.719 131.761 117.174C134.586 115.218 139.784 104.406 142.044 99.4982C141.579 98.0658 141.217 97.0724 141.217 97.0724Z" fill="black"/>
<path opacity="0.05" d="M159.946 113.691C159.946 113.691 158.361 105.651 160.121 101.754C161.442 98.8427 162.251 88.7957 162.214 83.9867C162.214 82.3682 162.092 81.3566 161.873 81.385C161.764 81.4012 161.112 81.4315 160.057 81.4699C160.205 81.7451 160.279 82.6676 160.29 83.9888C160.329 88.7978 159.497 98.8447 158.197 101.756C156.447 105.642 158.022 113.693 158.022 113.693C158.022 113.693 157.322 119.054 158.723 121.332C160.123 123.61 156.273 140.754 156.273 140.754C156.273 140.754 156.098 145.846 154.172 148.258C153.994 148.472 153.759 148.655 153.482 148.795C153.205 148.935 152.892 149.027 152.565 149.067C154.063 149.237 155.427 149.096 156.096 148.258C158.022 145.846 158.197 140.754 158.197 140.754C158.197 140.754 162.047 123.6 160.647 121.332C159.246 119.064 159.946 113.691 159.946 113.691Z" fill="black"/>
</g>
<path d="M155.395 35.4273L154.169 44.673C154.169 44.673 134.737 47.8898 136.838 42.662C137.832 40.1877 137.895 37.5313 137.665 35.4212C137.604 34.8507 137.528 34.3206 137.44 33.8452C137.298 33.024 137.097 32.2095 136.838 31.4053C136.838 31.4053 151.902 22.6936 151.193 28.5911C151.031 29.7056 151.125 30.8334 151.471 31.9232C151.691 32.5904 152.067 33.2216 152.581 33.7865C153.82 35.1258 155.395 35.4273 155.395 35.4273Z" fill="#FDC2CC"/>
<path opacity="0.1" d="M151.473 31.9252C151.333 32.0709 151.185 32.2145 151.035 32.3521C149.402 33.8336 147.116 34.8045 144.609 35.0805C142.103 35.3565 139.552 34.9183 137.44 33.8492C137.298 33.028 137.097 32.2135 136.838 31.4093C136.838 31.4093 151.901 22.6976 151.193 28.5951C151.032 29.7091 151.127 30.8362 151.473 31.9252Z" fill="black"/>
<path d="M153.469 26.8491C153.469 28.9461 152.381 30.9571 150.444 32.4398C148.507 33.9226 145.88 34.7556 143.141 34.7556C140.402 34.7556 137.775 33.9226 135.838 32.4398C133.901 30.9571 132.813 28.9461 132.813 26.8491C132.813 26.748 132.813 26.6468 132.813 26.5457C132.919 24.4777 134.079 22.5239 136.046 21.1039C138.013 19.6838 140.628 18.9106 143.331 18.9504C146.034 18.9901 148.609 19.8395 150.503 21.3163C152.397 22.7932 153.459 24.7796 153.461 26.8491H153.469Z" fill="#FDC2CC"/>
<path opacity="0.1" d="M162.214 83.9968C161.328 84.9063 160.01 85.5118 158.546 85.6821L150.501 87.8368H150.482L148.043 88.4902L147.02 86.5642L145.768 84.2012V88.4902C145.768 88.4902 130.397 89.2995 124.821 85.8824L125.461 82.4593C125.461 82.4593 160.998 81.5205 161.873 81.387C162.092 81.3607 162.203 82.3824 162.214 83.9968Z" fill="black"/>
<path opacity="0.1" d="M155.395 35.4273L154.169 44.673C154.169 44.673 134.737 47.8898 136.838 42.662C137.832 40.1877 137.895 37.5313 137.665 35.4212C138.001 35.9593 140.472 39.7669 143.667 40.4285C144.064 40.5137 144.479 40.5439 144.89 40.5175C145.57 40.4558 146.218 40.2637 146.775 39.9591C149.65 38.4964 152.06 34.6463 152.589 33.7885C153.82 35.1258 155.395 35.4273 155.395 35.4273Z" fill="black"/>
<path d="M187.957 63.3021C180.43 66.3854 170.451 72.8109 170.451 72.8109C170.451 72.8109 163.099 70.7999 165.026 68.1212C166.952 65.4426 177.447 60.2148 177.447 60.2148C177.447 60.2148 177.975 58.6064 175.697 57.6677C173.419 56.7289 170.095 54.4509 170.095 54.4509C170.095 54.4509 162.216 67.4496 163.791 76.1612C165.367 84.8729 158.54 85.2654 158.54 85.2654L150.496 87.42H150.477L148.038 88.0735L147.015 86.1474L145.762 83.7844V88.0735C145.762 88.0735 127.905 89.0122 123.706 84.5896C123.706 84.5896 127.556 72.7967 126.507 68.2406C125.458 63.6845 124.232 40.7683 124.232 40.7683L137.623 35.6093C137.623 35.6093 140.242 39.9854 143.677 40.6996C144.075 40.7848 144.489 40.815 144.901 40.7886C145.58 40.7269 146.229 40.5349 146.785 40.2302C150.028 38.5813 152.692 33.8876 152.692 33.8876C152.692 33.8876 158.731 36.7403 164.635 37.6203C166.356 37.8687 167.934 38.5189 169.154 39.4816C169.793 39.9935 170.544 40.5822 171.337 41.1912C173.612 42.9331 189.368 54.5925 189.368 54.5925C189.368 54.5925 195.476 60.2188 187.957 63.3021Z" fill="#D39999"/>
<path d="M170.634 70.5389L168.334 72.4022L167.658 72.9525C167.658 72.9525 161.532 77.2416 159.954 77.106C158.376 76.9705 155.752 68.797 158.897 69.3331C160.81 69.6588 163.049 69.145 164.508 68.6897C165.043 68.5257 165.565 68.3379 166.072 68.1273L170.634 70.5389Z" fill="#FDC2CC"/>
<path opacity="0.1" d="M153.469 26.8491C153.473 28.7167 152.609 30.5245 151.032 31.9495C150.763 31.9694 150.491 31.9326 150.246 31.8431C150.002 31.7537 149.794 31.6149 149.645 31.4417C149.354 31.0512 149.476 30.5616 149.283 30.1408C149.09 29.72 148.651 29.4307 148.374 29.0564C147.671 28.1136 147.967 26.6853 146.68 26.1795C146.088 25.9488 145.371 26.0257 144.711 26.1107C143.413 26.2746 142.108 26.6003 140.828 26.7358C139.37 26.8936 138.056 26.1673 136.616 26.1512C135.331 26.135 134.042 26.7116 132.823 26.5457C132.929 24.4777 134.09 22.5239 136.057 21.1039C138.023 19.6838 140.639 18.9106 143.342 18.9504C146.045 18.9901 148.62 19.8395 150.513 21.3163C152.407 22.7932 153.469 24.7796 153.472 26.8491H153.469Z" fill="black"/>
<path d="M144.711 25.5745C145.371 25.4916 146.087 25.4127 146.679 25.6454C147.967 26.1491 147.671 27.5775 148.374 28.5202C148.651 28.8945 149.1 29.2 149.285 29.6046C149.47 30.0093 149.357 30.5151 149.647 30.9055C150.068 31.47 151.207 31.5529 151.954 31.2171C152.702 30.8812 153.12 30.2642 153.403 29.6532C153.651 29.115 153.86 28.5202 154.46 28.1682C154.678 28.0732 154.873 27.9507 155.039 27.8061C155.163 27.6145 155.21 27.3992 155.176 27.187C155.176 25.8193 154.899 24.7592 155.303 23.4341C155.95 21.2976 156.542 18.623 154.492 17.0389C153.442 16.2379 152.091 15.7087 150.628 15.5256C149.306 15.3597 147.361 16.7718 146.024 16.7395C142.623 16.6363 139.753 14.2247 136.51 15.0036C135.092 15.3446 133.863 16.0372 133.016 16.9721C131.431 18.7606 131.573 21.071 131.803 23.2054C131.8 23.3675 131.862 23.5264 131.98 23.6606C132.099 23.7699 132.292 23.8286 132.408 23.9398C132.534 24.0868 132.581 24.2648 132.541 24.4375C132.505 24.7852 132.399 25.1265 132.226 25.4491C132.183 25.503 132.156 25.5639 132.147 25.627C132.139 25.6901 132.15 25.7538 132.179 25.8133C132.244 25.8809 132.337 25.9294 132.443 25.9508C133.764 26.315 135.191 25.613 136.605 25.6312C138.019 25.6494 139.362 26.3737 140.82 26.2159C142.107 26.0641 143.413 25.7384 144.711 25.5745Z" fill="#865A61"/>
<path opacity="0.05" d="M150.504 87.4342H150.485L147.956 88.1544L147.02 86.1616L143.056 77.7008L143.677 40.6996C144.075 40.7848 144.489 40.815 144.901 40.7886C145.58 40.7269 146.228 40.5348 146.785 40.2302L146.035 76.6468L150.504 87.4342Z" fill="black"/>
<path d="M145.593 42.5305C145.884 42.5305 146.119 42.3503 146.119 42.1279C146.119 41.9055 145.884 41.7253 145.593 41.7253C145.303 41.7253 145.067 41.9055 145.067 42.1279C145.067 42.3503 145.303 42.5305 145.593 42.5305Z" fill="white"/>
<path d="M144.542 56.1989C144.832 56.1989 145.067 56.0186 145.067 55.7963C145.067 55.5739 144.832 55.3936 144.542 55.3936C144.251 55.3936 144.016 55.5739 144.016 55.7963C144.016 56.0186 144.251 56.1989 144.542 56.1989Z" fill="white"/>
<path d="M143.667 70.4054C143.957 70.4054 144.193 70.2251 144.193 70.0028C144.193 69.7804 143.957 69.6002 143.667 69.6002C143.376 69.6002 143.141 69.7804 143.141 70.0028C143.141 70.2251 143.376 70.4054 143.667 70.4054Z" fill="white"/>
<path d="M144.719 77.5066C145.009 77.5066 145.244 77.3263 145.244 77.104C145.244 76.8816 145.009 76.7014 144.719 76.7014C144.428 76.7014 144.193 76.8816 144.193 77.104C144.193 77.3263 144.428 77.5066 144.719 77.5066Z" fill="white"/>
<path opacity="0.05" d="M162.75 57.4047H151.545V48.8286L157.148 47.6207L162.75 48.8286V57.4047Z" fill="black"/>
<path d="M145.067 48.8286C145.358 48.8286 145.593 48.6483 145.593 48.4259C145.593 48.2036 145.358 48.0233 145.067 48.0233C144.777 48.0233 144.542 48.2036 144.542 48.4259C144.542 48.6483 144.777 48.8286 145.067 48.8286Z" fill="white"/>
<path d="M157.496 49.2312C157.787 49.2312 158.022 49.0509 158.022 48.8286C158.022 48.6062 157.787 48.4259 157.496 48.4259C157.206 48.4259 156.97 48.6062 156.97 48.8286C156.97 49.0509 157.206 49.2312 157.496 49.2312Z" fill="white"/>
<path d="M144.018 63.5692C144.309 63.5692 144.544 63.3889 144.544 63.1666C144.544 62.9442 144.309 62.764 144.018 62.764C143.728 62.764 143.492 62.9442 143.492 63.1666C143.492 63.3889 143.728 63.5692 144.018 63.5692Z" fill="white"/>
<path d="M126.687 39.8498C126.687 39.8498 121.784 40.386 120.209 47.2201C118.634 54.0543 117.059 63.5692 117.059 63.5692C117.059 63.5692 114.432 72.4143 127.556 70.2658L128.257 67.1825C128.257 67.1825 126.935 70.7331 127.295 63.6319C127.654 56.5306 127.733 51.8976 127.733 51.8976L126.687 39.8498Z" fill="#D39999"/>
<path opacity="0.05" d="M126.687 39.8498C126.687 39.8498 121.784 40.386 120.209 47.2201C118.634 54.0543 117.059 63.5692 117.059 63.5692C117.059 63.5692 114.432 72.4143 127.556 70.2658L128.257 67.1825C128.257 67.1825 126.243 70.5996 126.594 63.4963C126.946 56.3931 127.733 51.9037 127.733 51.9037L126.687 39.8498Z" fill="black"/>
<path opacity="0.1" d="M170.634 70.5389L168.335 72.4022C165.065 71.3906 164.431 68.7383 164.431 68.7383L164.516 68.6897C165.051 68.5257 165.573 68.3379 166.08 68.1273L170.634 70.5389Z" fill="black"/>
<path d="M167.388 67.1218L164.775 68.6048C164.775 68.6048 165.639 72.2141 170.539 72.6167L172.64 69.8025L167.388 67.1218Z" fill="#D39999"/>
<path d="M92.2991 47.6996L114.467 32.5645L124.612 41.6019L142.023 40.914L147.301 49.2696L130.725 65.8432L122.961 56.8139L104.493 58.0237L92.2991 47.6996Z" fill="#F2F5FB"/>
<path d="M145.464 49.2898L139.631 55.0902L133.407 61.281L130.532 64.1437L123.88 56.2211L116.903 56.6905L105.545 57.4532L97.0824 50.2893L94.1727 47.8271L105.978 39.7669L114.847 33.7136L119.417 37.7842L124.306 42.14L129.19 41.9478L140.543 41.4987L144.975 48.515L145.464 49.2898Z" fill="#DDE0ED"/>
<path d="M108.795 43.1901L97.0824 50.2893L94.1727 47.8271L105.978 39.7669L108.795 43.1901Z" fill="#ABB1D1"/>
<path d="M122.157 48.4199L121.235 43.971L115.072 38.4336L119.417 37.7842L124.306 42.14L129.19 41.9478L130.981 47.2465L122.279 49.0005L122.157 48.4199Z" fill="#ABB1D1"/>
<path d="M145.464 49.2898L139.631 55.0902L136.603 51.5942L144.975 48.515L145.464 49.2898Z" fill="#ABB1D1"/>
<path d="M133.407 61.281L130.532 64.1437L123.88 56.2211L116.903 56.6905L115.637 49.9919L122.157 48.4199L122.939 52.9962L127.35 53.5202L133.407 61.281Z" fill="#ABB1D1"/>
<path d="M120.918 50.2367C120.887 50.2414 120.854 50.2395 120.825 50.2314C120.795 50.2232 120.768 50.2089 120.748 50.1901C119.937 49.4288 118.944 48.7923 117.823 48.3147C117.782 48.2975 117.752 48.2687 117.739 48.2345C117.726 48.2004 117.732 48.1637 117.754 48.1326C117.777 48.1015 117.814 48.0784 117.859 48.0686C117.904 48.0587 117.951 48.0628 117.992 48.08C119.152 48.5742 120.179 49.2326 121.018 50.0202C121.037 50.0381 121.05 50.0596 121.056 50.0826C121.061 50.1056 121.058 50.1291 121.048 50.151C121.037 50.1729 121.019 50.1923 120.996 50.2073C120.973 50.2224 120.945 50.2325 120.915 50.2367H120.918Z" fill="#D7666F"/>
<path d="M118.835 50.6089C118.802 50.6142 118.767 50.6118 118.735 50.602C118.703 50.5922 118.676 50.5755 118.657 50.5539C118.637 50.5324 118.626 50.5069 118.626 50.4807C118.625 50.4545 118.635 50.4287 118.653 50.4066L120.92 47.5398C120.945 47.5095 120.983 47.4878 121.029 47.4794C121.074 47.4711 121.121 47.4768 121.161 47.4953C121.2 47.5138 121.229 47.5436 121.24 47.5781C121.251 47.6127 121.243 47.6491 121.219 47.6794L118.951 50.5462C118.939 50.5623 118.922 50.5762 118.902 50.587C118.882 50.5979 118.859 50.6053 118.835 50.6089Z" fill="#D7666F"/>
<path opacity="0.1" d="M105.55 57.2752L124.266 42.1097L140.509 41.5048L123.925 56.1685L105.55 57.2752Z" fill="white"/>
<path d="M121.784 64.6333C121.784 64.6333 126.161 56.4133 128.262 57.2671C130.363 58.1208 136.489 63.2455 132.289 65.4871C128.09 67.7288 125.112 68.797 125.112 68.797L121.784 68.4773V64.6333Z" fill="#FDC2CC"/>
<path d="M119.422 64.7082C119.422 64.7082 123.436 62.2966 126.679 69.6002L123.621 69.936L120.12 68.3276L119.422 64.7082Z" fill="#D39999"/>
<path opacity="0.05" d="M119.422 64.7082C119.422 64.7082 123.436 62.2966 126.679 69.6002L123.621 69.936L120.12 68.3276L119.422 64.7082Z" fill="black"/>
</g>
<defs>
<linearGradient id="paint0_linear" x1="142.004" y1="160.528" x2="142.004" y2="14.3198" gradientUnits="userSpaceOnUse">
<stop stop-color="#808080" stop-opacity="0.25"/>
<stop offset="0.54" stop-color="#808080" stop-opacity="0.12"/>
<stop offset="1" stop-color="#808080" stop-opacity="0.1"/>
</linearGradient>
<clipPath id="clip0">
<rect width="290" height="164" fill="white"/>
</clipPath>
</defs>
</svg>
