<svg width="272" height="250" viewBox="0 0 272 250" fill="none" xmlns="http://www.w3.org/2000/svg">
<g clip-path="url(#clip0)">
<path opacity="0.1" d="M198.997 0.330212C186.237 -0.344131 173.257 -0.231245 160.936 3.09294C148.614 6.41712 136.896 13.2586 129.884 23.751C125.869 29.7577 123.473 36.7923 118.797 42.3177C110.686 51.8981 97.4291 55.1896 85.1946 58.493C56.4632 66.2168 27.5714 77.3776 6.73075 98.2852C3.73875 101.283 0.82291 104.702 0.14563 108.846C-0.89341 115.218 3.68163 121.18 8.75715 125.259C13.8327 129.338 19.8384 132.573 23.5947 137.863C28.3847 144.61 28.6539 153.525 27.2939 161.629C25.9339 169.733 23.1351 177.617 22.3979 185.81C22.2157 187.83 22.1722 189.936 22.9746 191.805C24.0381 194.283 26.4018 195.964 28.7192 197.378C36.9354 202.415 45.8011 206.067 55.0162 208.212C70.8928 211.928 87.4495 211.23 103.704 212.757C119.959 214.284 136.888 218.556 148.312 230.005C155.319 237.025 161.64 247.264 171.631 246.917C177.229 246.724 182.173 242.987 187.758 242.571C194.044 242.101 199.726 245.839 205.652 247.969C214.071 250.999 223.819 250.705 231.713 246.528C239.606 242.351 245.337 234.17 245.8 225.377C246.251 216.762 241.975 208.702 239.506 200.423C231.405 173.298 242.8 144.634 254.128 118.646C265.457 92.6587 277.148 64.2086 269.611 36.9259C260.86 5.28233 226.966 1.80961 198.997 0.330212Z" fill="#00BFA6"/>
<path d="M64.415 160.087C64.415 160.087 54.9875 154.442 52.194 145.777C51.0434 142.136 48.8425 139.002 45.9217 136.844C44.5278 135.831 43.052 134.96 41.5126 134.242" stroke="#535461" stroke-width="2" stroke-miterlimit="10"/>
<path d="M39.7121 128.797C40.6042 129.777 41.5644 134.378 41.5644 134.378C41.5644 134.378 37.3566 133.3 36.4644 132.323C36.051 131.849 35.8241 131.217 35.8321 130.563C35.8402 129.909 36.0826 129.284 36.5075 128.823C36.9323 128.362 37.5058 128.101 38.1048 128.096C38.7039 128.091 39.2809 128.342 39.7121 128.797Z" fill="#00BFA6"/>
<path d="M47.3444 131.307C47.6164 132.658 46.1204 137.091 46.1204 137.091C46.1204 137.091 43.1284 133.689 42.8564 132.338C42.7837 132.012 42.7716 131.674 42.8209 131.343C42.8702 131.012 42.9798 130.696 43.1433 130.412C43.3068 130.128 43.5208 129.884 43.7726 129.692C44.0245 129.501 44.309 129.366 44.6092 129.297C44.9095 129.228 45.2194 129.226 45.5206 129.29C45.8217 129.354 46.108 129.484 46.3624 129.671C46.6167 129.859 46.834 130.1 47.0013 130.381C47.1686 130.662 47.2825 130.977 47.3362 131.307H47.3444Z" fill="#00BFA6"/>
<path d="M55.6621 140.703C55.2623 142.013 51.933 145.022 51.933 145.022C51.933 145.022 50.9184 140.433 51.3183 139.123C51.5102 138.492 51.9235 137.971 52.4672 137.674C53.011 137.376 53.6407 137.327 54.2178 137.536C54.7949 137.746 55.2722 138.197 55.5446 138.791C55.8169 139.385 55.8622 140.073 55.6703 140.703H55.6621Z" fill="#00BFA6"/>
<path d="M60.4928 149.36C60.3024 150.723 57.4845 154.306 57.4845 154.306C57.4845 154.306 55.7763 149.971 55.9667 148.605C56.0739 147.965 56.4052 147.396 56.8903 147.018C57.3755 146.64 57.9763 146.484 58.5652 146.582C59.1541 146.68 59.6849 147.025 60.0448 147.544C60.4047 148.062 60.5654 148.714 60.4928 149.36Z" fill="#00BFA6"/>
<path d="M42.8835 140.982C44.1483 140.967 47.7795 138.421 47.7795 138.421C47.7795 138.421 44.0884 135.968 42.8236 135.983C42.2297 136.011 41.6692 136.291 41.2606 136.762C40.8519 137.234 40.6272 137.86 40.6339 138.51C40.6406 139.159 40.8782 139.78 41.2965 140.241C41.7148 140.703 42.2809 140.968 42.8753 140.982H42.8835Z" fill="#00BFA6"/>
<path d="M48.6499 151.029C49.8522 150.601 52.6266 146.983 52.6266 146.983C52.6266 146.983 48.4323 145.848 47.2301 146.276C46.6723 146.498 46.2154 146.948 45.9556 147.531C45.6959 148.115 45.6536 148.785 45.8378 149.402C46.022 150.018 46.4181 150.532 46.9427 150.836C47.4674 151.14 48.0795 151.209 48.6499 151.029Z" fill="#00BFA6"/>
<path d="M55.488 159.956C56.7392 159.757 60.0331 156.688 60.0331 156.688C60.0331 156.688 56.0728 154.796 54.8216 154.995C54.5233 155.043 54.2366 155.154 53.9778 155.323C53.719 155.492 53.4931 155.715 53.3132 155.979C53.1332 156.243 53.0027 156.543 52.9289 156.862C52.8552 157.182 52.8398 157.514 52.8836 157.839C52.9273 158.165 53.0294 158.478 53.184 158.761C53.3385 159.044 53.5426 159.29 53.7844 159.487C54.0262 159.683 54.3012 159.826 54.5934 159.906C54.8857 159.987 55.1897 160.004 55.488 159.956Z" fill="#00BFA6"/>
<path d="M71.827 135.807C71.827 135.807 65.299 126.471 65.96 117.318C66.2583 113.481 65.4088 109.642 63.5392 106.377C62.6405 104.835 61.6144 103.386 60.4738 102.049" stroke="#535461" stroke-width="2" stroke-miterlimit="10"/>
<path d="M60.8545 96.2736C61.306 97.5628 60.4791 102.197 60.4791 102.197C60.4791 102.197 57.0302 99.3512 56.5787 98.0619C56.457 97.7522 56.3939 97.4188 56.3932 97.0818C56.3925 96.7448 56.4541 96.4111 56.5744 96.1007C56.6947 95.7903 56.8712 95.5097 57.0933 95.2757C57.3154 95.0417 57.5785 94.8592 57.8668 94.739C58.1551 94.6188 58.4626 94.5635 58.771 94.5764C59.0793 94.5893 59.3821 94.6701 59.6612 94.814C59.9402 94.9578 60.1898 95.1618 60.3948 95.4137C60.5999 95.6655 60.7563 95.96 60.8545 96.2795V96.2736Z" fill="#00BFA6"/>
<path d="M66.893 101.942C66.621 103.293 63.629 106.695 63.629 106.695C63.629 106.695 62.152 102.259 62.4132 100.908C62.4715 100.582 62.5886 100.272 62.7576 99.9965C62.9267 99.7207 63.1443 99.4844 63.3978 99.3014C63.6513 99.1184 63.9356 98.9923 64.2342 98.9305C64.5328 98.8686 64.8396 98.8723 65.1369 98.9413C65.4341 99.0103 65.7158 99.1432 65.9656 99.3323C66.2153 99.5214 66.4281 99.7628 66.5916 100.043C66.755 100.322 66.8658 100.635 66.9176 100.962C66.9693 101.289 66.961 101.624 66.893 101.948V101.942Z" fill="#00BFA6"/>
<path d="M71.0137 114.213C70.1623 115.235 66.0007 116.513 66.0007 116.513C66.0007 116.513 66.7759 111.87 67.6327 110.848C67.8324 110.594 68.0766 110.387 68.3508 110.239C68.625 110.09 68.9236 110.003 69.2291 109.983C69.5346 109.963 69.8407 110.01 70.1294 110.121C70.4181 110.232 70.6834 110.405 70.9098 110.63C71.1361 110.855 71.3189 111.127 71.4473 111.43C71.5757 111.734 71.6471 112.062 71.6573 112.396C71.6675 112.73 71.6162 113.063 71.5066 113.376C71.397 113.688 71.2313 113.973 71.0191 114.213H71.0137Z" fill="#00BFA6"/>
<path d="M72.2187 124.266C71.5387 125.431 67.6355 127.457 67.6355 127.457C67.6355 127.457 67.6817 122.736 68.3617 121.572C68.6996 121.041 69.2126 120.674 69.7931 120.547C70.3736 120.42 70.9765 120.544 71.4753 120.892C71.9742 121.24 72.3302 121.785 72.4688 122.414C72.6074 123.043 72.5178 123.705 72.2187 124.263V124.266Z" fill="#00BFA6"/>
<path d="M59.228 108.816C60.3895 109.359 64.668 108.643 64.668 108.643C64.668 108.643 62.201 104.767 61.0395 104.223C60.4848 103.981 59.8652 103.985 59.313 104.234C58.7609 104.484 58.3199 104.959 58.0842 105.559C57.8485 106.159 57.8368 106.835 58.0515 107.444C58.2662 108.053 58.6904 108.547 59.2335 108.819L59.228 108.816Z" fill="#00BFA6"/>
<path d="M60.773 120.544C62.0296 120.684 65.9111 118.604 65.9111 118.604C65.9111 118.604 62.4948 115.711 61.2381 115.571C60.6474 115.531 60.0652 115.741 59.6137 116.159C59.1622 116.577 58.8765 117.17 58.8163 117.813C58.7562 118.456 58.9263 119.1 59.2911 119.609C59.6559 120.118 60.187 120.453 60.773 120.544Z" fill="#00BFA6"/>
<path d="M63.7078 131.735C64.9264 132.106 69.0717 130.769 69.0717 130.769C69.0717 130.769 66.1531 127.287 64.9345 126.907C64.6424 126.81 64.3355 126.778 64.0318 126.813C63.7282 126.847 63.4339 126.948 63.1664 127.108C62.8988 127.269 62.6633 127.486 62.4738 127.748C62.2843 128.009 62.1445 128.309 62.0627 128.631C61.9809 128.952 61.9588 129.288 61.9976 129.618C62.0363 129.949 62.1353 130.268 62.2886 130.556C62.4418 130.845 62.6463 131.097 62.8901 131.298C63.1338 131.498 63.4118 131.644 63.7078 131.726V131.735Z" fill="#00BFA6"/>
<path d="M192.244 148.026C192.244 148.026 190.925 136.369 195.72 128.829C197.75 125.68 198.789 121.898 198.682 118.049C198.619 116.222 198.402 114.405 198.035 112.621" stroke="#535461" stroke-width="2" stroke-miterlimit="10"/>
<path d="M201.03 107.847C200.823 109.211 197.97 112.755 197.97 112.755C197.97 112.755 196.308 108.397 196.515 107.036C196.627 106.396 196.964 105.828 197.454 105.455C197.944 105.082 198.548 104.932 199.137 105.039C199.726 105.145 200.254 105.498 200.608 106.023C200.962 106.549 201.115 107.204 201.033 107.85L201.03 107.847Z" fill="#00BFA6"/>
<path d="M203.625 116.064C202.773 117.086 198.614 118.366 198.614 118.366C198.614 118.366 199.387 113.723 200.246 112.701C200.661 112.241 201.224 111.973 201.815 111.955C202.407 111.937 202.982 112.17 203.42 112.605C203.857 113.04 204.124 113.643 204.164 114.288C204.204 114.933 204.013 115.569 203.633 116.064H203.625Z" fill="#00BFA6"/>
<path d="M201.514 128.933C200.306 129.346 196.126 128.158 196.126 128.158C196.126 128.158 198.941 124.575 200.146 124.162C200.715 124.001 201.32 124.086 201.834 124.398C202.348 124.71 202.732 125.227 202.907 125.84C203.082 126.454 203.034 127.117 202.773 127.693C202.512 128.269 202.058 128.713 201.506 128.933H201.514Z" fill="#00BFA6"/>
<path d="M197.91 138.276C196.784 138.906 192.47 138.505 192.47 138.505C192.47 138.505 194.689 134.453 195.816 133.823C196.083 133.673 196.376 133.583 196.676 133.557C196.976 133.53 197.277 133.569 197.564 133.67C197.85 133.771 198.115 133.933 198.344 134.146C198.573 134.359 198.762 134.619 198.899 134.912C199.036 135.204 199.119 135.523 199.143 135.851C199.167 136.179 199.131 136.508 199.039 136.821C198.946 137.133 198.798 137.423 198.603 137.673C198.408 137.924 198.17 138.129 197.902 138.279L197.91 138.276Z" fill="#00BFA6"/>
<path d="M193.833 117.778C194.583 118.889 198.604 120.624 198.604 120.624C198.604 120.624 198.266 115.919 197.516 114.808C197.148 114.296 196.612 113.961 196.021 113.874C195.431 113.787 194.833 113.955 194.354 114.341C193.875 114.728 193.553 115.303 193.455 115.944C193.358 116.586 193.493 117.244 193.833 117.778Z" fill="#00BFA6"/>
<path d="M189.745 128.761C190.765 129.575 195.076 129.916 195.076 129.916C195.076 129.916 193.463 125.538 192.443 124.724C191.951 124.355 191.348 124.21 190.76 124.319C190.172 124.429 189.646 124.785 189.295 125.311C188.943 125.837 188.794 126.492 188.878 127.137C188.962 127.782 189.273 128.366 189.745 128.764V128.761Z" fill="#00BFA6"/>
<path d="M187.111 140.035C187.993 141.027 192.187 142.156 192.187 142.156C192.187 142.156 191.276 137.542 190.394 136.55C190.188 136.302 189.938 136.102 189.659 135.961C189.38 135.821 189.078 135.743 188.772 135.732C188.465 135.722 188.159 135.779 187.873 135.9C187.586 136.021 187.325 136.204 187.105 136.437C186.885 136.671 186.709 136.95 186.59 137.259C186.47 137.568 186.409 137.9 186.409 138.235C186.41 138.571 186.472 138.902 186.592 139.211C186.712 139.52 186.888 139.799 187.109 140.032L187.111 140.035Z" fill="#00BFA6"/>
<path d="M128.34 53.175L53.7607 129.067V240.818H202.917V129.067L128.34 53.175Z" fill="url(#paint0_linear)"/>
<path d="M201.321 238.81H55.3574V129.45L128.34 55.1832L201.321 129.45V238.81Z" fill="#E8EAF1"/>
<path opacity="0.1" d="M200.761 129.518H55.4581V238.652H200.761V129.518Z" fill="black"/>
<path d="M157.232 42.3766H172.328C174.108 42.3766 175.552 40.8006 175.552 38.8564V22.3692C175.552 20.425 174.108 18.8489 172.328 18.8489L157.232 18.8489C155.452 18.8489 154.009 20.425 154.009 22.3692V38.8564C154.009 40.8006 155.452 42.3766 157.232 42.3766Z" fill="#00BFA6"/>
<path d="M134.384 71.4892H149.48C151.26 71.4892 152.703 69.9132 152.703 67.969V51.4818C152.703 49.5376 151.26 47.9615 149.48 47.9615H134.384C132.604 47.9615 131.161 49.5376 131.161 51.4818V67.969C131.161 69.9132 132.604 71.4892 134.384 71.4892Z" fill="#00BFA6"/>
<path d="M193.136 30.494L208.232 30.494C210.012 30.494 211.456 28.9179 211.456 26.9737V10.4865C211.456 8.5423 210.012 6.96623 208.232 6.96623L193.136 6.96623C191.356 6.96623 189.913 8.5423 189.913 10.4865V26.9737C189.913 28.9179 191.356 30.494 193.136 30.494Z" fill="#00BFA6"/>
<path opacity="0.5" d="M107.698 157.303H102.672V152.312C102.672 151.379 102.332 150.483 101.728 149.823C101.123 149.163 100.303 148.792 99.4486 148.792H84.3526C83.4978 148.792 82.6779 149.163 82.0735 149.823C81.469 150.483 81.1294 151.379 81.1294 152.312V168.8C81.1294 169.733 81.469 170.629 82.0735 171.289C82.6779 171.949 83.4978 172.32 84.3526 172.32H89.3792V177.311C89.3792 178.244 89.7187 179.14 90.3232 179.8C90.9277 180.46 91.7475 180.831 92.6024 180.831H107.698C108.553 180.831 109.373 180.46 109.978 179.8C110.582 179.14 110.922 178.244 110.922 177.311V160.823C110.922 160.361 110.838 159.903 110.676 159.476C110.514 159.049 110.277 158.661 109.978 158.334C109.678 158.007 109.323 157.748 108.932 157.571C108.541 157.394 108.122 157.303 107.698 157.303Z" fill="#00BFA6"/>
<path opacity="0.5" d="M172.328 146.288H157.232C156.809 146.288 156.39 146.379 155.999 146.556C155.608 146.733 155.253 146.992 154.953 147.319C154.654 147.646 154.416 148.034 154.255 148.461C154.093 148.888 154.009 149.346 154.009 149.808V157.55H146.461C145.606 157.55 144.786 157.921 144.182 158.581C143.578 159.241 143.238 160.136 143.238 161.07V169.064H136.147C135.292 169.064 134.472 169.435 133.868 170.095C133.263 170.755 132.924 171.651 132.924 172.584V189.072C132.924 190.005 133.263 190.901 133.868 191.561C134.472 192.221 135.292 192.592 136.147 192.592H151.232C152.087 192.592 152.907 192.221 153.511 191.561C154.116 190.901 154.455 190.005 154.455 189.072V181.08H161.568C162.423 181.08 163.243 180.71 163.847 180.049C164.452 179.389 164.791 178.494 164.791 177.56V169.819H172.339C173.193 169.815 174.011 169.442 174.613 168.781C175.216 168.12 175.553 167.225 175.552 166.292V149.805C175.551 148.872 175.211 147.977 174.607 147.318C174.002 146.658 173.183 146.288 172.328 146.288Z" fill="#00BFA6"/>
<path d="M96.3533 122.309C96.5244 122.744 96.7768 123.136 97.0943 123.459C97.4118 123.783 97.7875 124.03 98.1974 124.186C98.5619 124.314 98.9482 124.358 99.3208 124.462C101.097 124.944 102.354 126.619 103.969 127.546C104.099 127.634 104.247 127.684 104.399 127.691H104.453C104.487 127.695 104.521 127.695 104.554 127.691C104.721 127.672 104.879 127.6 105.008 127.483L105.082 127.424C105.257 128.21 105.284 129.027 105.161 129.824C104.519 129.824 100.349 130.104 100.92 135.469C101.538 141.291 107.72 149.431 107.72 149.431C107.72 149.431 112.045 154.255 110.655 170.722L110.5 178.707C110.5 178.707 112.162 178.434 114.281 178.16C114.33 178.267 114.38 178.372 114.43 178.475C115.035 179.629 115.806 180.669 116.712 181.556L120.224 190.699C120.224 190.699 120.526 191.294 120.972 192.232C121.013 194.166 119.914 195.856 119.914 195.856C113.114 198.019 110.337 205.835 110.337 205.835C110.337 205.835 106.502 208.345 105.672 211.15C104.04 212.581 104.162 216.497 104.162 216.497C104.162 216.497 109.874 219.824 114.05 221.654C114.534 221.866 115.038 222.018 115.554 222.105L114.626 224.185C113.658 224.565 113.587 229.79 113.587 229.79C113.587 229.79 123.782 237.776 126.872 238.275C129.962 238.774 132.584 236.445 129.344 234.781C126.73 233.441 123.817 228.326 122.784 226.386C124.078 224.449 128.158 218.172 128.417 215.653C128.727 212.659 132.586 210.163 132.586 210.163C138.149 203.675 134.441 196.026 133.976 192.042C133.976 191.965 133.957 191.882 133.944 191.796C133.603 190.064 133.166 188.357 132.635 186.683C133.242 182.497 133.723 175.959 134.02 171.643C135.247 172.073 136.449 172.584 136.449 172.584C138.704 167.585 131.044 146.995 128.833 141.291C130.119 140.828 132.336 140.103 135.516 139.319C140.923 137.988 141.228 134.993 141.228 134.993L145.398 122.686C145.041 122.858 144.497 122.852 143.861 122.73C143.861 122.626 143.861 122.517 143.861 122.398C143.893 121.23 143.994 119.365 144.31 119.026C144.31 119.026 143.284 119.026 142.038 118.904V118.738L142.599 111.207C142.599 111.207 141.826 102.889 139.201 104.054C137.093 104.99 137.374 112.461 137.569 115.372C137.619 116.117 137.818 116.84 138.154 117.49L138.331 117.832L138.453 118.066C138.338 118.006 138.227 117.937 138.122 117.858V120.434C137.831 120.283 137.659 120.188 137.659 120.188C137.814 123.016 134.569 132.495 134.569 132.495C134.569 132.495 128.857 131.83 127 133.16C125.64 134.138 123.866 132.248 123.015 131.173L127.024 121.673C126.543 121.58 126.068 121.453 125.601 121.293C125.621 121.177 125.64 121.055 125.661 120.93C125.863 119.742 126.227 118.058 126.717 117.847C126.009 117.425 125.276 117.058 124.522 116.747C124.541 116.652 124.557 116.551 124.579 116.45C124.867 114.787 125.321 111.192 124.399 108.712C123.164 105.385 122.699 98.9086 120.382 100.394C118.543 101.582 118.456 108.742 118.497 111.644C118.508 112.43 118.688 113.203 119.024 113.899L119.917 115.746L120.039 116.002L119.917 116.026V118.298C119.525 118.028 119.299 117.856 119.299 117.856C119.22 121.052 117.284 125.315 115.391 128.746L114.428 127.971L114.191 127.786C114.189 127.753 114.189 127.719 114.191 127.685C114.191 127.685 113.794 127.564 113.168 127.424C112.39 125.811 111.955 123.859 111.713 122.249C111.689 122.08 111.664 121.916 111.642 121.756C112 120.89 112.186 119.952 112.186 119.002C112.176 117.38 111.638 115.814 110.669 114.584C109.7 113.354 108.363 112.539 106.896 112.286C107.086 112.057 107.168 111.988 107.228 111.988H107.269C107.364 111.988 107.494 112.036 107.968 111.783C108.441 111.531 109.009 111.136 109.007 110.548C109.007 110.117 108.694 109.763 108.362 109.52C107.565 108.926 107.546 107.931 106.801 108.005C106.658 107.992 106.514 108.013 106.379 108.067C105.699 108.311 105.109 108.774 104.448 109.071C103.985 109.278 103.495 109.4 102.996 109.434C102.677 109.434 102.358 109.462 102.044 109.517C101.792 109.586 101.55 109.693 101.325 109.835C99.9301 110.667 98.3198 111.932 97.871 113.581C97.4522 115.125 98.0315 117.128 96.9517 118.239C96.7544 118.409 96.5722 118.599 96.4077 118.806C96.2697 119.035 96.1771 119.293 96.1357 119.564C95.9459 120.481 96.0219 121.44 96.3533 122.309ZM124.595 202.294C124.655 203.09 124.516 203.655 124.089 203.839C121.772 204.837 119.147 213.984 119.147 213.984L117.39 217.943C115.997 216.795 114.664 215.562 113.397 214.251L113.587 212.816C113.587 212.816 118.529 208.823 118.84 207.659C119.087 206.723 123.083 203.491 124.595 202.294Z" fill="url(#paint1_linear)"/>
<path d="M128.047 140.237C128.047 140.237 138.551 166.791 136 172.531C136 172.531 131.798 170.728 131.196 171.045C130.595 171.363 124.592 136.788 124.592 136.788L128.047 140.237Z" fill="#575988"/>
<path opacity="0.05" d="M128.047 140.237C128.047 140.237 138.551 166.791 136 172.531C136 172.531 131.798 170.728 131.196 171.045C130.595 171.363 124.592 136.788 124.592 136.788L128.047 140.237Z" fill="black"/>
<path d="M122.343 224.815C122.343 224.815 125.944 232.191 129.097 233.831C132.249 235.47 129.698 237.764 126.695 237.274C123.692 236.783 113.788 228.914 113.788 228.914C113.788 228.914 113.856 223.763 114.798 223.389C115.739 223.014 122.343 224.815 122.343 224.815Z" fill="#575988"/>
<path d="M112.88 212.849C112.88 212.849 117.983 218.422 120.224 218.915C122.465 219.408 118.274 222.685 114.221 220.881C110.168 219.078 104.617 215.802 104.617 215.802C104.617 215.802 104.467 210.555 107.018 210.065C109.57 209.575 112.88 212.849 112.88 212.849Z" fill="#575988"/>
<path d="M133.9 167.282C133.9 167.282 132.85 187.28 131.498 190.067C130.146 192.853 125.044 201.376 125.044 201.376C125.044 201.376 119.19 205.966 118.891 207.112C118.592 208.259 113.788 212.192 113.788 212.192L113.489 214.486C113.489 214.486 105.536 213.992 105.985 211.043C106.434 208.093 110.636 205.306 110.636 205.306C110.636 205.306 113.337 197.603 119.941 195.47C119.941 195.47 122.041 192.203 120.24 189.571C120.24 189.571 115.739 177.278 113.187 175.802C110.636 174.325 114.24 165.808 114.24 165.808L133.9 167.282Z" fill="#67647E"/>
<path opacity="0.05" d="M133.9 167.282C133.9 167.282 132.85 187.28 131.498 190.067C130.146 192.853 125.044 201.376 125.044 201.376C125.044 201.376 119.19 205.966 118.891 207.112C118.592 208.259 113.788 212.192 113.788 212.192L113.489 214.486C113.489 214.486 105.536 213.992 105.985 211.043C106.434 208.093 110.636 205.306 110.636 205.306C110.636 205.306 113.337 197.603 119.941 195.47C119.941 195.47 122.041 192.203 120.24 189.571C120.24 189.571 115.739 177.278 113.187 175.802C110.636 174.325 114.24 165.808 114.24 165.808L133.9 167.282Z" fill="black"/>
<path d="M119.19 213.342L114.387 224.333C115.138 227.12 122.34 226.137 122.34 226.137C122.34 226.137 127.894 217.94 128.194 214.991C128.493 212.041 132.246 209.581 132.246 209.581C137.648 203.188 134.047 195.649 133.606 191.715C133.606 191.641 133.587 191.558 133.574 191.472C133.174 188.834 130.745 181.244 128.857 175.561C127.584 171.732 126.553 168.767 126.553 168.767C126.553 168.767 116.489 169.26 114.398 173.193C113.435 174.993 113.854 176.871 114.615 178.374C115.202 179.509 115.951 180.534 116.835 181.41L120.251 190.405C120.251 190.405 126.254 202.371 124.002 203.354C121.75 204.338 119.19 213.342 119.19 213.342Z" fill="#67647E"/>
<path d="M137.115 116.15C137.164 116.88 137.358 117.59 137.684 118.23L137.855 118.568L138.701 120.235H141.402L141.459 119.46L142.003 112.033C142.003 112.033 141.252 103.837 138.701 104.984C136.653 105.916 136.928 113.281 137.115 116.15Z" fill="#F7C4A7"/>
<path opacity="0.1" d="M137.855 118.574L138.701 120.241H141.402L141.459 119.466C140.202 119.356 138.706 119.091 137.855 118.574Z" fill="black"/>
<path d="M137.651 118.601V122.371L143.205 124.011C143.205 124.011 143.205 123.619 143.222 123.072C143.254 121.922 143.352 120.084 143.657 119.751C143.654 119.748 139.152 119.748 137.651 118.601Z" fill="#E6E6F0"/>
<path opacity="0.1" d="M137.651 120.811V122.371L143.205 124.011C143.205 124.011 143.205 123.619 143.222 123.072C141.369 122.719 138.701 121.37 137.651 120.811Z" fill="black"/>
<path d="M105.264 127.032C106.352 130.487 104.935 132.043 104.935 132.043C104.935 132.043 118.442 133.027 115.14 130.404C113.212 128.871 112.358 125.493 111.982 122.95C111.823 121.892 111.725 120.823 111.689 119.751C111.689 119.751 100.896 119.579 103.134 122.864C104.034 124.127 104.752 125.533 105.264 127.032Z" fill="#F7C4A7"/>
<path opacity="0.1" d="M103.134 122.864C104.222 124.48 104.592 124.718 104.965 125.885C105.303 125.948 105.645 125.978 105.988 125.977C108.561 125.977 111.066 125.398 111.972 122.947C111.812 121.889 111.714 120.82 111.678 119.748C111.678 119.748 100.893 119.576 103.134 122.864Z" fill="black"/>
<path d="M106.284 126.47C109.682 126.47 112.437 123.462 112.437 119.751C112.437 116.04 109.682 113.031 106.284 113.031C102.886 113.031 100.131 116.04 100.131 119.751C100.131 123.462 102.886 126.47 106.284 126.47Z" fill="#F7C4A7"/>
<path d="M137.202 120.897C137.202 120.897 143.056 124.165 144.707 123.357L140.654 135.486C140.654 135.486 140.355 138.436 135.1 139.749C129.845 141.062 127.296 142.203 127.296 142.203L117.542 129.581L122.495 131.066C122.495 131.066 125.047 134.999 126.847 133.689C128.648 132.379 134.191 133.033 134.191 133.033C134.191 133.033 137.36 123.684 137.202 120.897Z" fill="#575988"/>
<path opacity="0.05" d="M137.202 120.897C137.202 120.897 143.056 124.165 144.707 123.357L140.654 135.486C140.654 135.486 140.355 138.436 135.1 139.749C129.845 141.062 127.296 142.203 127.296 142.203L117.542 129.581L122.495 131.066C122.495 131.066 125.047 134.999 126.847 133.689C128.648 132.379 134.191 133.033 134.191 133.033C134.191 133.033 137.36 123.684 137.202 120.897Z" fill="black"/>
<path opacity="0.1" d="M114.39 128.633C114.39 128.633 106.455 126.156 105.62 130.757C105.62 130.757 109.287 128.805 114.539 132.242C114.934 132.501 115.32 132.777 115.695 133.065C120.319 136.603 123.545 142.087 124.842 148.293L128.196 164.335L128.495 168.648C128.495 168.648 133.299 169.685 134.207 168.131C135.116 166.578 134.507 161.403 133.158 159.677C131.808 157.951 129.698 150.548 129.698 150.548L128.384 146.243C127.285 142.622 125.537 139.276 123.243 136.398L122.928 135.991C120.949 133.395 118.439 131.343 115.6 130.003C114.841 129.637 114.283 129.177 114.39 128.633Z" fill="black"/>
<path d="M114.39 128.306C114.39 128.306 106.455 125.829 105.62 130.43C105.62 130.43 109.287 128.479 114.539 131.916C114.934 132.174 115.32 132.45 115.695 132.739C120.319 136.277 123.545 141.761 124.842 147.966L128.196 164.008L128.495 168.321C128.495 168.321 133.299 169.358 134.207 167.804C135.116 166.251 134.507 161.076 133.158 159.35C131.808 157.624 129.706 150.203 129.706 150.203L128.384 145.916C127.285 142.295 125.537 138.949 123.243 136.072L122.925 135.653C120.946 133.061 118.437 131.013 115.6 129.676C114.841 129.307 114.283 128.862 114.39 128.306Z" fill="#E6E6F0"/>
<path opacity="0.1" d="M134.341 161.346L134.273 164.168L132.173 162.683C132.173 162.683 128.43 147.806 125.795 143.751C125.485 143.273 125.335 142.563 125.044 142.441L114.313 131.131V128.508C114.313 128.508 119.792 132.935 120.24 133.755C120.431 134.102 123.311 135.834 125.044 138.508C126.597 140.985 127.977 143.588 129.17 146.294L132.771 155.146L134.341 161.346Z" fill="black"/>
<path d="M114.313 128.354V130.894L125.193 142.286C125.482 142.408 125.634 143.121 125.944 143.596C128.58 147.654 132.323 162.529 132.323 162.529L134.422 164.014L134.488 161.192L132.924 155.004L129.322 146.151C128.129 143.446 126.75 140.843 125.196 138.365C123.464 135.691 120.572 133.96 120.393 133.612C120.004 132.905 115.769 129.521 114.61 128.6L114.313 128.354Z" fill="#787C9C"/>
<path opacity="0.1" d="M108.332 112.615C108.808 112.36 109.344 111.977 109.341 111.397C109.318 111.186 109.249 110.984 109.141 110.808C109.032 110.632 108.886 110.487 108.716 110.384C107.859 109.746 107.924 108.602 106.939 108.952C106.281 109.193 105.705 109.651 105.063 109.942C104.613 110.145 104.136 110.265 103.651 110.298C103.341 110.298 103.032 110.324 102.726 110.378C102.481 110.447 102.245 110.553 102.027 110.693C100.658 111.529 99.6418 112.914 99.1929 114.555C98.7849 116.076 98.8257 117.879 97.7758 118.973C97.5861 119.14 97.4113 119.327 97.2536 119.531C97.1167 119.756 97.0241 120.01 96.9816 120.277C96.7926 121.185 96.8648 122.136 97.1883 122.998C97.3524 123.425 97.5963 123.811 97.9045 124.129C98.2127 124.448 98.5783 124.693 98.9781 124.848C99.3317 124.976 99.707 125.021 100.066 125.119C101.791 125.594 103.012 127.246 104.581 128.158C104.706 128.244 104.85 128.293 104.997 128.3C105.16 128.282 105.313 128.21 105.438 128.095C106.045 127.62 106.545 126.886 106.526 126.069C106.477 125.56 106.34 125.065 106.123 124.611C105.795 123.759 105.543 122.875 105.373 121.97C105.318 121.762 105.313 121.542 105.356 121.331C105.471 120.933 105.873 120.737 106.153 120.467C106.697 119.929 106.749 119.011 106.553 118.248C106.357 117.484 105.944 116.813 105.637 116.094C105.53 115.878 105.468 115.64 105.454 115.396C105.454 114.436 106.64 113.91 107.141 113.284C107.834 112.431 107.405 113.117 108.332 112.615Z" fill="black"/>
<path d="M108.183 112.615C108.659 112.36 109.194 111.977 109.192 111.397C109.169 111.186 109.1 110.984 108.991 110.808C108.882 110.632 108.737 110.487 108.566 110.384C107.709 109.746 107.775 108.602 106.79 108.952C106.132 109.193 105.555 109.651 104.913 109.942C104.464 110.145 103.987 110.265 103.501 110.298C103.191 110.319 102.19 109.802 101.889 109.879C101.643 109.948 101.408 110.054 101.189 110.194C99.8207 111.03 98.8041 112.415 98.3552 114.056C97.9472 115.577 98.2328 117.481 97.1829 118.574C97.0061 118.759 97.2455 119.317 97.104 119.534C96.9672 119.759 96.8746 120.013 96.832 120.28C96.6431 121.188 96.7152 122.138 97.0387 123.001C97.2029 123.428 97.4468 123.814 97.7549 124.132C98.0631 124.451 98.4288 124.696 98.8285 124.851C99.1821 124.979 99.5575 125.024 99.9165 125.122C101.641 125.597 102.862 127.249 104.432 128.161C104.557 128.247 104.7 128.296 104.848 128.303C105.01 128.285 105.164 128.213 105.289 128.098C105.895 127.623 106.396 126.889 106.377 126.072C106.327 125.563 106.191 125.068 105.974 124.614C105.645 123.762 105.394 122.878 105.223 121.973C105.169 121.765 105.163 121.545 105.207 121.334C105.321 120.936 105.724 120.74 106.004 120.47C106.548 119.932 106.6 119.014 106.404 118.251C106.208 117.487 105.794 116.816 105.487 116.097C105.381 115.881 105.319 115.643 105.305 115.399C105.305 114.439 106.491 113.913 106.991 113.287C107.685 112.431 107.255 113.117 108.183 112.615Z" fill="#B96B6B"/>
<path opacity="0.1" d="M114.607 178.362C117.352 178.006 120.822 177.658 122.343 177.937C124.791 178.383 128.232 175.998 128.849 175.561C127.576 171.732 126.545 168.767 126.545 168.767C126.545 168.767 116.481 169.26 114.39 173.193C113.424 174.985 113.856 176.859 114.607 178.362Z" fill="black"/>
<path d="M101.483 135.977C102.084 141.713 108.087 149.746 108.087 149.746C108.087 149.746 112.29 154.499 110.938 170.728L110.788 178.594C110.788 178.594 119.642 177.109 122.346 177.611C125.049 178.113 128.95 175.151 128.95 175.151C128.95 175.151 130.451 146.793 123.997 140.893C123.201 139.553 122.336 138.263 121.404 137.031C119.672 134.741 117.324 132.159 115.11 131.524C114.827 131.44 114.536 131.391 114.243 131.378C114.243 131.378 107.489 127.281 105.688 130.395C105.686 130.404 100.882 130.24 101.483 135.977Z" fill="#575988"/>
<path opacity="0.1" d="M128.871 166.545C128.871 166.545 126.48 165.401 122.419 165.725C118.358 166.049 111.15 162.133 111.15 162.133" fill="black"/>
<path opacity="0.05" d="M124.519 203.096C124.519 203.096 124.369 203.589 126.32 204.243C128.27 204.896 128.871 205.553 128.871 205.553" fill="black"/>
<path d="M137.964 91.2888H122.868C121.088 91.2888 119.645 92.8649 119.645 94.809V111.296C119.645 113.24 121.088 114.817 122.868 114.817H137.964C139.744 114.817 141.187 113.24 141.187 111.296V94.809C141.187 92.8649 139.744 91.2888 137.964 91.2888Z" fill="#00BFA6"/>
<path d="M118.562 112.479C118.573 113.253 118.749 114.014 119.076 114.701L119.944 116.522L120.545 117.781L124.296 118.108C124.296 118.108 124.375 117.769 124.47 117.217C124.742 115.577 125.191 112.036 124.296 109.591C123.096 106.323 122.645 99.9216 120.393 101.395C118.606 102.563 118.521 109.615 118.562 112.479Z" fill="#F7C4A7"/>
<path opacity="0.1" d="M119.952 116.471V116.522L120.553 117.781L124.304 118.108C124.304 118.108 124.383 117.769 124.478 117.217C123.126 116.643 121.366 116.124 119.952 116.471Z" fill="black"/>
<path d="M119.952 116.798V119.748L125.354 122.861C125.354 122.861 125.417 122.326 125.531 121.637C125.727 120.449 126.075 118.806 126.556 118.601C126.545 118.601 122.642 116.141 119.952 116.798Z" fill="#E6E6F0"/>
<path opacity="0.05" d="M105.329 143.59C105.987 144.223 106.758 144.701 107.593 144.993C108.428 145.285 109.31 145.385 110.182 145.287C119.68 144.232 119.952 140.566 119.952 140.566L121.41 137.04C119.677 134.75 117.33 132.168 115.116 131.533C113.541 134.304 112.146 136.303 112.146 136.303C112.146 136.303 105.093 130.404 102.99 135.977C101.761 139.221 103.588 141.909 105.329 143.59Z" fill="black"/>
<path opacity="0.1" d="M119.952 118.604V119.748L125.354 122.861C125.354 122.861 125.416 122.326 125.531 121.637C123.192 120.823 120.888 119.278 119.952 118.604Z" fill="black"/>
<path d="M119.343 118.601C119.343 118.601 123.396 121.714 126.847 122.371L119.794 139.417C119.794 139.417 119.536 143.082 110.035 144.137C109.163 144.235 108.281 144.135 107.446 143.843C106.611 143.551 105.841 143.073 105.182 142.441C103.442 140.759 101.611 138.071 102.835 134.827C104.935 129.254 111.991 135.154 111.991 135.154C111.991 135.154 119.19 124.831 119.343 118.601Z" fill="#575988"/>
<path d="M55.3574 129.45L128.34 184.131L55.3574 238.809V129.45Z" fill="#E8EAF1"/>
<path d="M201.321 129.45L128.34 184.131L201.321 238.809V129.45Z" fill="#E8EAF1"/>
<path d="M55.3574 238.809L125.476 179.227C126.292 178.524 127.3 178.142 128.339 178.142C129.378 178.142 130.386 178.524 131.202 179.227L201.321 238.809H55.3574Z" fill="url(#paint2_linear)"/>
<path d="M55.3574 238.809L125.476 181.832C126.304 181.159 127.308 180.796 128.339 180.796C129.371 180.796 130.374 181.159 131.202 181.832L201.321 238.809H55.3574Z" fill="#E8EAF1"/>
</g>
<defs>
<linearGradient id="paint0_linear" x1="128.34" y1="240.818" x2="128.34" y2="53.175" gradientUnits="userSpaceOnUse">
<stop stop-color="#808080" stop-opacity="0.25"/>
<stop offset="0.54" stop-color="#808080" stop-opacity="0.12"/>
<stop offset="1" stop-color="#808080" stop-opacity="0.1"/>
</linearGradient>
<linearGradient id="paint1_linear" x1="-44733.2" y1="114989" x2="-44733.2" y2="50723.3" gradientUnits="userSpaceOnUse">
<stop stop-color="#808080" stop-opacity="0.25"/>
<stop offset="0.54" stop-color="#808080" stop-opacity="0.12"/>
<stop offset="1" stop-color="#808080" stop-opacity="0.1"/>
</linearGradient>
<linearGradient id="paint2_linear" x1="83523" y1="50720.5" x2="83523" y2="38331.7" gradientUnits="userSpaceOnUse">
<stop stop-color="#808080" stop-opacity="0.25"/>
<stop offset="0.54" stop-color="#808080" stop-opacity="0.12"/>
<stop offset="1" stop-color="#808080" stop-opacity="0.1"/>
</linearGradient>
<clipPath id="clip0">
<rect width="272" height="250" fill="white"/>
</clipPath>
</defs>
</svg>
