<svg width="289" height="177" viewBox="0 0 289 177" fill="none" xmlns="http://www.w3.org/2000/svg">
<path d="M241.47 27.2164L219.176 27.4075C218.128 22.8684 214.607 10.9583 217.778 7.7097C217.923 6.48702 218.598 5.36049 219.662 4.56462C220.727 3.76876 222.1 3.36488 223.494 3.43707C226.95 -1.32216 232.705 -0.607595 236.595 2.36475C240.51 3.55336 241.986 5.66498 241.47 8.53055C244.369 10.7636 244.904 13.4804 243.603 16.5729L241.47 27.2164Z" fill="#2F2E41"/>
<path d="M239.324 39.3005L223.239 37.3409L220.022 33.204C224.454 30.6177 226.022 27.0052 223.982 22.0997L235.117 21.882C234.595 26.2504 236.237 29.6328 240.809 31.6799L239.324 39.3005Z" fill="#FFB9B9"/>
<path d="M219.437 166.953L218.822 174.351C218.794 174.686 218.848 175.022 218.98 175.337C219.111 175.652 219.318 175.939 219.587 176.177C219.855 176.416 220.178 176.602 220.534 176.722C220.891 176.842 221.272 176.894 221.653 176.873L225.972 176.643C226.172 176.633 226.367 176.583 226.543 176.499C226.719 176.414 226.871 176.297 226.99 176.154C227.108 176.012 227.19 175.849 227.229 175.676C227.267 175.502 227.262 175.324 227.213 175.153L224.816 166.716L219.437 166.953Z" fill="#E6E6E6"/>
<path d="M233.418 166.716L231.021 175.153C230.972 175.324 230.967 175.502 231.006 175.676C231.044 175.849 231.126 176.012 231.244 176.154C231.363 176.297 231.515 176.414 231.691 176.499C231.867 176.583 232.062 176.633 232.262 176.643L236.581 176.873C236.962 176.894 237.343 176.842 237.7 176.722C238.056 176.602 238.379 176.416 238.647 176.177C238.916 175.939 239.123 175.652 239.255 175.337C239.387 175.022 239.44 174.686 239.413 174.351L238.797 166.953L233.418 166.716Z" fill="#E6E6E6"/>
<path d="M239.077 167.98L233.249 167.465L227.446 112.894L225.254 167.289L219.528 167.109L209.877 91.7737H246.748L239.077 167.98Z" fill="#00BFA6"/>
<path d="M230.168 25.5834C236.318 25.5834 241.304 21.1968 241.304 15.7855C241.304 10.3743 236.318 5.98761 230.168 5.98761C224.018 5.98761 219.033 10.3743 219.033 15.7855C219.033 21.1968 224.018 25.5834 230.168 25.5834Z" fill="#FFB9B9"/>
<path d="M252.191 93.5156L207.155 93.9511C213.838 71.5633 217.837 50.7669 210.867 36.47L222.002 31.6799C227.371 36.6075 233.351 36.0995 239.819 31.2445L250.459 33.6395C248.637 52.3877 249.454 72.4672 252.191 93.5156Z" fill="#00BFA6"/>
<path d="M194.782 70.4361L222.744 80.234L228.996 81.8519C229.276 81.9242 229.569 81.9461 229.859 81.9162C230.148 81.8863 230.428 81.8052 230.681 81.6778C230.934 81.5504 231.155 81.3793 231.331 81.1748C231.507 80.9703 231.634 80.7366 231.704 80.4878C231.828 80.0516 231.773 79.5908 231.547 79.1872C231.322 78.7836 230.941 78.4632 230.473 78.283L223.982 76.5326L204.433 66.5169L208.516 57.0456L199.979 53.0176L194.782 70.4361Z" fill="#FFB9B9"/>
<path d="M195.03 52.5821C200.35 54.4083 204.581 57.525 207.897 61.7268L218.29 48.4452L210.867 36.47L195.03 52.5821Z" fill="#00BFA6"/>
<path d="M242.718 14.1976C238.199 13.173 233.755 13.0323 229.436 14.3319C226.684 15.5045 223.38 15.3965 219.705 14.4303V4.65495L239.544 5.12045L242.718 14.1976Z" fill="#2F2E41"/>
<path d="M222.652 59.0202C221.777 59.0211 220.939 59.3271 220.321 59.8711C219.702 60.4152 219.354 61.1528 219.354 61.9221L220.655 85.8997C220.656 86.669 221.004 87.4066 221.622 87.9507C222.241 88.4947 223.079 88.8007 223.953 88.8016H238.837C239.711 88.8007 240.55 88.4947 241.168 87.9507C241.786 87.4066 242.134 86.669 242.135 85.8997L243.437 61.9221C243.436 61.1528 243.088 60.4152 242.47 59.8711C241.851 59.3271 241.013 59.0211 240.139 59.0202H222.652Z" fill="#3F3D56"/>
<path d="M264.881 68.6247L240.508 77.1639L238.669 77.8082C238.61 77.8283 238.552 77.8455 238.49 77.8626L232.329 79.4577C231.542 79.661 230.451 78.7274 229.814 78.0831C229.498 77.7726 229.319 77.3728 229.309 76.9562C229.3 76.5396 229.46 76.1338 229.761 75.8123C229.847 75.726 229.94 75.6464 230.041 75.5746C230.279 75.412 230.558 75.3038 230.855 75.2596L237.009 74.1944C237.23 74.1563 237.442 74.0866 237.637 73.9882L240.508 72.5163L255.41 64.882C255.825 64.67 256.14 64.3355 256.301 63.938C256.461 63.5405 256.456 63.1058 256.286 62.7114L253.441 56.1108C253.267 55.707 253.265 55.2611 253.437 54.8563C253.609 54.4516 253.943 54.1158 254.375 53.9116L259.088 51.6895C259.357 51.5623 259.656 51.4905 259.961 51.4796C260.266 51.4686 260.571 51.5188 260.851 51.6263C261.131 51.7339 261.38 51.8959 261.578 52.1003C261.777 52.3047 261.92 52.5461 261.997 52.8063L266.088 66.5171C266.214 66.9375 266.161 67.3839 265.938 67.7722C265.716 68.1604 265.34 68.4636 264.881 68.6247Z" fill="#FFB9B9"/>
<path d="M266.297 50.1871C260.977 52.0133 256.745 55.13 253.429 59.3318L243.036 46.0502L250.46 33.6395L266.297 50.1871Z" fill="#00BFA6"/>
<path d="M237.579 24.5062C232.707 26.2891 227.6 26.2167 222.283 24.5062C223.83 22.1826 221.517 20.3629 220.33 18.0173L240.182 17.4982C238.664 19.5359 236.424 21.9433 237.579 24.5062Z" fill="white"/>
<path d="M239.972 17.886L239.742 17.6835L240.067 17.3971L242.011 15.4007L242.259 15.5868L240.306 17.5913L239.972 17.886Z" fill="white"/>
<path d="M218.97 16.6723L218.761 16.8924L220.714 18.3242L220.922 18.1041L218.97 16.6723Z" fill="white"/>
<path d="M240.533 19.5695L237.115 24.2939L237.39 24.4477L240.808 19.7233L240.533 19.5695Z" fill="white"/>
<path d="M219.328 19.5691L219.053 19.7229L222.471 24.4478L222.745 24.294L219.328 19.5691Z" fill="white"/>
<path d="M241.159 72.1113V77.2991L239.106 78.0183C239.041 78.0407 238.976 78.0598 238.907 78.079L232.03 79.8594C231.151 80.0864 229.934 79.0443 229.222 78.3251C228.869 77.9785 228.669 77.5323 228.659 77.0672C228.648 76.6022 228.827 76.1492 229.163 75.7904C229.258 75.694 229.363 75.6052 229.476 75.525C229.741 75.3436 230.053 75.2227 230.384 75.1734L237.254 73.9844C237.5 73.9418 237.737 73.8641 237.955 73.7542L241.159 72.1113Z" fill="white"/>
<path d="M244.133 53.6069H242.957C242.957 38.9709 239.532 28.7714 236.195 28.7714L235.901 27.7365C238.894 27.7365 240.802 31.9815 241.876 35.5427C243.332 40.3706 244.133 46.7859 244.133 53.6069Z" fill="#3F3D56"/>
<path d="M217.083 49.9851H215.907C215.907 36.5808 219.356 28.2539 224.434 28.2539L224.14 29.2888C220.627 29.2888 217.083 35.6883 217.083 49.9851Z" fill="#3F3D56"/>
<path d="M243.545 56.4526C245.169 56.4526 246.485 55.2944 246.485 53.8656C246.485 52.4368 245.169 51.2785 243.545 51.2785C241.921 51.2785 240.605 52.4368 240.605 53.8656C240.605 55.2944 241.921 56.4526 243.545 56.4526Z" fill="#3F3D56"/>
<path d="M212.379 56.1939H211.203C211.203 52.485 213.577 49.4676 216.495 49.4676V50.5024C214.226 50.5024 212.379 53.0556 212.379 56.1939Z" fill="#3F3D56"/>
<path d="M221.788 56.1939H220.612C220.612 53.0556 218.765 50.5024 216.495 50.5024V49.4676C219.414 49.4676 221.788 52.485 221.788 56.1939Z" fill="#3F3D56"/>
<path d="M221.2 57.4874C221.849 57.4874 222.376 57.0241 222.376 56.4526C222.376 55.8811 221.849 55.4178 221.2 55.4178C220.55 55.4178 220.024 55.8811 220.024 56.4526C220.024 57.0241 220.55 57.4874 221.2 57.4874Z" fill="#3F3D56"/>
<path d="M211.791 57.4874C212.441 57.4874 212.967 57.0241 212.967 56.4526C212.967 55.8811 212.441 55.4178 211.791 55.4178C211.142 55.4178 210.615 55.8811 210.615 56.4526C210.615 57.0241 211.142 57.4874 211.791 57.4874Z" fill="#3F3D56"/>
<path d="M70.0599 21.6766L49.4049 24.7543C48.8946 24.8309 48.3702 24.7382 47.9331 24.4942C47.4961 24.2502 47.1774 23.8722 47.0388 23.4334C45.5465 18.6943 42.4265 12.512 45.4557 9.40853C45.61 8.1029 46.3307 6.89995 47.4677 6.05009C48.6047 5.20023 50.0704 4.76895 51.5597 4.84603C55.2496 -0.236073 61.3955 0.526973 65.5495 3.70097C69.73 4.97021 71.3061 7.22509 70.755 10.2851C72.561 11.676 73.5079 13.2428 73.7075 14.9624C73.8022 15.9194 73.6638 16.8831 73.3016 17.7892C72.9394 18.6954 72.3617 19.5232 71.6071 20.2173L70.0599 21.6766Z" fill="#2F2E41"/>
<path d="M66.8485 35.9845L50.8362 35.1558C52.4054 31.9867 53.0323 28.935 52.406 26.0394H64.3368C64.3097 28.2626 65.5671 32.1084 66.8485 35.9845Z" fill="#9F616A"/>
<path d="M47.5743 166.171L46.9175 174.071C46.8878 174.428 46.9453 174.787 47.0862 175.124C47.2271 175.46 47.4481 175.766 47.7345 176.021C48.0208 176.276 48.3658 176.475 48.7464 176.603C49.1269 176.731 49.5342 176.786 49.941 176.764L54.5527 176.519C54.7664 176.507 54.9746 176.455 55.1625 176.364C55.3504 176.274 55.5135 176.149 55.64 175.997C55.7666 175.845 55.8536 175.67 55.8948 175.485C55.9361 175.301 55.9305 175.11 55.8786 174.927L53.3187 165.918L47.5743 166.171Z" fill="#E6E6E6"/>
<path d="M62.5043 165.918L59.9444 174.927C59.8925 175.11 59.8869 175.301 59.9282 175.485C59.9694 175.67 60.0564 175.845 60.183 175.997C60.3095 176.149 60.4726 176.274 60.6605 176.364C60.8484 176.455 61.0566 176.507 61.2703 176.519L65.882 176.764C66.2888 176.786 66.6961 176.731 67.0766 176.603C67.4572 176.475 67.8022 176.276 68.0885 176.021C68.3749 175.766 68.5959 175.46 68.7368 175.124C68.8777 174.787 68.9352 174.428 68.9055 174.071L68.2487 166.171L62.5043 165.918Z" fill="#E6E6E6"/>
<path d="M68.5464 167.268L62.3231 166.718L56.1272 108.444L53.7856 166.53L47.6714 166.337L37.366 85.8916H76.738L68.5464 167.268Z" fill="#00BFA6"/>
<path d="M58.6863 29.393C65.2535 29.393 70.5772 24.7087 70.5772 18.9303C70.5772 13.152 65.2535 8.46773 58.6863 8.46773C52.1191 8.46773 46.7954 13.152 46.7954 18.9303C46.7954 24.7087 52.1191 29.393 58.6863 29.393Z" fill="#9F616A"/>
<path d="M72.088 13.9322C67.2618 13.1927 62.5168 13.0911 57.9043 14.0292C54.9661 14.8755 51.4375 14.7975 47.5134 14.1002V7.04466L68.6984 7.38064L72.088 13.9322Z" fill="#2F2E41"/>
<path d="M66.5997 27.3253C61.3978 29.2291 55.9433 29.1518 50.2658 27.3253C51.9179 24.8441 49.4484 22.9009 48.1807 20.3962L69.38 19.8419C67.7588 22.0178 65.3667 24.5885 66.5997 27.3253Z" fill="white"/>
<path d="M46.7212 18.9674L46.5127 19.1875L48.5978 20.7164L48.8062 20.4962L46.7212 18.9674Z" fill="white"/>
<path d="M69.7642 22.0586L66.1143 27.1036L66.3889 27.2574L70.0388 22.2124L69.7642 22.0586Z" fill="white"/>
<path d="M47.1013 22.0584L46.8267 22.2122L50.4757 27.2577L50.7503 27.1039L47.1013 22.0584Z" fill="white"/>
<path d="M36.0799 66.6488L26.9749 61.6762L34.7398 41.6658C35.6059 39.6009 37.2647 37.8673 39.4295 36.7645L42.0453 35.432L42.2727 55.6188L36.0799 66.6488Z" fill="#00BFA6"/>
<path d="M75.4359 76.3673L74.0889 66.2152C74.0169 60.8566 75.053 55.6759 77.5235 50.9023L78.7794 35.9845L64.9649 31.012C64.9225 31.2597 64.8865 31.5072 64.8461 31.7549L58.3716 34.6033L52.0573 33.3406L52.0922 31.5645L39.5335 36.5371C43.6867 53.5261 41.4215 71.1686 34.2795 92.0073L50.8244 95.9879L50.962 88.9977L65.7071 88.071C65.859 90.3389 65.981 92.5665 66.0518 94.7447C74.3721 97.4399 74.6578 97.3953 82.2386 93.5362C79.2197 87.9514 76.8293 82.1398 75.4359 76.3673Z" fill="#00BFA6"/>
<path d="M96.6752 64.1624L88.1982 61.6762L74.6387 47.787L78.779 35.9847L97.6171 59.19L96.6752 64.1624Z" fill="#00BFA6"/>
<path d="M70.1084 74.9152C70.2471 75.4508 70.6215 75.9161 71.1495 76.2092C71.6776 76.5022 72.3161 76.5991 72.9252 76.4785L80.1211 75.0446L79.0811 71.0032L71.885 72.4368C71.2759 72.5582 70.7466 72.8875 70.4134 73.3523C70.0803 73.8171 69.9705 74.3793 70.1084 74.9152V74.9152Z" fill="#E6E6E6"/>
<path d="M76.5815 70.2401L80.6631 76.8702C87.5282 75.1855 93.4779 69.8742 99.1871 63.61L97.6173 59.1899L87.8843 61.3999L76.5815 70.2401Z" fill="#00BFA6"/>
<path d="M23.364 49.443L31.1996 50.674L49.1094 73.0807L39.5949 71.1109L23.364 49.443Z" fill="#E6E6E6"/>
<path d="M21.9743 49.1687C21.8549 49.1703 21.7382 49.2 21.6363 49.2549C21.5345 49.3098 21.4513 49.3877 21.3954 49.4806C21.3395 49.5734 21.313 49.6778 21.3186 49.7827C21.3243 49.8877 21.3619 49.9894 21.4275 50.0772L38.1684 72.4264C38.2618 72.5513 38.4061 72.64 38.5716 72.6742L46.3607 74.2867C46.492 74.3139 46.6296 74.3053 46.7553 74.2621C46.881 74.2189 46.9887 74.1431 47.0643 74.0447C47.1399 73.9464 47.1797 73.8301 47.1784 73.7114C47.1772 73.5927 47.1349 73.4771 47.0573 73.3801L28.6767 50.3844C28.6269 50.3218 28.5635 50.2684 28.4902 50.2273C28.4169 50.1862 28.3351 50.1583 28.2495 50.145L22.0998 49.1787C22.0584 49.1721 22.0164 49.1688 21.9743 49.1687Z" fill="#3F3D56"/>
<path d="M32.4175 65.1481L32.8828 69.2717L40.2248 68.6304C40.8463 68.5762 41.4178 68.3069 41.8136 67.8819C42.2094 67.4568 42.3972 66.9108 42.3355 66.364C42.2738 65.8172 41.9678 65.3143 41.4847 64.9661C41.0017 64.6178 40.3811 64.4526 39.7597 64.5069L32.4175 65.1481Z" fill="#E6E6E6"/>
<path d="M26.033 64.6705C26.0436 66.0765 26.6854 67.4219 27.8185 68.4134C28.9516 69.4049 30.4842 69.9622 32.0822 69.9638H33.2895L34.1684 63.5192L26.8912 61.2141L26.033 64.6705Z" fill="#00BFA6"/>
<path d="M68.7999 20.5548L68.5698 20.3524L68.9174 20.0465L70.9941 17.914L71.2411 18.1002L69.156 20.2407L68.7999 20.5548Z" fill="white"/>
<path d="M289 176.427H0V177H289V176.427Z" fill="#3F3D56"/>
<path d="M110.328 176.141H178.672V103.201C178.672 99.3384 174.349 96.1962 169.034 96.1962H119.966C114.651 96.1962 110.328 99.3384 110.328 103.201V176.141Z" fill="#E6E6E6"/>
<path d="M115.535 173.125H173.465V111.299C173.465 108.025 169.8 105.362 165.296 105.362H123.704C119.2 105.362 115.535 108.025 115.535 111.299V173.125Z" fill="white"/>
<path d="M109.811 90.5197C108.122 90.5197 106.748 91.5186 106.748 92.7462V99.1732C106.748 100.401 108.122 101.4 109.811 101.4H179.189C180.878 101.4 182.252 100.401 182.252 99.1732V92.7462C182.252 91.5186 180.878 90.5197 179.189 90.5197H109.811Z" fill="#3F3D56"/>
<path d="M124.056 165.197C123.262 165.199 122.503 165.477 121.942 165.971C121.381 166.464 121.065 167.133 121.062 167.831C121.065 168.528 121.381 169.197 121.942 169.691C122.503 170.184 123.262 170.462 124.056 170.464H129.658V165.197H124.056Z" fill="#3F3D56"/>
<path d="M134.8 165.197H129.351V170.464H134.8C135.593 170.462 136.353 170.184 136.914 169.691C137.474 169.197 137.79 168.528 137.793 167.831C137.79 167.133 137.474 166.464 136.914 165.971C136.353 165.477 135.593 165.199 134.8 165.197Z" fill="#00BFA6"/>
<path opacity="0.2" d="M136.753 165.842C137.225 166.318 137.485 166.929 137.486 167.56C137.484 168.258 137.167 168.927 136.607 169.42C136.046 169.914 135.286 170.192 134.493 170.194H129.351V170.464H134.8C135.593 170.462 136.353 170.184 136.914 169.691C137.474 169.197 137.79 168.528 137.793 167.831C137.792 167.453 137.699 167.08 137.519 166.736C137.34 166.393 137.078 166.088 136.753 165.842Z" fill="black"/>
<path d="M149.337 125.529C148.791 125.023 148.04 124.727 147.247 124.706C146.454 124.686 145.684 124.942 145.106 125.419C144.53 125.899 144.194 126.56 144.17 127.258C144.147 127.955 144.438 128.633 144.981 129.142L148.824 132.729L153.179 129.116L149.337 125.529Z" fill="#3F3D56"/>
<path d="M156.707 132.408L152.969 128.919L148.613 132.532L152.351 136.021C152.896 136.527 153.648 136.823 154.44 136.844C155.233 136.864 156.003 136.608 156.582 136.131C157.157 135.651 157.493 134.99 157.517 134.292C157.54 133.595 157.249 132.917 156.707 132.408Z" fill="#00BFA6"/>
<path opacity="0.2" d="M157.513 134.101C157.443 134.73 157.117 135.315 156.594 135.749C156.016 136.226 155.246 136.482 154.453 136.462C153.66 136.441 152.909 136.145 152.363 135.639L148.836 132.347L148.613 132.532L152.351 136.021C152.896 136.527 153.648 136.823 154.44 136.844C155.233 136.864 156.003 136.608 156.582 136.131C156.894 135.871 157.138 135.556 157.299 135.205C157.46 134.855 157.533 134.478 157.513 134.101Z" fill="black"/>
<path d="M133.39 133.833C132.844 133.327 132.093 133.031 131.3 133.011C130.507 132.99 129.737 133.246 129.159 133.723C128.583 134.204 128.247 134.865 128.223 135.562C128.2 136.26 128.491 136.937 129.034 137.446L132.877 141.033L137.232 137.42L133.39 133.833Z" fill="#3F3D56"/>
<path d="M140.759 140.712L137.022 137.224L132.666 140.837L136.404 144.325C136.949 144.832 137.701 145.128 138.493 145.148C139.286 145.169 140.056 144.912 140.635 144.435C141.21 143.955 141.546 143.294 141.57 142.597C141.593 141.899 141.302 141.222 140.759 140.712Z" fill="#00BFA6"/>
<path opacity="0.2" d="M141.566 142.405C141.496 143.034 141.169 143.62 140.647 144.053C140.069 144.531 139.299 144.787 138.506 144.766C137.713 144.746 136.962 144.45 136.416 143.943L132.889 140.651L132.666 140.837L136.404 144.325C136.949 144.832 137.701 145.128 138.493 145.148C139.286 145.169 140.056 144.912 140.635 144.435C140.946 144.176 141.191 143.86 141.352 143.51C141.513 143.159 141.585 142.783 141.566 142.405Z" fill="black"/>
<path d="M149.337 141.565C148.791 141.059 148.04 140.763 147.247 140.742C146.454 140.722 145.684 140.978 145.106 141.455C144.53 141.935 144.194 142.596 144.17 143.294C144.147 143.991 144.438 144.669 144.981 145.178L148.824 148.765L153.179 145.152L149.337 141.565Z" fill="#3F3D56"/>
<path d="M156.707 148.444L152.969 144.955L148.613 148.568L152.351 152.057C152.896 152.563 153.648 152.859 154.44 152.88C155.233 152.9 156.003 152.644 156.582 152.167C157.157 151.687 157.493 151.026 157.517 150.328C157.54 149.631 157.249 148.953 156.707 148.444Z" fill="#00BFA6"/>
<path opacity="0.2" d="M157.513 150.137C157.443 150.766 157.117 151.351 156.594 151.785C156.016 152.262 155.246 152.519 154.453 152.498C153.66 152.477 152.909 152.182 152.363 151.675L148.836 148.383L148.613 148.568L152.351 152.057C152.896 152.563 153.648 152.859 154.44 152.88C155.233 152.9 156.003 152.644 156.582 152.167C156.894 151.907 157.138 151.592 157.299 151.241C157.46 150.891 157.533 150.514 157.513 150.137Z" fill="black"/>
<path d="M159.065 158.021C159.634 157.535 159.961 156.87 159.975 156.173C159.989 155.475 159.688 154.801 159.139 154.297C158.586 153.797 157.831 153.509 157.038 153.497C156.245 153.485 155.479 153.749 154.907 154.233L150.877 157.657L155.036 161.446L159.065 158.021Z" fill="#3F3D56"/>
<path d="M151.337 164.589L155.256 161.258L151.098 157.47L147.178 160.8C146.61 161.287 146.283 161.951 146.269 162.649C146.255 163.347 146.556 164.021 147.105 164.524C147.658 165.025 148.413 165.312 149.206 165.325C149.999 165.337 150.765 165.072 151.337 164.589Z" fill="#00BFA6"/>
<path opacity="0.2" d="M149.423 165.319C148.708 165.265 148.038 164.985 147.539 164.531C146.99 164.028 146.689 163.353 146.703 162.656C146.717 161.958 147.044 161.293 147.612 160.807L151.311 157.664L151.098 157.47L147.178 160.8C146.61 161.287 146.283 161.951 146.269 162.649C146.255 163.347 146.556 164.021 147.105 164.524C147.404 164.796 147.765 165.007 148.165 165.144C148.566 165.281 148.994 165.341 149.423 165.319Z" fill="black"/>
<path d="M137.586 149.717C138.154 149.23 138.481 148.566 138.495 147.868C138.509 147.17 138.208 146.496 137.659 145.993C137.106 145.492 136.351 145.205 135.558 145.193C134.765 145.18 133.999 145.445 133.427 145.928L129.397 149.353L133.556 153.141L137.586 149.717Z" fill="#3F3D56"/>
<path d="M129.857 156.285L133.777 152.954L129.618 149.165L125.699 152.496C125.13 152.982 124.803 153.647 124.789 154.345C124.775 155.042 125.076 155.716 125.625 156.22C126.178 156.72 126.933 157.008 127.726 157.02C128.519 157.032 129.285 156.768 129.857 156.285Z" fill="#00BFA6"/>
<path opacity="0.2" d="M127.943 157.014C127.228 156.96 126.559 156.681 126.059 156.226C125.51 155.723 125.209 155.049 125.223 154.351C125.237 153.653 125.564 152.989 126.133 152.503L129.831 149.36L129.618 149.165L125.699 152.496C125.13 152.982 124.803 153.647 124.789 154.345C124.775 155.042 125.076 155.716 125.625 156.22C125.924 156.491 126.286 156.703 126.686 156.84C127.086 156.977 127.515 157.036 127.943 157.014Z" fill="black"/>
<path d="M168.178 139.694C168.747 139.208 169.074 138.543 169.087 137.846C169.101 137.148 168.801 136.474 168.251 135.97C167.699 135.47 166.943 135.182 166.15 135.17C165.357 135.158 164.591 135.422 164.019 135.906L159.99 139.33L164.148 143.119L168.178 139.694Z" fill="#3F3D56"/>
<path d="M160.45 146.262L164.369 142.931L160.21 139.143L156.291 142.473C155.722 142.96 155.395 143.624 155.381 144.322C155.368 145.02 155.668 145.694 156.217 146.197C156.77 146.698 157.525 146.986 158.318 146.998C159.111 147.01 159.878 146.745 160.45 146.262Z" fill="#00BFA6"/>
<path opacity="0.2" d="M158.536 146.992C157.82 146.938 157.151 146.658 156.652 146.204C156.102 145.701 155.802 145.026 155.815 144.329C155.829 143.631 156.156 142.966 156.725 142.48L160.423 139.337L160.21 139.143L156.291 142.473C155.722 142.96 155.395 143.624 155.381 144.322C155.368 145.02 155.668 145.694 156.217 146.197C156.516 146.469 156.878 146.68 157.278 146.817C157.678 146.954 158.107 147.014 158.536 146.992Z" fill="black"/>
<path d="M161.378 160.465C160.833 159.958 160.081 159.662 159.289 159.642C158.496 159.621 157.726 159.878 157.147 160.355C156.572 160.835 156.236 161.496 156.212 162.193C156.189 162.891 156.48 163.568 157.022 164.078L160.865 167.665L165.221 164.052L161.378 160.465Z" fill="#3F3D56"/>
<path d="M168.748 167.344L165.011 163.855L160.655 167.468L164.392 170.957C164.938 171.463 165.689 171.759 166.482 171.779C167.275 171.8 168.045 171.544 168.623 171.067C169.199 170.586 169.535 169.925 169.558 169.228C169.582 168.53 169.291 167.853 168.748 167.344Z" fill="#00BFA6"/>
<path opacity="0.2" d="M169.555 169.037C169.484 169.666 169.158 170.251 168.636 170.685C168.057 171.162 167.288 171.418 166.495 171.398C165.702 171.377 164.951 171.081 164.405 170.575L160.878 167.283L160.655 167.468L164.392 170.957C164.938 171.463 165.689 171.759 166.482 171.779C167.275 171.8 168.045 171.544 168.623 171.067C168.935 170.807 169.18 170.491 169.341 170.141C169.501 169.791 169.574 169.414 169.555 169.037Z" fill="black"/>
<path d="M140.224 160.178C139.678 159.672 138.927 159.376 138.134 159.356C137.342 159.335 136.572 159.591 135.993 160.068C135.418 160.549 135.081 161.21 135.058 161.907C135.035 162.605 135.326 163.282 135.868 163.791L139.711 167.378L144.067 163.765L140.224 160.178Z" fill="#3F3D56"/>
<path d="M147.594 167.057L143.856 163.569L139.5 167.182L143.238 170.67C143.784 171.177 144.535 171.473 145.328 171.493C146.121 171.514 146.89 171.257 147.469 170.78C148.045 170.3 148.381 169.639 148.404 168.942C148.428 168.244 148.136 167.567 147.594 167.057Z" fill="#00BFA6"/>
<path opacity="0.2" d="M148.4 168.75C148.33 169.379 148.004 169.965 147.482 170.398C146.903 170.876 146.133 171.132 145.341 171.111C144.548 171.091 143.797 170.795 143.251 170.289L139.724 166.996L139.5 167.182L143.238 170.67C143.784 171.177 144.535 171.473 145.328 171.493C146.121 171.514 146.89 171.257 147.469 170.78C147.781 170.521 148.026 170.205 148.186 169.855C148.347 169.504 148.42 169.128 148.4 168.75Z" fill="black"/>
<path d="M146.179 150.73C146.179 151.606 145.835 152.455 145.206 153.133C144.577 153.811 143.7 154.277 142.725 154.452C142.156 154.554 141.569 154.554 140.999 154.452C140.024 154.277 139.148 153.811 138.519 153.133C137.889 152.455 137.546 151.606 137.546 150.73C137.546 149.855 137.889 149.006 138.519 148.328C139.148 147.65 140.024 147.184 140.999 147.008C141.569 146.907 142.156 146.907 142.725 147.008C143.7 147.183 144.577 147.65 145.206 148.328C145.835 149.006 146.179 149.855 146.179 150.73Z" fill="#00BFA6"/>
<path opacity="0.2" d="M142.725 147.008V154.452C142.156 154.554 141.569 154.554 140.999 154.452V147.008C141.569 146.907 142.156 146.907 142.725 147.008Z" fill="black"/>
<path d="M148.131 135.553C148.131 136.429 147.788 137.278 147.159 137.956C146.529 138.634 145.653 139.1 144.678 139.275C144.108 139.377 143.521 139.377 142.951 139.275C141.977 139.1 141.1 138.634 140.471 137.956C139.842 137.277 139.498 136.429 139.498 135.553C139.498 134.678 139.842 133.829 140.471 133.151C141.1 132.473 141.977 132.007 142.951 131.831C143.521 131.73 144.108 131.73 144.678 131.831C145.653 132.006 146.529 132.473 147.159 133.151C147.788 133.829 148.131 134.678 148.131 135.553Z" fill="#00BFA6"/>
<path opacity="0.2" d="M144.678 131.831V139.275C144.108 139.377 143.521 139.377 142.951 139.275V131.831C143.521 131.73 144.108 131.73 144.678 131.831Z" fill="black"/>
<path d="M148.131 157.317C148.131 158.192 147.788 159.041 147.159 159.719C146.529 160.397 145.653 160.864 144.678 161.039C144.108 161.14 143.521 161.14 142.951 161.039C141.977 160.863 141.1 160.397 140.471 159.719C139.842 159.041 139.498 158.192 139.498 157.317C139.498 156.441 139.842 155.592 140.471 154.914C141.1 154.236 141.977 153.77 142.951 153.595C143.521 153.493 144.108 153.493 144.678 153.595C145.653 153.77 146.529 154.236 147.159 154.914C147.788 155.592 148.131 156.441 148.131 157.317Z" fill="#00BFA6"/>
<path opacity="0.2" d="M144.678 153.595V161.039C144.108 161.14 143.521 161.14 142.951 161.039V153.595C143.521 153.493 144.108 153.493 144.678 153.595Z" fill="black"/>
<path d="M158.871 167.912C158.871 168.787 158.528 169.636 157.899 170.314C157.269 170.993 156.393 171.459 155.418 171.634C154.848 171.735 154.261 171.735 153.691 171.634C152.717 171.459 151.84 170.992 151.211 170.314C150.582 169.636 150.238 168.787 150.238 167.912C150.238 167.036 150.582 166.188 151.211 165.509C151.84 164.831 152.717 164.365 153.691 164.19C154.261 164.089 154.848 164.089 155.418 164.19C156.393 164.365 157.269 164.831 157.899 165.509C158.528 166.188 158.871 167.036 158.871 167.912Z" fill="#00BFA6"/>
<path opacity="0.2" d="M155.418 164.19V171.634C154.848 171.735 154.261 171.735 153.691 171.634V164.19C154.261 164.089 154.848 164.089 155.418 164.19Z" fill="black"/>
<path d="M168.359 148.418C169.075 149.025 169.531 149.832 169.65 150.701C169.768 151.571 169.541 152.449 169.008 153.188C168.695 153.62 168.288 153.992 167.81 154.282C166.99 154.778 166 155.01 165.008 154.938C164.017 154.866 163.084 154.495 162.367 153.887C161.651 153.279 161.195 152.473 161.077 151.603C160.958 150.734 161.185 149.856 161.718 149.116C162.031 148.685 162.438 148.313 162.916 148.022C163.736 147.526 164.726 147.295 165.718 147.367C166.709 147.439 167.642 147.81 168.359 148.418Z" fill="#00BFA6"/>
<path opacity="0.2" d="M162.916 148.022L169.008 153.188C168.695 153.62 168.288 153.992 167.81 154.282L161.718 149.116C162.031 148.685 162.438 148.313 162.916 148.022Z" fill="black"/>
<path d="M169.66 156.722C170.377 157.33 170.833 158.136 170.951 159.006C171.07 159.875 170.843 160.754 170.31 161.493C169.997 161.924 169.59 162.296 169.111 162.587C168.291 163.083 167.302 163.314 166.31 163.242C165.319 163.17 164.386 162.799 163.669 162.191C162.953 161.584 162.497 160.777 162.379 159.908C162.26 159.039 162.487 158.16 163.02 157.421C163.332 156.989 163.74 156.618 164.218 156.327C165.038 155.831 166.028 155.599 167.019 155.671C168.011 155.743 168.944 156.114 169.66 156.722Z" fill="#00BFA6"/>
<path opacity="0.2" d="M164.218 156.327L170.31 161.493C169.997 161.924 169.59 162.296 169.111 162.587L163.02 157.421C163.333 156.989 163.74 156.618 164.218 156.327Z" fill="black"/>
<path d="M130.932 158.727C131.648 159.334 132.104 160.141 132.223 161.01C132.341 161.88 132.114 162.758 131.581 163.497C131.269 163.929 130.861 164.301 130.383 164.591C129.563 165.087 128.573 165.319 127.582 165.247C126.59 165.175 125.657 164.803 124.941 164.196C124.224 163.588 123.768 162.782 123.65 161.912C123.532 161.043 123.758 160.164 124.291 159.425C124.604 158.994 125.011 158.622 125.49 158.331C126.31 157.835 127.299 157.604 128.291 157.676C129.282 157.748 130.215 158.119 130.932 158.727Z" fill="#00BFA6"/>
<path opacity="0.2" d="M125.49 158.331L131.581 163.497C131.269 163.929 130.861 164.301 130.383 164.591L124.292 159.425C124.604 158.994 125.011 158.622 125.49 158.331Z" fill="black"/>
<path opacity="0.2" d="M116.999 90.5197H115.372V101.115H116.999V90.5197Z" fill="black"/>
<path opacity="0.2" d="M126.438 90.5197H124.81V101.115H126.438V90.5197Z" fill="black"/>
<path opacity="0.2" d="M135.876 90.5197H134.248V101.115H135.876V90.5197Z" fill="black"/>
<path opacity="0.2" d="M145.314 90.5197H143.686V101.115H145.314V90.5197Z" fill="black"/>
<path opacity="0.2" d="M154.752 90.5197H153.125V101.115H154.752V90.5197Z" fill="black"/>
<path opacity="0.2" d="M164.19 90.5197H162.562V101.115H164.19V90.5197Z" fill="black"/>
<path opacity="0.2" d="M173.628 90.5197H172V101.115H173.628V90.5197Z" fill="black"/>
</svg>
