<svg width="233" height="162" viewBox="0 0 233 162" fill="none" xmlns="http://www.w3.org/2000/svg">
<path d="M71.315 75.1275H41.3228V109.608H71.315V75.1275Z" fill="#CCCCCC"/>
<path d="M26.0542 161.468H10.7854L9.14951 148.012H27.6901L26.0542 161.468Z" fill="#E6E6E6"/>
<path d="M56.7144 151.722L56.1991 158.964C56.1758 159.292 56.2209 159.621 56.3315 159.929C56.442 160.238 56.6154 160.518 56.8401 160.752C57.0647 160.986 57.3354 161.168 57.634 161.285C57.9325 161.403 58.2521 161.453 58.5712 161.434L62.1893 161.208C62.357 161.198 62.5203 161.149 62.6677 161.067C62.8152 160.984 62.9431 160.869 63.0424 160.73C63.1417 160.59 63.21 160.43 63.2423 160.261C63.2747 160.092 63.2703 159.917 63.2296 159.749L61.2212 151.49L56.7144 151.722Z" fill="#E6E6E6"/>
<path d="M86.978 156.004C91.2362 157.029 94.2781 158.484 96.2764 160.454C96.988 161.151 97.9191 161.561 98.9003 161.611C100.154 161.679 101.178 161.534 101.948 161.181H101.949C102.146 161.091 102.316 160.949 102.442 160.769C102.568 160.589 102.645 160.378 102.664 160.157C102.688 159.933 102.652 159.706 102.562 159.501C102.471 159.296 102.329 159.119 102.149 158.989L92.0502 151.601L87.7605 153.366L86.7598 154.394C86.6515 154.506 86.5697 154.642 86.521 154.791C86.4723 154.94 86.458 155.099 86.4791 155.255C86.5003 155.411 86.5563 155.56 86.6429 155.69C86.7295 155.82 86.8441 155.928 86.978 156.004H86.978Z" fill="#E6E6E6"/>
<path d="M73.8735 37.7585L45.0065 37.4837C45.0791 33.1609 46.0573 28.916 48.1957 25.1174C49.6001 22.6226 49.5697 19.9076 49.2313 17.6202C48.709 14.0904 49.9235 10.4788 52.6223 8.23176C54.6848 6.51158 57.2878 5.6261 59.9411 5.74209L60.5017 5.7661C62.3275 5.84411 64.105 6.39246 65.6709 7.36081C67.2369 8.32916 68.5412 9.68646 69.464 11.3081C70.4019 13.0393 70.7802 15.0322 70.5441 16.9989C70.3611 18.8495 70.7989 20.7188 71.823 22.606C73.5898 26.7499 73.9724 32.0527 73.8735 37.7585Z" fill="#2F2E41"/>
<path d="M93.187 151.986L87.5215 153.506L59.9332 91.712L61.6575 151.986H55.992C49.9381 123.629 39.0081 90.9014 43.9221 80.5688L73.2347 78.796L93.187 151.986Z" fill="#00BFA6"/>
<path d="M59.6869 27.3855C63.9041 27.3855 67.3229 23.8705 67.3229 19.5346C67.3229 15.1987 63.9041 11.6837 59.6869 11.6837C55.4696 11.6837 52.0508 15.1987 52.0508 19.5346C52.0508 23.8705 55.4696 27.3855 59.6869 27.3855Z" fill="#FFB9B9"/>
<path d="M66.3376 33.9701L53.7751 33.2103C55.0062 30.3051 55.498 27.5075 55.0067 24.8529H64.367C64.3458 26.8911 65.3323 30.4167 66.3376 33.9701Z" fill="#FFB9B9"/>
<path d="M74.22 81.0752L46.6318 83.1014L49.4644 32.8305L54.2678 31.4375L59.6868 32.7037L65.1059 29.9179L68.5544 31.1844L74.22 81.0752Z" fill="#00BFA6"/>
<path d="M51.3119 117.291L32.468 112.859C38.0713 93.755 48.1658 50.0512 44.9074 34.4766L54.7604 29.918L51.3119 117.291Z" fill="#E6E6E6"/>
<path d="M42.1978 62.0813L35.0544 57.5227L41.1465 39.1783C41.826 37.2854 43.1274 35.6961 44.8258 34.6851L46.878 33.4636L45.6464 51.9511L42.1978 62.0813Z" fill="#E6E6E6"/>
<path d="M90.6006 113.112C84.6531 116.65 69.7863 118.622 63.2586 116.151C62.7783 98.8906 61.8362 50.0671 64.8597 29.4115L75.698 33.9701L74.7127 47.6458C69.5311 59.3446 84.5773 100.092 90.6006 113.112Z" fill="#E6E6E6"/>
<path d="M89.7385 59.8021L83.0876 57.5228L74.22 47.1392L75.698 33.97L90.4774 55.2434L89.7385 59.8021Z" fill="#E6E6E6"/>
<path d="M68.895 69.6595C69.0039 70.1505 69.2976 70.577 69.7119 70.8457C70.1262 71.1143 70.6271 71.2031 71.105 71.0926L76.7506 69.7781L75.9347 66.0731L70.2889 67.3874C69.8111 67.4987 69.3958 67.8006 69.1344 68.2267C68.873 68.6528 68.7869 69.1681 68.895 69.6595V69.6595Z" fill="#FFB9B9"/>
<path d="M66.3376 17.5085C62.0963 15.7154 57.9073 15.5857 53.7751 17.2553L52.0508 10.9239H67.8156L66.3376 17.5085Z" fill="#2F2E41"/>
<path d="M73.9737 65.3736L77.1759 71.4517C82.562 69.9072 87.2298 65.0381 91.709 59.2955L90.4774 55.2434L82.8413 57.2694L73.9737 65.3736Z" fill="#E6E6E6"/>
<path d="M71.6336 52.8375H70.6483C70.6483 38.5098 67.779 28.5251 64.9828 28.5251L64.7365 27.5121C67.2441 27.5121 68.8428 31.6676 69.7424 35.1539C70.962 39.88 71.6336 46.1601 71.6336 52.8375Z" fill="#3F3D56"/>
<path d="M48.9718 49.2919H47.9865C47.9865 36.1701 50.8756 28.0186 55.1299 28.0186L54.8835 29.0316C51.9409 29.0316 48.9718 35.2963 48.9718 49.2919Z" fill="#3F3D56"/>
<path d="M71.141 55.6233C72.5014 55.6233 73.6042 54.4894 73.6042 53.0907C73.6042 51.6921 72.5014 50.5582 71.141 50.5582C69.7805 50.5582 68.6777 51.6921 68.6777 53.0907C68.6777 54.4894 69.7805 55.6233 71.141 55.6233Z" fill="#3F3D56"/>
<path d="M45.0306 55.37H44.0453C44.0453 51.7393 46.0343 48.7854 48.4791 48.7854V49.7984C46.5776 49.7984 45.0306 52.2978 45.0306 55.37Z" fill="#3F3D56"/>
<path d="M52.913 55.37H51.9277C51.9277 52.2978 50.3807 49.7984 48.4791 49.7984V48.7854C50.924 48.7854 52.913 51.7393 52.913 55.37Z" fill="#3F3D56"/>
<path d="M52.4203 56.6363C52.9645 56.6363 53.4056 56.1828 53.4056 55.6233C53.4056 55.0638 52.9645 54.6103 52.4203 54.6103C51.8761 54.6103 51.435 55.0638 51.435 55.6233C51.435 56.1828 51.8761 56.6363 52.4203 56.6363Z" fill="#3F3D56"/>
<path d="M44.5379 56.6363C45.0821 56.6363 45.5232 56.1828 45.5232 55.6233C45.5232 55.0638 45.0821 54.6103 44.5379 54.6103C43.9938 54.6103 43.5526 55.0638 43.5526 55.6233C43.5526 56.1828 43.9938 56.6363 44.5379 56.6363Z" fill="#3F3D56"/>
<path d="M32.2217 46.308L38.3693 47.4366L52.4203 67.9778L44.9555 66.1719L32.2217 46.308Z" fill="#00BFA6"/>
<path d="M31.1313 46.0565C31.0376 46.058 30.946 46.0853 30.8661 46.1356C30.7862 46.1859 30.721 46.2573 30.6771 46.3424C30.6333 46.4276 30.6125 46.5232 30.6169 46.6194C30.6213 46.7157 30.6508 46.8089 30.7023 46.8894L43.8365 67.3779C43.9098 67.4924 44.023 67.5737 44.1528 67.605L50.2638 69.0832C50.3668 69.1082 50.4748 69.1003 50.5733 69.0607C50.6719 69.0211 50.7565 68.9516 50.8158 68.8614C50.875 68.7713 50.9063 68.6647 50.9053 68.5559C50.9043 68.4471 50.8712 68.3411 50.8103 68.2521L36.3897 47.1711C36.3506 47.1136 36.3009 47.0647 36.2434 47.027C36.1859 46.9894 36.1217 46.9637 36.0545 46.9516L31.2298 46.0657C31.1973 46.0597 31.1643 46.0566 31.1313 46.0565V46.0565Z" fill="#3F3D56"/>
<path d="M39.3245 60.7056L39.6895 64.4858L45.4497 63.898C45.9373 63.8482 46.3857 63.6013 46.6963 63.2117C47.0068 62.8221 47.1541 62.3215 47.1057 61.8202C47.0573 61.3189 46.8172 60.8579 46.4382 60.5387C46.0592 60.2194 45.5724 60.0679 45.0848 60.1177L39.3245 60.7056Z" fill="#FFB9B9"/>
<path d="M34.3156 60.2677C34.3239 61.5567 34.8275 62.79 35.7164 63.699C36.6054 64.6079 37.8078 65.1188 39.0615 65.1203H40.0087L40.6983 59.2122L34.9889 57.099L34.3156 60.2677Z" fill="#E6E6E6"/>
<path d="M233 0H120.666V60.8309H233V0Z" fill="#E6E6E6"/>
<path d="M123.938 57.467H229.728V3.36392H123.938V57.467Z" fill="white"/>
<path d="M169.744 11.2131H132.117V49.8982H169.744V11.2131Z" fill="#3F3D56"/>
<path d="M160.746 28.8736C161.348 28.8736 161.837 28.3716 161.837 27.7523C161.837 27.1331 161.348 26.631 160.746 26.631C160.144 26.631 159.656 27.1331 159.656 27.7523C159.656 28.3716 160.144 28.8736 160.746 28.8736Z" fill="#00BFA6"/>
<path d="M156.656 24.9491C157.259 24.9491 157.747 24.447 157.747 23.8278C157.747 23.2085 157.259 22.7065 156.656 22.7065C156.054 22.7065 155.566 23.2085 155.566 23.8278C155.566 24.447 156.054 24.9491 156.656 24.9491Z" fill="#00BFA6"/>
<path d="M156.111 27.7524C155.71 27.7524 155.316 27.867 154.975 28.0834C154.674 27.6181 154.32 27.1913 153.921 26.8119C153.926 26.7521 153.93 26.6921 153.93 26.6311C153.93 26.191 153.804 25.7607 153.568 25.3936C153.332 25.0266 152.996 24.7391 152.603 24.567C152.209 24.3949 151.774 24.3458 151.353 24.4259C150.933 24.5059 150.544 24.7116 150.236 25.0172C149.652 24.932 149.06 24.9267 148.474 25.0014C148.474 24.9839 148.477 24.9668 148.477 24.9491C148.477 24.5737 148.386 24.2042 148.211 23.8745C148.037 23.5448 147.785 23.2654 147.478 23.0619C147.171 22.8583 146.82 22.7373 146.455 22.7097C146.091 22.6822 145.726 22.749 145.394 22.9042C145.061 23.0593 144.772 23.2978 144.553 23.5977C144.333 23.8976 144.19 24.2494 144.137 24.6208C144.084 24.9922 144.123 25.3713 144.249 25.7234C144.376 26.0755 144.586 26.3894 144.861 26.6361C144.496 26.9577 144.165 27.3179 143.873 27.7108C143.604 27.4805 143.285 27.3202 142.942 27.2435C142.6 27.1668 142.245 27.176 141.907 27.2703C141.569 27.3645 141.258 27.5411 141 27.7851C140.743 28.0291 140.546 28.3333 140.427 28.6719C140.308 29.0106 140.27 29.3737 140.316 29.7307C140.362 30.0877 140.492 30.4279 140.693 30.7227C140.894 31.0175 141.161 31.2581 141.472 31.4242C141.783 31.5903 142.128 31.677 142.478 31.6769L142.485 31.6766C142.482 31.7698 142.478 31.8631 142.478 31.9573C142.478 32.5215 142.545 33.0837 142.676 33.6317C142.027 33.8824 141.452 34.2985 141.003 34.8407C140.554 35.3829 140.246 36.0335 140.108 36.7315C139.971 37.4294 140.008 38.1518 140.217 38.8309C140.425 39.51 140.798 40.1235 141.301 40.6138C141.803 41.1041 142.418 41.4551 143.089 41.634C143.759 41.8128 144.463 41.8136 145.133 41.6363C145.804 41.4589 146.42 41.1093 146.924 40.6201C147.427 40.1309 147.801 39.5182 148.011 38.8396C149.528 39.1394 151.1 38.8998 152.467 38.16C152.607 38.498 152.825 38.7955 153.102 39.0265C153.38 39.2575 153.708 39.4149 154.059 39.4849C154.409 39.555 154.771 39.5354 155.113 39.4281C155.454 39.3207 155.765 39.1288 156.017 38.8692C156.27 38.6096 156.457 38.2902 156.561 37.9391C156.665 37.588 156.684 37.2159 156.616 36.8555C156.548 36.4951 156.395 36.1574 156.17 35.872C155.946 35.5867 155.656 35.3624 155.328 35.2188C155.8 34.2972 156.065 33.2783 156.104 32.2372L156.111 32.2376C156.689 32.2376 157.244 32.0013 157.653 31.5808C158.062 31.1602 158.292 30.5898 158.292 29.995C158.292 29.4002 158.062 28.8298 157.653 28.4092C157.244 27.9886 156.689 27.7524 156.111 27.7524V27.7524Z" fill="#00BFA6"/>
<path d="M155.566 10.3721H144.659V12.054H155.566V10.3721Z" fill="#E6E6E6"/>
<path d="M217.731 11.2131H180.105V49.8982H217.731V11.2131Z" fill="#3F3D56"/>
<path d="M206.062 37.4517C206.333 37.4517 206.552 37.2257 206.552 36.9471C206.552 36.6684 206.333 36.4425 206.062 36.4425C205.791 36.4425 205.571 36.6684 205.571 36.9471C205.571 37.2257 205.791 37.4517 206.062 37.4517Z" fill="#00BFA6"/>
<path d="M204.221 35.6856C204.492 35.6856 204.712 35.4597 204.712 35.181C204.712 34.9023 204.492 34.6764 204.221 34.6764C203.95 34.6764 203.73 34.9023 203.73 35.181C203.73 35.4597 203.95 35.6856 204.221 35.6856Z" fill="#00BFA6"/>
<path d="M203.976 36.9471C203.795 36.9471 203.618 36.9987 203.464 37.096C203.329 36.8866 203.17 36.6946 202.99 36.5238C202.992 36.4969 202.994 36.4699 202.994 36.4425C202.994 36.2445 202.938 36.0508 202.832 35.8856C202.725 35.7204 202.574 35.5911 202.397 35.5136C202.22 35.4362 202.024 35.4141 201.835 35.4501C201.646 35.4862 201.471 35.5787 201.332 35.7163C201.069 35.6779 200.803 35.6755 200.539 35.7091C200.539 35.7012 200.54 35.6935 200.54 35.6856C200.541 35.5167 200.5 35.3504 200.421 35.202C200.342 35.0536 200.229 34.9279 200.091 34.8363C199.953 34.7448 199.795 34.6903 199.631 34.6779C199.467 34.6655 199.303 34.6956 199.153 34.7654C199.003 34.8352 198.873 34.9425 198.775 35.0775C198.676 35.2124 198.611 35.3707 198.588 35.5378C198.564 35.705 198.581 35.8756 198.638 36.034C198.695 36.1925 198.79 36.3337 198.913 36.4448C198.749 36.5895 198.6 36.7516 198.469 36.9284C198.348 36.8247 198.204 36.7526 198.05 36.7181C197.896 36.6836 197.736 36.6877 197.584 36.7301C197.432 36.7725 197.292 36.852 197.176 36.9618C197.06 37.0716 196.972 37.2085 196.918 37.3609C196.864 37.5133 196.847 37.6767 196.868 37.8373C196.889 37.9979 196.947 38.1511 197.038 38.2837C197.128 38.4163 197.248 38.5246 197.388 38.5994C197.528 38.6741 197.683 38.7131 197.841 38.7131L197.844 38.713C197.843 38.7549 197.841 38.7969 197.841 38.8393C197.841 39.0932 197.871 39.3462 197.93 39.5927C197.638 39.7056 197.379 39.8928 197.177 40.1368C196.975 40.3808 196.836 40.6736 196.775 40.9876C196.713 41.3017 196.73 41.6268 196.823 41.9324C196.917 42.238 197.085 42.514 197.311 42.7347C197.537 42.9553 197.814 43.1133 198.116 43.1938C198.417 43.2743 198.734 43.2746 199.036 43.1948C199.338 43.115 199.615 42.9576 199.841 42.7375C200.068 42.5174 200.236 42.2417 200.331 41.9363C201.014 42.0712 201.721 41.9634 202.336 41.6305C202.399 41.7826 202.497 41.9165 202.622 42.0204C202.747 42.1244 202.895 42.1952 203.052 42.2267C203.21 42.2582 203.373 42.2494 203.527 42.2011C203.68 42.1528 203.82 42.0664 203.934 41.9496C204.047 41.8328 204.131 41.6891 204.178 41.5311C204.225 41.3731 204.234 41.2056 204.203 41.0435C204.173 40.8813 204.104 40.7293 204.003 40.6009C203.901 40.4725 203.771 40.3716 203.623 40.307C203.836 39.8922 203.955 39.4337 203.973 38.9653L203.976 38.9654C204.236 38.9654 204.486 38.8591 204.67 38.6698C204.854 38.4806 204.957 38.2239 204.957 37.9562C204.957 37.6886 204.854 37.4319 204.67 37.2426C204.486 37.0534 204.236 36.9471 203.976 36.9471V36.9471Z" fill="#00BFA6"/>
<path d="M209.912 27.8762C210.183 27.8762 210.403 27.6502 210.403 27.3716C210.403 27.0929 210.183 26.867 209.912 26.867C209.641 26.867 209.421 27.0929 209.421 27.3716C209.421 27.6502 209.641 27.8762 209.912 27.8762Z" fill="#00BFA6"/>
<path d="M211.067 25.5761C211.338 25.5761 211.557 25.3502 211.557 25.0715C211.557 24.7928 211.338 24.5669 211.067 24.5669C210.795 24.5669 210.576 24.7928 210.576 25.0715C210.576 25.3502 210.795 25.5761 211.067 25.5761Z" fill="#00BFA6"/>
<path d="M209.347 25.3074C209.298 25.1286 209.201 24.9674 209.068 24.8417C209.228 24.6509 209.364 24.4413 209.476 24.2173C209.501 24.2121 209.527 24.2066 209.553 24.1992C209.738 24.1456 209.904 24.0372 210.03 23.8873C210.156 23.7374 210.236 23.5528 210.261 23.3564C210.285 23.16 210.253 22.9605 210.168 22.7829C210.083 22.6052 209.949 22.4572 209.782 22.3574C209.747 22.0869 209.677 21.8224 209.574 21.5708C209.581 21.5688 209.589 21.5677 209.596 21.5655C209.755 21.5199 209.899 21.4343 210.017 21.3163C210.134 21.1984 210.221 21.052 210.27 20.8906C210.318 20.7291 210.326 20.5578 210.293 20.3923C210.26 20.2268 210.188 20.0724 210.082 19.9432C209.976 19.8141 209.84 19.7144 209.687 19.6532C209.534 19.592 209.368 19.5713 209.205 19.593C209.042 19.6147 208.887 19.6781 208.754 19.7774C208.622 19.8767 208.515 20.0087 208.445 20.1613C208.265 20.0379 208.072 19.9344 207.871 19.8523C207.935 19.7043 207.964 19.5426 207.955 19.3808C207.945 19.2191 207.898 19.062 207.817 18.923C207.736 18.7839 207.624 18.667 207.49 18.582C207.355 18.497 207.203 18.4466 207.046 18.4348C206.889 18.4231 206.731 18.4505 206.586 18.5146C206.442 18.5788 206.314 18.6778 206.214 18.8034C206.115 18.9289 206.046 19.0773 206.014 19.236C205.982 19.3946 205.987 19.5589 206.03 19.7149L206.031 19.7179C205.991 19.7277 205.952 19.7376 205.912 19.7491C205.674 19.818 205.446 19.916 205.231 20.0412C205.046 19.7831 204.8 19.5775 204.517 19.4436C204.234 19.3098 203.922 19.2522 203.612 19.2761C203.301 19.3 203.001 19.4047 202.74 19.5804C202.48 19.7561 202.267 19.9971 202.121 20.2806C201.976 20.5641 201.903 20.8809 201.91 21.2013C201.916 21.5217 202.002 21.8351 202.158 22.1122C202.315 22.3893 202.537 22.621 202.805 22.7855C203.072 22.95 203.376 23.0419 203.687 23.0526C203.746 23.7649 204.039 24.4354 204.517 24.9541C204.392 25.0574 204.293 25.1909 204.23 25.3427C204.166 25.4945 204.14 25.6599 204.153 25.8246C204.167 25.9892 204.219 26.148 204.306 26.287C204.393 26.426 204.511 26.5409 204.652 26.6217C204.792 26.7025 204.949 26.7467 205.11 26.7503C205.27 26.754 205.43 26.7171 205.573 26.6428C205.717 26.5685 205.84 26.4591 205.933 26.3242C206.026 26.1894 206.085 26.0331 206.105 25.8693C206.551 25.9672 207.013 25.9611 207.456 25.8513L207.457 25.8545C207.492 25.9821 207.551 26.1015 207.631 26.2057C207.71 26.3099 207.809 26.3969 207.922 26.4618C208.034 26.5266 208.158 26.5681 208.286 26.5837C208.414 26.5994 208.544 26.589 208.668 26.553C208.792 26.5171 208.908 26.4563 209.009 26.3743C209.111 26.2922 209.195 26.1904 209.258 26.0747C209.321 25.959 209.362 25.8317 209.377 25.7001C209.392 25.5684 209.382 25.4349 209.347 25.3073V25.3074Z" fill="#00BFA6"/>
<path d="M190.903 21.0193C191.174 21.0193 191.394 20.7934 191.394 20.5147C191.394 20.236 191.174 20.0101 190.903 20.0101C190.632 20.0101 190.413 20.236 190.413 20.5147C190.413 20.7934 190.632 21.0193 190.903 21.0193Z" fill="#00BFA6"/>
<path d="M188.394 21.226C188.665 21.226 188.885 21.0001 188.885 20.7214C188.885 20.4428 188.665 20.2169 188.394 20.2169C188.123 20.2169 187.903 20.4428 187.903 20.7214C187.903 21.0001 188.123 21.226 188.394 21.226Z" fill="#00BFA6"/>
<path d="M189.497 22.0985C189.375 22.2356 189.293 22.4048 189.259 22.5872C189.018 22.5489 188.772 22.5402 188.529 22.5615C188.511 22.5417 188.492 22.5221 188.473 22.5036C188.331 22.37 188.153 22.2823 187.963 22.2516C187.773 22.2209 187.578 22.2484 187.403 22.3308C187.228 22.4131 187.08 22.5467 186.978 22.7148C186.876 22.8829 186.825 23.0781 186.83 23.276C186.626 23.4497 186.444 23.6505 186.291 23.8733C186.285 23.8678 186.28 23.8619 186.275 23.8565C186.153 23.7425 186.006 23.6615 185.847 23.6211C185.687 23.5807 185.52 23.5821 185.362 23.6251C185.203 23.6682 185.057 23.7516 184.937 23.8677C184.818 23.9837 184.729 24.1287 184.678 24.2894C184.628 24.4501 184.617 24.6212 184.647 24.7873C184.678 24.9533 184.748 25.1088 184.852 25.2396C184.956 25.3704 185.09 25.4722 185.242 25.5358C185.394 25.5994 185.56 25.6228 185.723 25.6036C185.716 25.826 185.732 26.0484 185.771 26.2673C185.614 26.2894 185.466 26.3499 185.337 26.4436C185.209 26.5372 185.104 26.6614 185.032 26.8055C184.96 26.9496 184.922 27.1094 184.923 27.2715C184.924 27.4335 184.962 27.593 185.036 27.7365C185.109 27.8799 185.215 28.0031 185.344 28.0956C185.474 28.1881 185.623 28.2472 185.779 28.2679C185.936 28.2885 186.094 28.2702 186.242 28.2144C186.39 28.1586 186.523 28.067 186.629 27.9473L186.631 27.9449C186.66 27.9744 186.69 28.0038 186.72 28.0324C186.902 28.2035 187.104 28.3515 187.321 28.473C187.205 28.7706 187.165 29.0935 187.204 29.4114C187.243 29.7293 187.36 30.0319 187.544 30.2906C187.728 30.5493 187.973 30.7558 188.256 30.8906C188.538 31.0253 188.85 31.0841 189.161 31.0612C189.472 31.0383 189.772 30.9346 190.033 30.7598C190.294 30.585 190.508 30.3448 190.654 30.0618C190.8 29.7788 190.874 29.4622 190.869 29.1418C190.863 28.8214 190.779 28.5076 190.623 28.23C191.181 27.8025 191.58 27.1929 191.756 26.5013C191.907 26.5561 192.07 26.5719 192.228 26.5471C192.387 26.5224 192.538 26.4579 192.667 26.3594C192.796 26.2608 192.899 26.1313 192.968 25.982C193.037 25.8327 193.069 25.6684 193.062 25.5033C193.055 25.3383 193.008 25.1776 192.926 25.0354C192.844 24.8932 192.73 24.7738 192.593 24.6878C192.456 24.6017 192.3 24.5515 192.14 24.5417C191.979 24.5319 191.819 24.5627 191.673 24.6315C191.518 24.1904 191.269 23.7907 190.945 23.4616L190.947 23.4593C191.034 23.3615 191.101 23.2469 191.145 23.1223C191.19 22.9976 191.209 22.8652 191.203 22.7327C191.198 22.6002 191.167 22.4701 191.112 22.35C191.057 22.2298 190.98 22.122 190.885 22.0325C190.789 21.9431 190.678 21.8739 190.557 21.8288C190.435 21.7837 190.306 21.7636 190.178 21.7697C190.049 21.7759 189.922 21.808 189.805 21.8645C189.689 21.9209 189.584 22.0004 189.497 22.0985V22.0985Z" fill="#00BFA6"/>
<path d="M203.553 10.3721H192.647V12.054H203.553V10.3721Z" fill="#E6E6E6"/>
<path d="M6.86451 143.035C10.7961 148.448 18.9573 149.018 18.9573 149.018C18.9573 149.018 20.7442 140.811 16.8126 135.397C12.881 129.984 4.71976 129.414 4.71976 129.414C4.71976 129.414 2.93291 137.621 6.86451 143.035Z" fill="#E6E6E6"/>
<path d="M26.8929 145.07C24.2986 148.642 18.9132 149.018 18.9132 149.018C18.9132 149.018 17.7341 143.602 20.3285 140.03C22.9228 136.458 28.3082 136.082 28.3082 136.082C28.3082 136.082 29.4873 141.498 26.8929 145.07Z" fill="#E6E6E6"/>
<path d="M141.66 161.372H0V162H141.66V161.372Z" fill="#3F3D56"/>
</svg>
